{"glyphs":{"0":{"ha":797,"x_min":37,"x_max":798,"o":"m 732 357 q 600 81 705 177 q 343 -14 496 -14 q 117 86 197 -14 q 64 357 37 186 l 104 629 q 236 905 132 809 q 494 1002 341 1002 q 719 901 640 1002 q 772 629 798 800 l 732 357 m 578 650 q 565 799 593 748 q 471 849 536 849 q 363 796 408 849 q 305 650 319 743 l 258 338 q 271 188 243 237 q 366 138 299 138 q 472 190 428 138 q 532 338 517 242 l 578 650 z "},"1":{"ha":797,"x_min":206,"x_max":636,"o":"m 486 0 l 288 0 l 410 815 l 206 815 l 229 966 l 636 1002 l 486 0 z "},"2":{"ha":797,"x_min":28,"x_max":777,"o":"m 691 0 l 28 0 l 47 130 l 401 475 q 517 612 481 556 q 561 715 553 668 q 544 813 569 778 q 457 849 519 849 q 352 802 395 849 q 299 684 309 754 l 107 684 l 106 688 q 223 913 121 824 q 479 1002 326 1002 q 701 923 625 1002 q 759 715 777 845 q 691 554 745 623 q 498 351 636 485 l 307 156 l 309 152 l 712 152 l 691 0 z "},"3":{"ha":797,"x_min":24,"x_max":803,"o":"m 783 722 q 725 595 772 651 q 605 507 677 538 q 710 418 677 477 q 732 277 744 359 q 602 61 710 136 q 339 -14 494 -14 q 116 59 209 -14 q 47 264 24 133 l 48 269 l 241 269 q 266 174 233 211 q 361 138 300 138 q 476 178 427 138 q 535 279 526 218 q 513 396 547 360 q 404 432 480 432 l 294 432 l 300 475 l 304 505 l 309 535 l 316 581 l 425 581 q 535 618 494 581 q 585 720 576 655 q 564 813 594 777 q 469 849 534 849 q 373 815 416 849 q 323 731 330 782 l 132 731 l 131 735 q 249 928 145 855 q 492 1002 352 1002 q 721 929 639 1002 q 783 722 803 856 z "},"4":{"ha":797,"x_min":25,"x_max":760,"o":"m 648 368 l 760 368 l 736 214 l 625 214 l 593 0 l 395 0 l 427 214 l 25 214 l 34 333 l 541 987 l 741 987 l 648 368 m 221 371 l 223 368 l 450 368 l 504 726 l 500 727 l 473 683 l 221 371 z "},"5":{"ha":797,"x_min":39,"x_max":795,"o":"m 105 435 l 245 987 l 795 987 l 772 829 l 383 829 l 321 598 q 397 632 353 618 q 490 646 441 645 q 691 561 629 648 q 730 317 753 474 q 612 76 707 167 q 347 -14 517 -14 q 127 59 216 -14 q 61 256 39 132 l 62 260 l 254 269 q 276 171 245 205 q 370 138 308 138 q 478 184 437 138 q 532 315 519 231 q 517 453 545 404 q 420 502 490 502 q 331 481 366 502 q 278 424 296 460 l 105 435 z "},"6":{"ha":797,"x_min":40,"x_max":762,"o":"m 550 1002 q 654 991 606 1002 q 747 960 703 980 l 690 815 q 611 839 647 831 q 528 846 576 846 q 379 779 444 846 q 297 595 314 712 l 292 566 q 395 624 337 604 q 520 644 452 644 q 702 553 642 644 q 741 320 762 463 q 612 76 717 166 q 357 -14 507 -14 q 124 92 209 -14 q 67 381 40 199 l 98 588 q 253 892 127 783 q 550 1002 378 1002 m 431 494 q 339 476 380 494 q 271 427 298 458 l 264 376 q 278 198 245 258 q 380 138 310 138 q 485 190 439 138 q 543 320 530 242 q 525 449 555 404 q 431 494 495 494 z "},"7":{"ha":797,"x_min":119,"x_max":836,"o":"m 814 835 q 532 482 616 639 q 418 122 448 325 l 400 0 l 202 0 l 220 122 q 351 501 252 337 q 623 835 450 665 l 119 835 l 142 987 l 836 987 l 814 835 z "},"8":{"ha":797,"x_min":22,"x_max":791,"o":"m 772 731 q 713 598 760 654 q 597 511 667 542 q 709 415 671 477 q 736 275 747 353 q 610 59 715 133 q 354 -14 505 -14 q 113 63 204 -14 q 43 275 22 140 q 113 421 55 359 q 262 515 172 483 q 165 604 197 547 q 144 731 133 660 q 263 934 165 867 q 505 1002 361 1002 q 714 931 637 1002 q 772 731 791 860 m 540 285 q 516 394 550 353 q 420 435 481 435 q 304 393 355 435 q 243 285 252 350 q 270 176 232 215 q 376 138 307 138 q 482 178 435 138 q 540 285 530 219 m 573 722 q 557 816 582 783 q 482 849 532 849 q 389 815 429 849 q 341 722 350 781 q 359 624 331 659 q 444 588 388 588 q 527 625 491 588 q 573 722 564 662 z "},"9":{"ha":797,"x_min":79,"x_max":791,"o":"m 327 138 q 454 193 397 138 q 526 347 511 249 l 534 408 q 447 346 496 366 q 346 325 399 325 q 146 415 214 325 q 102 658 79 506 q 231 907 124 812 q 484 1002 338 1002 q 709 900 627 1002 q 764 623 791 799 l 724 357 q 581 83 697 180 q 304 -14 465 -14 q 200 -3 255 -14 q 102 28 146 8 l 157 172 q 236 146 197 154 q 327 138 275 138 m 401 470 q 488 491 448 470 q 555 545 528 511 l 572 658 q 556 802 586 754 q 461 849 526 849 q 358 793 404 849 q 300 658 311 737 q 312 520 286 570 q 401 470 337 470 z "},"\u0000":{"ha":0,"x_min":0,"x_max":0,"o":""},"\r":{"ha":346,"x_min":0,"x_max":0,"o":""}," ":{"ha":346,"x_min":0,"x_max":0,"o":""},"!":{"ha":378,"x_min":37,"x_max":382,"o":"m 286 340 l 87 340 l 184 987 l 382 987 l 286 340 m 235 0 l 37 0 l 62 174 l 260 174 l 235 0 z "},"\"":{"ha":564,"x_min":133,"x_max":571,"o":"m 313 801 l 220 632 l 133 632 l 156 792 l 183 987 l 340 987 l 313 801 m 545 801 l 452 632 l 365 632 l 389 798 l 415 987 l 571 987 l 545 801 z "},"#":{"ha":827,"x_min":20,"x_max":841,"o":"m 428 278 l 298 278 l 208 0 l 83 0 l 174 278 l 20 278 l 37 393 l 211 393 l 275 589 l 117 589 l 135 705 l 312 705 l 404 987 l 528 987 l 437 705 l 567 705 l 659 987 l 783 987 l 691 705 l 841 705 l 823 589 l 654 589 l 590 393 l 743 393 l 726 278 l 553 278 l 463 0 l 338 0 l 428 278 m 336 393 l 465 393 l 530 589 l 399 589 l 336 393 z "},"$":{"ha":825,"x_min":41,"x_max":815,"o":"m 539 260 q 520 350 547 317 q 415 414 494 382 q 205 534 269 465 q 158 726 140 602 q 258 917 174 845 q 471 1000 341 988 l 491 1145 l 599 1145 l 578 997 q 755 901 694 980 q 798 695 815 821 l 600 695 q 583 810 610 772 q 494 848 555 848 q 398 815 433 848 q 356 726 363 781 q 374 642 348 671 q 481 575 399 612 q 689 455 624 526 q 736 261 753 385 q 636 69 719 138 q 424 -12 554 0 l 405 -145 l 297 -145 l 316 -12 q 116 76 191 1 q 64 296 41 151 l 66 299 l 259 299 q 283 174 246 209 q 389 138 320 138 q 492 171 453 138 q 539 260 531 204 z "},"%":{"ha":1026,"x_min":109,"x_max":961,"o":"m 130 798 q 208 945 143 888 q 375 1002 273 1002 q 523 943 473 1002 q 559 798 572 884 l 551 745 q 473 598 537 654 q 307 543 410 543 q 159 601 210 543 q 122 745 109 659 l 130 798 m 254 745 q 265 679 248 705 q 323 652 282 652 q 388 680 361 652 q 420 745 414 707 l 427 798 q 416 865 433 839 q 358 892 399 892 q 293 864 319 892 q 261 798 267 836 l 254 745 m 519 242 q 597 389 532 332 q 764 446 663 446 q 911 387 862 446 q 949 242 961 328 l 941 190 q 862 43 926 99 q 696 -14 798 -14 q 548 45 599 -14 q 511 190 497 104 l 519 242 m 642 190 q 655 123 636 150 q 713 96 675 96 q 779 122 755 96 q 809 190 802 149 l 817 242 q 805 309 823 283 q 747 336 787 336 q 682 308 709 336 q 650 242 655 280 l 642 190 m 269 74 l 181 125 l 779 897 l 867 846 l 269 74 z "},"&":{"ha":913,"x_min":8,"x_max":867,"o":"m 241 530 q 192 641 206 591 q 186 744 177 692 q 286 937 205 872 q 494 1002 367 1002 q 656 934 597 1002 q 702 773 715 867 q 655 650 690 700 q 555 555 619 600 l 479 506 l 629 294 q 681 381 660 334 q 709 481 701 428 l 867 481 q 817 302 852 381 q 722 162 781 222 l 836 0 l 612 0 l 568 60 q 442 4 506 23 q 308 -14 378 -14 q 87 64 166 -14 q 27 266 8 143 q 90 407 39 351 q 241 530 140 463 m 340 138 q 412 147 375 138 q 486 176 450 157 l 322 406 l 315 401 q 251 338 271 369 q 227 276 231 307 q 248 175 217 213 q 340 138 279 138 m 363 746 q 368 688 358 717 q 399 623 377 659 l 456 656 q 514 706 498 680 q 536 762 531 731 q 524 824 542 798 q 465 849 505 849 q 397 819 426 849 q 363 746 369 789 z "},"'":{"ha":300,"x_min":97,"x_max":326,"o":"m 300 805 l 205 613 l 97 613 l 122 795 l 149 987 l 326 987 l 300 805 z "},"(":{"ha":482,"x_min":50,"x_max":549,"o":"m 90 401 q 255 858 128 678 q 523 1093 382 1037 l 527 1093 l 549 994 q 369 780 450 928 q 256 403 288 632 l 254 385 q 260 3 220 145 q 380 -208 299 -138 l 330 -305 l 327 -305 q 127 -65 204 -250 q 87 387 50 120 l 90 401 z "},")":{"ha":484,"x_min":-59,"x_max":450,"o":"m 412 387 q 242 -67 374 116 q -32 -306 111 -250 l -36 -305 l -59 -208 q 120 7 38 -142 q 234 385 201 155 l 236 403 q 229 784 269 640 q 110 997 189 928 l 161 1093 l 165 1093 q 369 850 289 1039 q 414 401 450 661 l 412 387 z "},"*":{"ha":581,"x_min":54,"x_max":570,"o":"m 202 451 l 54 503 l 109 618 l 263 564 l 290 733 l 409 733 l 388 559 l 551 612 l 570 496 l 404 442 l 477 305 l 369 233 l 289 374 l 170 239 l 82 309 l 202 451 z "},"+":{"ha":758,"x_min":41,"x_max":743,"o":"m 499 551 l 743 551 l 718 380 l 473 380 l 431 99 l 244 99 l 286 380 l 41 380 l 66 551 l 312 551 l 352 818 l 539 818 l 499 551 z "},",":{"ha":358,"x_min":-42,"x_max":254,"o":"m 230 9 l 90 -205 l -42 -205 l 38 15 l 62 170 l 254 170 l 230 9 z "},"-":{"ha":605,"x_min":97,"x_max":519,"o":"m 496 346 l 97 346 l 119 498 l 519 498 l 496 346 z "},".":{"ha":404,"x_min":43,"x_max":267,"o":"m 241 0 l 43 0 l 69 174 l 267 174 l 241 0 z "},"/":{"ha":559,"x_min":-77,"x_max":639,"o":"m 116 -85 l -77 -85 l 446 987 l 639 987 l 116 -85 z "},":":{"ha":395,"x_min":43,"x_max":356,"o":"m 241 0 l 43 0 l 69 174 l 267 174 l 241 0 m 330 594 l 132 594 l 158 768 l 356 768 l 330 594 z "},";":{"ha":381,"x_min":-7,"x_max":357,"o":"m 331 594 l 133 594 l 159 768 l 357 768 l 331 594 m 264 9 l 125 -205 l -7 -205 l 73 15 l 96 170 l 289 170 l 264 9 z "},"<":{"ha":707,"x_min":26,"x_max":671,"o":"m 231 373 l 231 369 l 602 231 l 574 47 l 26 296 l 35 349 l 50 450 l 671 698 l 644 513 l 231 373 z "},"=":{"ha":801,"x_min":72,"x_max":747,"o":"m 723 517 l 115 517 l 139 673 l 747 673 l 723 517 m 680 225 l 72 225 l 95 380 l 703 380 l 680 225 z "},">":{"ha":718,"x_min":33,"x_max":684,"o":"m 479 366 l 479 370 l 103 509 l 130 692 l 684 444 l 669 342 l 669 342 l 661 290 l 33 41 l 60 224 l 479 366 z "},"?":{"ha":692,"x_min":77,"x_max":734,"o":"m 208 281 q 257 420 222 376 q 382 527 291 464 q 472 612 436 566 q 516 713 507 657 q 498 812 526 778 q 409 846 471 846 q 320 817 360 846 q 271 729 280 787 l 78 729 l 77 733 q 193 932 95 863 q 433 1002 292 1002 q 656 924 579 1002 q 714 715 734 846 q 641 555 701 626 q 495 433 581 484 q 431 370 449 401 q 405 281 413 338 l 208 281 m 364 0 l 165 0 l 191 170 l 390 170 l 364 0 z "},"@":{"ha":1232,"x_min":-15,"x_max":1224,"o":"m 1171 348 q 1046 93 1143 200 q 789 -14 949 -14 q 703 16 738 -14 q 660 100 669 46 q 572 16 621 44 q 464 -12 524 -12 q 331 69 372 -12 q 323 282 291 151 q 463 558 367 454 q 673 662 558 662 q 795 644 747 662 q 894 590 844 625 l 891 587 l 895 587 l 802 199 q 798 111 787 134 q 833 87 808 87 q 967 161 907 87 q 1050 348 1027 236 q 1014 722 1097 587 q 713 856 930 856 q 368 710 516 856 q 173 324 220 564 q 215 -56 125 83 q 512 -195 304 -195 q 632 -181 568 -195 q 743 -147 696 -168 l 754 -247 q 632 -291 705 -275 q 492 -307 559 -307 q 110 -137 234 -307 q 39 324 -15 34 q 282 787 95 613 q 732 962 469 962 q 1104 795 985 962 q 1171 348 1224 629 m 476 282 q 470 152 457 196 q 526 107 482 107 q 596 125 562 107 q 662 190 630 143 l 664 199 l 744 535 q 714 543 730 540 q 682 545 699 545 q 559 479 610 545 q 476 282 508 412 z "},"A":{"ha":884,"x_min":-42,"x_max":825,"o":"m 584 213 l 263 213 l 165 0 l -42 0 l 439 987 l 642 987 l 825 0 l 618 0 l 584 213 m 336 368 l 558 368 l 502 717 l 498 718 l 336 368 z "},"B":{"ha":885,"x_min":37,"x_max":857,"o":"m 37 0 l 184 987 l 508 987 q 766 919 675 987 q 838 717 857 850 q 784 594 826 646 q 671 515 742 541 q 796 434 760 497 q 821 288 832 371 q 695 70 798 140 q 418 0 592 0 l 37 0 m 300 437 l 257 152 l 441 152 q 565 186 517 152 q 623 288 613 221 q 600 399 633 362 q 482 437 566 437 l 300 437 m 321 574 l 460 574 q 581 608 534 575 q 637 701 627 642 q 610 804 648 772 q 486 835 572 835 l 360 835 l 321 574 z "},"C":{"ha":884,"x_min":45,"x_max":906,"o":"m 825 327 l 827 323 q 694 72 805 159 q 407 -14 584 -14 q 141 101 236 -14 q 72 395 45 216 l 102 591 q 252 890 130 779 q 549 1002 374 1002 q 814 912 723 1002 q 880 665 906 823 l 878 661 l 685 661 q 661 804 700 760 q 526 849 623 849 q 378 777 441 849 q 299 593 316 704 l 269 395 q 293 208 252 277 q 429 138 335 138 q 567 185 515 138 q 634 327 620 232 l 825 327 z "},"D":{"ha":919,"x_min":37,"x_max":909,"o":"m 37 0 l 184 987 l 529 987 q 806 871 703 987 q 883 575 909 754 l 859 412 q 697 112 830 223 q 381 0 564 0 l 37 0 m 359 835 l 257 152 l 404 152 q 570 225 498 152 q 660 412 643 299 l 685 576 q 653 764 702 694 q 507 835 605 835 l 359 835 z "},"E":{"ha":772,"x_min":37,"x_max":817,"o":"m 666 434 l 300 434 l 257 152 l 693 152 l 670 0 l 37 0 l 184 987 l 817 987 l 794 835 l 359 835 l 322 587 l 689 587 l 666 434 z "},"F":{"ha":772,"x_min":37,"x_max":831,"o":"m 675 410 l 296 410 l 235 0 l 37 0 l 184 987 l 831 987 l 808 835 l 359 835 l 319 563 l 699 563 l 675 410 z "},"G":{"ha":925,"x_min":44,"x_max":905,"o":"m 814 135 q 660 30 758 75 q 418 -14 562 -14 q 145 100 245 -14 q 71 391 44 214 l 102 597 q 256 892 130 783 q 558 1002 382 1002 q 819 915 732 1002 q 881 687 905 828 l 880 683 l 692 683 q 666 807 705 764 q 540 849 627 849 q 384 778 452 849 q 300 598 316 707 l 269 391 q 297 206 251 274 q 440 138 343 138 q 553 152 507 138 q 623 188 599 167 l 652 379 l 462 379 l 482 516 l 871 516 l 814 135 z "},"H":{"ha":980,"x_min":37,"x_max":983,"o":"m 835 0 l 637 0 l 698 410 l 296 410 l 235 0 l 37 0 l 184 987 l 382 987 l 319 563 l 721 563 l 785 987 l 983 987 l 835 0 z "},"I":{"ha":408,"x_min":50,"x_max":396,"o":"m 248 0 l 50 0 l 198 987 l 396 987 l 248 0 z "},"J":{"ha":771,"x_min":-11,"x_max":775,"o":"m 578 987 l 775 987 l 673 306 q 549 70 650 153 q 304 -14 448 -14 q 71 64 153 -14 q 14 288 -11 142 l 16 292 l 208 292 q 228 174 195 210 q 327 138 260 138 q 421 183 379 138 q 476 306 464 229 l 578 987 z "},"K":{"ha":851,"x_min":33,"x_max":926,"o":"m 363 410 l 293 410 l 232 0 l 33 0 l 181 987 l 380 987 l 319 584 l 389 584 l 667 987 l 926 987 l 539 494 l 791 0 l 564 0 l 363 410 z "},"L":{"ha":772,"x_min":37,"x_max":700,"o":"m 257 152 l 700 152 l 677 0 l 37 0 l 184 987 l 382 987 l 257 152 z "},"M":{"ha":1208,"x_min":37,"x_max":1211,"o":"m 586 260 l 590 259 l 953 987 l 1211 987 l 1063 0 l 865 0 l 966 673 l 962 674 l 617 0 l 483 0 l 340 675 l 336 675 l 235 0 l 37 0 l 184 987 l 444 987 l 586 260 z "},"N":{"ha":980,"x_min":37,"x_max":983,"o":"m 835 0 l 637 0 l 338 666 l 334 665 l 235 0 l 37 0 l 184 987 l 382 987 l 681 322 l 685 323 l 785 987 l 983 987 l 835 0 z "},"O":{"ha":956,"x_min":45,"x_max":949,"o":"m 897 405 q 737 101 867 216 q 420 -14 606 -14 q 145 105 245 -14 q 73 405 45 225 l 99 583 q 257 886 127 770 q 572 1002 387 1002 q 849 881 749 1002 q 923 583 949 761 l 897 405 m 726 584 q 697 775 743 703 q 548 847 650 847 q 382 772 451 847 q 296 584 313 698 l 270 405 q 296 212 252 283 q 444 140 341 140 q 611 214 541 140 q 699 405 681 289 l 726 584 z "},"P":{"ha":885,"x_min":37,"x_max":901,"o":"m 288 358 l 235 0 l 37 0 l 184 987 l 562 987 q 813 900 726 987 q 881 672 901 812 q 749 441 859 525 q 468 358 640 358 l 288 358 m 311 511 l 491 511 q 621 556 570 511 q 683 671 672 602 q 659 790 694 745 q 540 835 624 835 l 360 835 l 311 511 z "},"Q":{"ha":977,"x_min":45,"x_max":949,"o":"m 897 405 q 855 262 884 328 q 780 144 825 196 l 903 -1 l 758 -107 l 636 34 q 533 -2 587 10 q 420 -14 479 -14 q 145 105 245 -14 q 73 405 45 225 l 99 583 q 257 886 127 770 q 572 1002 387 1002 q 849 881 749 1002 q 923 583 949 761 l 897 405 m 726 584 q 697 775 743 703 q 548 847 650 847 q 382 772 451 847 q 296 584 313 698 l 270 405 q 296 212 252 283 q 444 140 341 140 q 611 214 541 140 q 699 405 681 289 l 726 584 z "},"R":{"ha":885,"x_min":37,"x_max":863,"o":"m 294 395 l 235 0 l 37 0 l 184 987 l 526 987 q 775 910 688 987 q 842 696 863 832 q 782 562 830 616 q 650 474 734 507 q 762 387 731 447 q 780 240 793 326 l 769 168 q 767 80 763 125 q 795 14 772 36 l 793 0 l 589 0 q 566 71 566 22 q 572 169 565 120 l 583 239 q 560 355 594 315 q 451 395 526 395 l 294 395 m 317 547 l 457 547 q 585 583 537 547 q 643 687 632 618 q 618 796 653 757 q 504 835 584 835 l 360 835 l 317 547 z "},"S":{"ha":854,"x_min":39,"x_max":844,"o":"m 605 239 q 576 340 614 304 q 429 414 537 376 q 178 545 260 468 q 115 746 96 621 q 237 933 133 865 q 491 1002 342 1002 q 750 921 656 1002 q 819 699 844 840 l 818 695 l 626 695 q 592 806 635 764 q 468 849 548 849 q 365 820 409 849 q 314 747 320 791 q 345 651 304 684 q 512 575 385 618 q 747 447 672 523 q 803 241 822 370 q 680 51 784 116 q 422 -14 576 -14 q 150 59 261 -14 q 66 288 39 133 l 67 292 l 259 292 q 303 173 246 208 q 445 138 361 138 q 551 166 505 138 q 605 239 598 195 z "},"T":{"ha":797,"x_min":92,"x_max":873,"o":"m 850 835 l 568 835 l 443 0 l 245 0 l 370 835 l 92 835 l 115 987 l 873 987 l 850 835 z "},"U":{"ha":954,"x_min":53,"x_max":967,"o":"m 967 987 l 870 341 q 722 77 844 168 q 420 -14 599 -14 q 152 81 251 -14 q 78 341 53 176 l 175 987 l 374 987 l 277 341 q 306 188 261 239 q 442 138 351 138 q 593 191 530 138 q 671 341 656 243 l 768 987 l 967 987 z "},"V":{"ha":884,"x_min":98,"x_max":972,"o":"m 413 268 l 417 213 l 421 212 l 441 266 l 764 987 l 972 987 l 489 0 l 286 0 l 98 987 l 307 987 l 413 268 z "},"W":{"ha":1223,"x_min":107,"x_max":1303,"o":"m 863 317 l 867 317 l 1099 987 l 1303 987 l 924 0 l 741 0 l 656 650 l 653 650 l 374 0 l 190 0 l 107 987 l 311 987 l 342 318 l 347 317 l 625 987 l 785 987 l 863 317 z "},"X":{"ha":884,"x_min":-33,"x_max":949,"o":"m 481 637 l 719 987 l 949 987 l 583 498 l 819 0 l 579 0 l 442 356 l 198 0 l -33 0 l 342 498 l 122 987 l 351 987 l 481 637 z "},"Y":{"ha":884,"x_min":100,"x_max":970,"o":"m 465 533 l 469 532 l 753 987 l 970 987 l 536 348 l 484 0 l 286 0 l 339 357 l 100 987 l 317 987 l 465 533 z "},"Z":{"ha":783,"x_min":7,"x_max":786,"o":"m 262 152 l 715 152 l 692 0 l 16 0 l 7 103 l 513 835 l 123 835 l 145 987 l 786 987 l 772 888 l 262 152 z "},"[":{"ha":387,"x_min":-2,"x_max":485,"o":"m 465 1000 l 369 1000 l 217 -81 l 313 -81 l 292 -228 l -2 -228 l 191 1147 l 485 1147 l 465 1000 z "},"\\":{"ha":585,"x_min":95,"x_max":543,"o":"m 95 987 l 291 987 l 543 -85 l 347 -85 l 95 987 z "},"]":{"ha":387,"x_min":-74,"x_max":413,"o":"m 119 1147 l 413 1147 l 220 -228 l -74 -228 l -54 -81 l 43 -81 l 195 1000 l 98 1000 l 119 1147 z "},"^":{"ha":608,"x_min":50,"x_max":599,"o":"m 206 494 l 50 494 l 326 987 l 470 987 l 599 494 l 442 494 l 372 774 l 371 797 l 367 798 l 358 774 l 206 494 z "},"_":{"ha":620,"x_min":-76,"x_max":564,"o":"m 541 -149 l -76 -149 l -54 0 l 564 0 l 541 -149 z "},"`":{"ha":460,"x_min":130,"x_max":459,"o":"m 459 849 l 289 849 l 130 1026 l 131 1029 l 352 1029 l 459 849 z "},"a":{"ha":746,"x_min":0,"x_max":711,"o":"m 454 0 q 444 53 447 25 q 441 111 440 81 q 347 21 402 56 q 222 -14 292 -14 q 56 46 111 -14 q 16 207 0 106 q 123 376 32 319 q 375 433 214 433 l 486 433 l 495 492 q 480 575 503 547 q 401 603 456 603 q 324 579 355 603 q 288 515 293 556 l 97 515 l 96 519 q 201 682 106 616 q 435 747 296 747 q 637 680 563 747 q 692 490 711 613 l 647 187 q 640 90 639 134 q 652 0 642 45 l 454 0 m 293 132 q 388 158 342 132 q 454 218 433 184 l 469 321 l 358 321 q 259 290 298 321 q 214 214 221 258 q 229 154 208 175 q 293 132 250 132 z "},"b":{"ha":784,"x_min":22,"x_max":764,"o":"m 736 347 q 623 81 710 176 q 397 -14 536 -14 q 290 14 334 -14 q 220 96 246 43 l 189 0 l 22 0 l 180 1058 l 378 1058 l 317 656 q 404 724 357 701 q 509 747 452 747 q 704 641 644 747 q 738 361 764 534 l 736 347 m 541 361 q 535 532 557 471 q 436 593 513 593 q 356 573 391 593 q 296 516 321 553 l 250 209 q 293 157 264 175 q 370 140 322 140 q 483 195 443 140 q 538 347 523 250 l 541 361 z "},"c":{"ha":716,"x_min":17,"x_max":714,"o":"m 349 138 q 434 169 398 138 q 479 251 471 200 l 659 251 l 660 247 q 550 59 645 132 q 326 -14 454 -14 q 93 91 170 -14 q 41 356 17 197 l 44 376 q 172 646 69 544 q 439 747 275 747 q 641 669 568 747 q 692 466 714 591 l 691 463 l 510 463 q 495 558 519 521 q 416 595 471 595 q 299 532 342 595 q 242 376 256 470 l 239 356 q 247 196 224 255 q 349 138 270 138 z "},"d":{"ha":784,"x_min":19,"x_max":811,"o":"m 45 361 q 162 644 72 541 q 389 747 252 747 q 483 723 443 747 q 551 652 524 698 l 612 1058 l 811 1058 l 652 0 l 484 0 l 480 90 q 387 13 438 39 q 274 -14 335 -14 q 82 86 144 -14 q 43 347 19 186 l 45 361 m 241 347 q 250 193 225 247 q 348 140 274 140 q 425 158 390 140 q 485 210 460 176 l 532 520 q 488 574 517 555 q 417 593 459 593 q 303 528 348 593 q 243 361 258 463 l 241 347 z "},"e":{"ha":726,"x_min":19,"x_max":718,"o":"m 338 -14 q 100 88 180 -14 q 43 346 19 190 l 47 373 q 177 646 73 544 q 439 747 281 748 q 649 656 581 747 q 694 413 718 564 l 680 311 l 241 311 l 240 307 q 266 183 232 229 q 381 138 300 138 q 496 152 445 138 q 599 193 547 165 l 634 71 q 505 10 584 35 q 338 -14 427 -14 m 416 595 q 320 553 359 595 q 264 446 281 512 l 265 441 l 505 441 l 507 456 q 497 559 517 523 q 416 595 476 595 z "},"f":{"ha":484,"x_min":54,"x_max":612,"o":"m 73 0 l 162 595 l 54 595 l 74 734 l 183 734 l 195 815 q 294 1008 214 943 q 505 1072 374 1072 q 556 1068 529 1072 q 612 1058 583 1064 l 572 911 q 542 916 557 913 q 507 918 527 918 q 431 891 460 918 q 393 815 401 864 l 381 734 l 522 734 l 502 595 l 360 595 l 271 0 l 73 0 z "},"g":{"ha":784,"x_min":20,"x_max":764,"o":"m 47 361 q 163 644 73 541 q 391 747 254 747 q 494 718 451 747 q 563 636 536 689 l 593 734 l 764 734 l 654 3 q 528 -221 631 -145 q 254 -296 424 -296 q 140 -281 201 -296 q 30 -239 79 -265 l 85 -92 q 174 -124 127 -113 q 277 -136 221 -136 q 400 -101 355 -136 q 456 4 446 -67 l 466 71 q 380 7 427 28 q 276 -14 333 -14 q 83 86 146 -14 q 45 347 20 186 l 47 361 m 243 347 q 251 193 227 247 q 349 140 275 140 q 428 157 393 140 q 487 207 462 174 l 534 522 q 491 575 520 557 q 418 593 463 593 q 304 528 349 593 q 245 361 260 463 l 243 347 z "},"h":{"ha":784,"x_min":17,"x_max":745,"o":"m 311 645 q 408 721 354 694 q 523 747 462 747 q 689 670 633 747 q 722 435 745 593 l 656 0 l 458 0 l 524 437 q 515 559 537 526 q 437 593 493 593 q 357 578 393 593 q 295 534 321 562 l 215 0 l 17 0 l 176 1058 l 374 1058 l 311 645 z "},"i":{"ha":371,"x_min":32,"x_max":389,"o":"m 230 0 l 32 0 l 142 734 l 340 734 l 230 0 m 366 909 l 168 909 l 191 1058 l 389 1058 l 366 909 z "},"j":{"ha":368,"x_min":-163,"x_max":390,"o":"m 345 734 l 231 -27 q 133 -229 211 -161 q -68 -296 55 -296 q -117 -294 -94 -296 q -163 -285 -140 -291 l -132 -134 q -101 -140 -117 -138 q -68 -142 -85 -142 q -3 -114 -28 -142 q 33 -27 23 -85 l 146 734 l 345 734 m 368 911 l 169 911 l 191 1058 l 390 1058 l 368 911 z "},"k":{"ha":744,"x_min":22,"x_max":775,"o":"m 316 307 l 266 307 l 220 0 l 22 0 l 180 1058 l 378 1058 l 288 458 l 332 458 l 549 734 l 774 734 l 775 730 l 490 399 l 701 0 l 473 0 l 316 307 z "},"l":{"ha":371,"x_min":32,"x_max":389,"o":"m 230 0 l 32 0 l 191 1058 l 389 1058 l 230 0 z "},"m":{"ha":1202,"x_min":22,"x_max":1160,"o":"m 310 641 q 410 720 353 692 q 537 747 467 747 q 650 716 604 747 q 713 623 696 685 q 815 715 756 682 q 949 747 875 747 q 1107 670 1055 747 q 1137 435 1160 592 l 1072 0 l 873 0 l 939 436 q 931 561 952 528 q 854 593 909 593 q 780 574 814 593 q 722 521 746 555 q 720 502 721 511 q 718 482 719 492 l 645 0 l 448 0 l 513 436 q 505 559 526 526 q 428 593 483 593 q 356 577 389 593 q 299 532 323 562 l 219 0 l 22 0 l 132 734 l 315 734 l 310 641 z "},"n":{"ha":784,"x_min":18,"x_max":748,"o":"m 307 633 q 409 718 351 688 q 534 747 467 747 q 694 675 641 747 q 725 450 748 602 l 658 0 l 459 0 l 526 449 q 516 562 538 530 q 438 593 494 593 q 358 576 395 593 q 296 528 322 559 l 216 0 l 18 0 l 128 734 l 313 734 l 307 633 z "},"o":{"ha":784,"x_min":20,"x_max":764,"o":"m 47 374 q 179 646 73 544 q 448 747 285 747 q 684 642 605 747 q 740 374 764 536 l 738 359 q 606 87 711 188 q 336 -14 500 -14 q 100 91 179 -14 q 45 359 20 197 l 47 374 m 243 359 q 253 197 227 256 q 358 138 279 138 q 478 199 431 138 q 540 359 525 261 l 542 374 q 530 535 556 475 q 426 595 504 595 q 305 532 352 595 q 245 374 258 469 l 243 359 z "},"p":{"ha":784,"x_min":-20,"x_max":763,"o":"m 736 347 q 621 82 710 178 q 396 -14 532 -14 q 298 8 340 -14 q 230 75 256 31 l 177 -282 l -20 -282 l 132 734 l 310 734 l 309 647 q 398 722 349 696 q 509 747 448 747 q 701 640 640 747 q 738 361 763 532 l 736 347 m 540 361 q 531 530 555 467 q 434 593 506 593 q 356 574 391 593 q 297 519 321 555 l 249 202 q 292 154 262 170 q 367 138 321 138 q 479 195 436 138 q 538 347 523 252 l 540 361 z "},"q":{"ha":784,"x_min":19,"x_max":760,"o":"m 45 361 q 162 644 72 541 q 389 747 252 747 q 491 720 448 747 q 559 640 533 692 l 592 734 l 760 734 l 608 -282 l 410 -282 l 463 68 q 377 7 424 28 q 274 -14 330 -14 q 82 86 144 -14 q 43 347 19 186 l 45 361 m 241 347 q 249 192 225 247 q 347 138 273 138 q 424 155 390 138 q 483 204 458 172 l 531 527 q 489 577 517 559 q 418 595 460 595 q 303 529 349 595 q 243 361 258 463 l 241 347 z "},"r":{"ha":489,"x_min":22,"x_max":540,"o":"m 492 564 l 420 566 q 345 546 377 566 q 292 492 313 527 l 219 0 l 22 0 l 132 734 l 315 734 l 309 629 q 388 716 342 686 q 488 747 433 747 q 515 745 502 747 q 540 739 528 743 l 492 564 z "},"s":{"ha":716,"x_min":7,"x_max":696,"o":"m 450 203 q 427 260 455 237 q 315 300 399 282 q 131 378 191 326 q 83 520 71 431 q 185 683 97 618 q 408 747 274 747 q 619 680 542 747 q 679 515 696 613 l 677 511 l 486 511 q 468 584 492 557 q 389 611 444 611 q 312 587 344 611 q 275 529 279 564 q 295 473 270 494 q 408 435 321 453 q 597 356 538 408 q 644 211 656 303 q 536 47 629 108 q 303 -14 444 -14 q 85 61 162 -14 q 24 229 7 136 l 26 233 l 208 233 q 234 148 201 174 q 326 121 267 121 q 412 144 378 121 q 450 203 445 166 z "},"t":{"ha":484,"x_min":44,"x_max":493,"o":"m 396 913 l 369 734 l 493 734 l 473 595 l 348 595 l 292 221 q 300 159 286 176 q 345 142 315 142 q 373 143 360 142 q 400 149 385 145 l 395 6 q 335 -9 363 -4 q 273 -14 306 -14 q 125 43 174 -14 q 95 220 77 100 l 151 595 l 44 595 l 64 734 l 172 734 l 199 913 l 396 913 z "},"u":{"ha":784,"x_min":39,"x_max":766,"o":"m 488 105 q 389 16 446 47 q 262 -14 332 -14 q 94 65 150 -14 q 63 309 39 144 l 127 734 l 324 734 l 260 307 q 266 174 245 208 q 342 140 287 140 q 426 156 389 140 q 489 203 463 172 l 568 734 l 766 734 l 656 0 l 492 0 l 488 105 z "},"v":{"ha":709,"x_min":66,"x_max":755,"o":"m 328 273 l 330 206 l 334 205 l 358 273 l 548 734 l 755 734 l 395 0 l 206 0 l 66 734 l 273 734 l 328 273 z "},"w":{"ha":1022,"x_min":75,"x_max":1055,"o":"m 701 274 l 705 274 l 863 734 l 1055 734 l 759 0 l 593 0 l 521 422 l 517 423 l 317 0 l 152 0 l 75 734 l 268 734 l 289 276 l 293 275 l 499 734 l 631 734 l 701 274 z "},"x":{"ha":709,"x_min":-41,"x_max":748,"o":"m 373 501 l 377 500 l 524 734 l 748 734 l 473 371 l 646 0 l 422 0 l 339 243 l 182 0 l -41 0 l 243 371 l 75 734 l 298 734 l 373 501 z "},"y":{"ha":709,"x_min":-32,"x_max":762,"o":"m 332 308 l 334 268 l 338 267 l 549 734 l 762 734 l 338 -110 q 233 -242 295 -189 q 64 -296 171 -296 q 19 -292 40 -296 q -32 -281 -3 -288 l 13 -136 q 31 -139 21 -138 q 50 -140 41 -140 q 127 -116 96 -140 q 178 -56 159 -91 l 210 0 l 59 734 l 272 734 l 332 308 z "},"z":{"ha":709,"x_min":-3,"x_max":705,"o":"m 269 155 l 270 152 l 629 152 l 606 0 l -3 0 l 14 117 l 429 577 l 428 581 l 94 581 l 117 734 l 705 734 l 688 621 l 269 155 z "},"{":{"ha":458,"x_min":31,"x_max":521,"o":"m 312 -244 q 140 -125 184 -207 q 112 72 95 -44 l 131 210 q 117 315 140 279 q 31 351 93 351 l 35 384 l 42 432 l 45 456 l 50 488 q 145 525 109 488 q 190 630 180 562 l 209 768 q 292 967 225 888 q 498 1083 359 1046 l 521 977 q 429 902 460 956 q 386 768 397 848 l 367 630 q 318 502 356 556 q 215 418 281 448 q 294 331 271 386 q 308 210 317 277 l 289 72 q 294 -63 277 -11 q 365 -137 310 -115 l 312 -244 z "},"|":{"ha":352,"x_min":16,"x_max":347,"o":"m 172 -183 l 16 -183 l 191 987 l 347 987 l 172 -183 z "},"}":{"ha":458,"x_min":-47,"x_max":444,"o":"m -47 -137 q 45 -62 14 -116 q 87 72 76 -8 l 106 210 q 155 338 117 284 q 263 421 194 392 q 180 506 204 452 q 165 630 155 561 l 184 768 q 180 902 196 850 q 109 977 163 955 l 162 1083 q 333 965 289 1046 q 361 768 378 884 l 342 630 q 356 524 332 559 q 444 488 380 488 l 429 387 l 425 351 q 329 313 365 351 q 283 210 292 275 l 264 72 q 181 -127 248 -48 q -24 -244 114 -207 l -47 -137 z "},"~":{"ha":900,"x_min":63,"x_max":848,"o":"m 848 514 q 763 328 832 400 q 601 256 694 256 q 498 278 545 256 q 406 347 451 300 q 351 390 374 376 q 297 404 327 404 q 234 369 263 404 q 197 286 204 334 l 63 304 q 147 489 79 418 q 309 559 216 559 q 412 536 363 559 q 507 469 462 513 q 559 426 535 439 q 612 412 583 412 q 676 448 646 412 q 713 532 706 483 l 848 514 z "}," ":{"ha":346,"x_min":0,"x_max":0,"o":"z "},"¡":{"ha":393,"x_min":4,"x_max":350,"o":"m 202 -254 l 4 -254 l 101 393 l 299 393 l 202 -254 m 324 559 l 126 559 l 152 734 l 350 734 l 324 559 z "},"¢":{"ha":801,"x_min":18,"x_max":711,"o":"m 349 138 q 434 169 398 138 q 479 251 471 200 l 659 251 l 661 247 q 583 88 649 155 q 420 -3 516 21 l 395 -166 l 260 -166 l 283 -12 q 83 106 147 3 q 41 356 18 208 l 44 376 q 159 632 67 532 q 397 745 251 732 l 419 894 l 555 894 l 530 735 q 665 637 620 709 q 696 463 711 565 l 510 463 q 495 558 519 521 q 416 595 471 595 q 299 532 342 595 q 242 376 256 470 l 239 356 q 247 196 224 255 q 349 138 270 138 z "},"£":{"ha":825,"x_min":52,"x_max":842,"o":"m 379 399 l 373 341 q 337 238 364 287 q 267 152 311 190 l 750 152 l 727 0 l 52 0 l 75 152 l 81 152 q 138 216 114 160 q 172 332 162 272 l 180 399 l 68 399 l 91 551 l 196 551 l 212 696 q 327 923 234 844 q 559 1002 420 1002 q 771 925 699 1002 q 821 726 842 849 l 819 722 l 627 722 q 610 820 636 790 q 535 849 584 849 q 455 809 489 849 q 410 696 421 768 l 395 551 l 636 551 l 613 399 l 379 399 z "},"¤":{"ha":961,"x_min":12,"x_max":972,"o":"m 686 71 q 562 8 628 30 q 426 -14 495 -14 q 301 9 359 -14 q 196 74 242 31 l 93 -18 l 12 80 l 119 175 q 84 287 94 227 q 85 412 75 347 q 124 547 96 484 q 195 662 152 610 l 114 760 l 224 857 l 304 761 q 424 817 360 798 q 553 837 488 837 q 673 815 616 837 q 776 755 730 794 l 891 858 l 972 760 l 855 656 q 892 541 882 603 q 892 412 902 479 q 856 284 882 345 q 792 174 830 224 l 871 80 l 760 -18 l 686 71 m 212 412 q 259 198 192 282 q 445 115 327 115 q 652 202 555 115 q 767 412 748 289 q 719 625 786 541 q 534 709 651 709 q 326 622 422 709 q 212 412 230 535 z "},"¥":{"ha":850,"x_min":68,"x_max":928,"o":"m 455 576 l 459 575 l 711 987 l 928 987 l 596 503 l 762 503 l 745 391 l 526 391 l 513 307 l 732 307 l 715 195 l 496 195 l 467 0 l 269 0 l 298 195 l 68 195 l 85 307 l 315 307 l 328 391 l 98 391 l 114 503 l 296 503 l 109 987 l 326 987 l 455 576 z "},"¦":{"ha":351,"x_min":5,"x_max":357,"o":"m 5 -183 l 85 356 l 263 356 l 182 -183 l 5 -183 m 281 473 l 103 473 l 180 987 l 357 987 l 281 473 z "},"§":{"ha":873,"x_min":-17,"x_max":859,"o":"m 794 322 q 750 213 785 258 q 659 138 715 167 q 714 56 699 103 q 720 -57 729 8 q 597 -247 701 -182 q 331 -313 494 -313 q 81 -244 178 -313 q 8 -30 -17 -176 l 9 -26 l 202 -25 q 235 -130 191 -100 q 354 -159 279 -159 q 470 -131 424 -159 q 522 -58 515 -102 q 493 16 529 -11 q 345 77 456 42 q 116 183 186 120 q 64 363 46 247 q 108 473 73 426 q 201 549 143 519 q 144 630 160 583 q 138 743 128 677 q 262 933 157 865 q 530 1002 368 1002 q 774 925 689 1002 q 835 715 859 849 l 833 711 l 641 711 q 615 811 650 773 q 507 849 581 849 q 388 819 433 849 q 337 745 343 789 q 362 667 329 692 q 512 609 395 642 q 742 502 673 566 q 794 322 812 439 m 419 450 q 373 463 395 456 q 331 478 351 470 q 285 438 302 463 q 264 381 268 413 q 288 298 256 325 q 437 235 321 271 q 481 222 460 229 q 526 208 503 215 q 573 248 555 223 q 597 305 592 273 q 568 385 605 355 q 419 450 531 414 z "},"¨":{"ha":739,"x_min":174,"x_max":713,"o":"m 693 849 l 513 849 l 532 987 l 713 987 l 693 849 m 354 849 l 174 849 l 193 987 l 374 987 l 354 849 z "},"©":{"ha":1089,"x_min":46,"x_max":1073,"o":"m 758 404 l 759 400 q 679 243 746 294 q 505 191 612 191 q 345 264 400 191 q 307 454 290 337 l 319 534 q 411 726 337 656 q 595 797 486 797 q 752 742 699 797 q 788 587 806 688 l 787 584 l 686 584 q 669 677 695 650 q 582 705 644 705 q 478 658 520 705 q 425 535 435 611 l 412 454 q 427 328 400 373 q 519 283 454 283 q 613 311 578 283 q 658 404 648 340 l 758 404 m 161 494 q 231 190 133 309 q 496 71 328 71 q 793 194 656 71 q 958 494 930 317 q 888 798 985 680 q 623 916 791 916 q 325 793 463 916 q 161 494 187 671 m 78 494 q 272 859 111 716 q 635 1001 432 1001 q 950 853 827 1001 q 1041 494 1073 705 q 847 129 1008 272 q 484 -14 686 -14 q 169 134 291 -14 q 78 494 46 282 z "},"ª":{"ha":616,"x_min":104,"x_max":593,"o":"m 427 479 q 423 509 424 493 q 422 543 422 525 q 354 490 395 511 q 261 469 313 469 q 144 511 184 469 q 115 624 104 553 q 190 741 127 701 q 363 781 252 781 l 456 781 l 461 815 q 451 880 467 859 q 395 901 435 901 q 325 884 353 901 q 292 834 296 866 l 182 843 l 182 847 q 251 959 188 916 q 411 1002 315 1002 q 546 953 498 1002 q 580 814 593 904 l 548 602 q 542 537 543 566 q 547 479 542 507 l 427 479 m 304 567 q 377 587 337 567 q 433 631 418 607 l 444 701 l 352 701 q 271 679 304 701 q 235 627 239 657 q 247 582 230 597 q 304 567 264 567 z "},"«":{"ha":695,"x_min":63,"x_max":649,"o":"m 218 349 l 340 79 l 214 79 l 63 343 l 64 347 l 64 352 l 65 356 l 295 621 l 422 621 l 218 349 m 446 349 l 568 79 l 441 79 l 290 343 l 291 347 l 292 352 l 292 356 l 522 621 l 649 621 l 446 349 z "},"¬":{"ha":766,"x_min":96,"x_max":680,"o":"m 662 430 l 635 254 l 500 254 l 526 430 l 96 430 l 113 546 l 680 546 l 662 430 z "},"­":{"ha":605,"x_min":97,"x_max":519,"o":"m 496 346 l 97 346 l 119 498 l 519 498 l 496 346 z "},"®":{"ha":1089,"x_min":46,"x_max":1073,"o":"m 78 494 q 272 859 111 716 q 635 1001 432 1001 q 950 853 827 1001 q 1041 494 1073 705 q 847 129 1008 272 q 484 -14 686 -14 q 169 134 291 -14 q 78 494 46 282 m 161 494 q 231 190 133 309 q 496 71 328 71 q 793 194 656 71 q 958 494 930 317 q 888 798 985 680 q 623 916 791 916 q 325 793 463 916 q 161 494 187 671 m 454 443 l 420 214 l 317 214 l 404 791 l 595 791 q 747 744 693 791 q 789 613 801 698 q 758 542 783 572 q 692 493 734 513 q 741 435 728 472 q 747 349 753 398 l 741 311 q 736 261 736 282 q 740 225 735 239 l 738 214 l 633 214 q 632 254 629 229 q 639 312 634 280 l 644 349 q 633 421 652 399 q 562 443 614 443 l 454 443 m 468 534 l 559 534 q 644 554 606 534 q 686 612 681 575 q 671 682 694 663 q 581 701 648 701 l 493 701 l 468 534 z "},"¯":{"ha":697,"x_min":172,"x_max":684,"o":"m 668 876 l 172 876 l 188 988 l 684 988 l 668 876 z "},"°":{"ha":540,"x_min":142,"x_max":532,"o":"m 153 816 q 227 948 165 895 q 367 1002 290 1002 q 485 946 439 1002 q 520 816 532 891 q 448 684 509 736 q 311 632 387 632 q 190 686 237 632 q 153 816 142 740 m 253 816 q 269 755 247 779 q 326 732 290 732 q 387 755 359 732 q 420 816 415 779 q 406 878 426 854 q 352 903 387 903 q 288 877 317 903 q 253 816 258 852 z "},"±":{"ha":747,"x_min":23,"x_max":722,"o":"m 499 642 l 722 642 l 699 485 l 477 485 l 441 225 l 267 225 l 303 485 l 78 485 l 100 642 l 326 642 l 360 888 l 534 888 l 499 642 m 589 -29 l 23 -29 l 46 125 l 612 125 l 589 -29 z "},"²":{"ha":583,"x_min":91,"x_max":577,"o":"m 513 452 l 91 452 l 106 557 l 342 728 q 402 785 387 762 q 422 836 418 808 q 413 881 426 863 q 367 898 400 898 q 308 878 332 898 q 281 825 285 857 l 145 825 l 144 829 q 218 954 151 904 q 386 1003 285 1003 q 528 958 479 1003 q 566 835 577 913 q 516 737 557 777 q 376 625 475 697 l 293 562 l 294 557 l 528 557 l 513 452 z "},"³":{"ha":581,"x_min":85,"x_max":586,"o":"m 263 772 l 338 772 q 402 789 379 772 q 431 837 426 806 q 418 880 434 863 q 363 897 401 897 q 308 882 330 897 q 283 846 286 867 l 147 846 l 146 850 q 218 962 153 922 q 376 1002 283 1002 q 530 962 475 1002 q 575 847 586 921 q 541 778 569 808 q 469 730 513 747 q 533 681 512 713 q 548 604 554 649 q 470 485 536 525 q 299 444 404 444 q 144 487 203 444 q 101 606 85 530 l 102 610 l 239 610 q 254 565 235 581 q 314 549 273 549 q 376 566 351 549 q 407 612 402 582 q 391 665 412 647 q 325 682 370 682 l 250 682 l 259 745 l 263 772 z "},"´":{"ha":493,"x_min":149,"x_max":528,"o":"m 307 1029 l 526 1029 l 528 1025 l 315 849 l 151 849 l 149 852 l 307 1029 z "},"µ":{"ha":857,"x_min":-2,"x_max":805,"o":"m 347 734 l 281 294 q 295 170 270 201 q 380 140 320 140 q 468 159 431 140 q 530 216 505 179 l 607 734 l 805 734 l 695 0 l 511 0 l 513 43 q 439 0 479 14 q 353 -14 399 -14 q 291 -7 319 -14 q 240 16 262 1 l 195 -282 l -2 -282 l 150 734 l 347 734 z "},"¶":{"ha":731,"x_min":66,"x_max":723,"o":"m 377 0 l 430 353 l 374 353 q 144 441 222 353 q 87 670 66 530 q 209 901 109 815 q 469 987 309 987 l 723 987 l 575 0 l 377 0 z "},"·":{"ha":420,"x_min":111,"x_max":336,"o":"m 309 385 l 111 385 l 138 562 l 336 562 l 309 385 z "},"¸":{"ha":372,"x_min":-9,"x_max":260,"o":"m 182 4 l 168 -35 q 235 -70 210 -42 q 252 -152 260 -98 q 173 -269 241 -227 q -9 -311 106 -311 l 2 -202 q 58 -188 35 -202 q 86 -146 81 -174 q 71 -106 90 -117 q -2 -92 52 -96 l 33 4 l 182 4 z "},"¹":{"ha":389,"x_min":130,"x_max":378,"o":"m 296 451 l 153 451 l 216 878 l 130 878 l 146 986 l 378 1002 l 296 451 z "},"º":{"ha":635,"x_min":115,"x_max":627,"o":"m 142 774 q 230 940 157 878 q 411 1002 303 1002 q 570 938 514 1002 q 612 774 627 873 l 600 695 q 512 529 584 590 q 332 469 440 469 q 172 532 229 469 q 130 695 115 595 l 142 774 m 249 695 q 264 602 239 635 q 347 568 289 568 q 437 603 401 568 q 481 695 473 638 l 493 774 q 477 867 502 833 q 395 901 452 901 q 305 865 341 901 q 260 774 269 829 l 249 695 z "},"»":{"ha":695,"x_min":31,"x_max":624,"o":"m 233 374 l 112 644 l 239 644 l 389 380 l 388 371 l 387 367 l 158 102 l 31 102 l 233 374 m 468 374 l 347 644 l 474 644 l 624 380 l 623 371 l 622 367 l 393 102 l 265 102 l 468 374 z "},"¼":{"ha":1013,"x_min":175,"x_max":991,"o":"m 356 450 l 213 450 l 277 878 l 191 878 l 207 985 l 439 1001 l 356 450 m 263 79 l 175 130 l 772 902 l 861 851 l 263 79 m 923 201 l 991 201 l 976 94 l 907 94 l 893 0 l 750 0 l 764 94 l 486 94 l 490 180 l 831 543 l 975 543 l 923 201 m 642 205 l 644 201 l 780 201 l 806 375 l 802 376 l 791 363 l 642 205 z "},"½":{"ha":1053,"x_min":184,"x_max":1059,"o":"m 272 79 l 184 130 l 781 902 l 870 851 l 272 79 m 356 450 l 213 450 l 277 878 l 191 878 l 207 985 l 439 1001 l 356 450 m 995 0 l 573 0 l 589 105 l 824 276 q 885 333 869 310 q 905 383 900 355 q 895 428 908 411 q 849 446 882 446 q 790 425 814 446 q 763 373 767 405 l 627 373 l 626 377 q 700 501 633 452 q 868 551 767 551 q 1010 506 962 551 q 1048 382 1059 461 q 999 285 1039 325 q 859 172 958 245 l 775 109 l 777 105 l 1010 105 l 995 0 z "},"¾":{"ha":1164,"x_min":96,"x_max":1120,"o":"m 387 79 l 299 130 l 897 902 l 985 851 l 387 79 m 1051 201 l 1120 201 l 1104 94 l 1036 94 l 1021 0 l 878 0 l 892 94 l 614 94 l 618 180 l 960 543 l 1103 543 l 1051 201 m 770 205 l 772 201 l 908 201 l 934 375 l 930 376 l 920 363 l 770 205 m 274 773 l 349 773 q 413 790 390 773 q 441 838 437 807 q 429 881 446 864 q 375 898 413 898 q 319 883 342 898 q 294 847 296 868 l 158 847 l 157 851 q 229 963 164 922 q 387 1003 294 1003 q 541 962 486 1003 q 586 848 597 922 q 552 778 580 809 q 479 730 524 747 q 544 682 523 714 q 559 605 565 650 q 480 485 547 526 q 310 445 414 445 q 155 488 214 445 q 112 606 96 530 l 113 610 l 250 610 q 264 566 245 581 q 325 550 283 550 q 388 567 361 550 q 418 612 414 583 q 402 665 423 648 q 336 683 381 683 l 260 683 l 270 746 l 274 773 z "},"¿":{"ha":703,"x_min":-20,"x_max":636,"o":"m 506 453 q 456 313 490 357 q 332 206 422 269 q 241 121 277 167 q 197 20 205 75 q 215 -78 188 -44 q 305 -112 243 -112 q 393 -82 353 -112 q 444 4 433 -53 l 635 4 l 636 0 q 520 -198 618 -130 q 282 -267 422 -267 q 57 -190 135 -267 q -1 18 -20 -113 q 73 178 12 106 q 218 300 133 249 q 282 363 264 331 q 309 453 300 395 l 506 453 m 349 734 l 549 734 l 524 564 l 324 564 l 349 734 z "},"À":{"ha":884,"x_min":-42,"x_max":825,"o":"m 584 213 l 263 213 l 165 0 l -42 0 l 439 987 l 642 987 l 825 0 l 618 0 l 584 213 m 336 368 l 558 368 l 502 717 l 498 718 l 336 368 m 641 1085 l 471 1085 l 311 1262 l 313 1265 l 534 1265 l 641 1085 z "},"Á":{"ha":884,"x_min":-42,"x_max":832,"o":"m 584 213 l 263 213 l 165 0 l -42 0 l 439 987 l 642 987 l 825 0 l 618 0 l 584 213 m 336 368 l 558 368 l 502 717 l 498 718 l 336 368 m 611 1265 l 831 1265 l 832 1261 l 619 1085 l 455 1085 l 454 1088 l 611 1265 z "},"Â":{"ha":884,"x_min":-42,"x_max":825,"o":"m 584 213 l 263 213 l 165 0 l -42 0 l 439 987 l 642 987 l 825 0 l 618 0 l 584 213 m 336 368 l 558 368 l 502 717 l 498 718 l 336 368 m 805 1095 l 803 1080 l 646 1080 l 564 1170 l 456 1080 l 302 1080 l 305 1097 l 521 1260 l 635 1260 l 805 1095 z "},"Ã":{"ha":884,"x_min":-42,"x_max":825,"o":"m 584 213 l 263 213 l 165 0 l -42 0 l 439 987 l 642 987 l 825 0 l 618 0 l 584 213 m 336 368 l 558 368 l 502 717 l 498 718 l 336 368 m 825 1259 q 769 1147 815 1192 q 660 1102 722 1102 q 558 1132 615 1102 q 466 1161 501 1161 q 422 1139 442 1161 q 398 1086 402 1117 l 296 1115 q 352 1227 305 1181 q 460 1273 399 1273 q 558 1243 496 1273 q 656 1214 620 1214 q 699 1236 678 1214 q 724 1289 720 1258 l 825 1259 z "},"Ä":{"ha":884,"x_min":-42,"x_max":825,"o":"m 584 213 l 263 213 l 165 0 l -42 0 l 439 987 l 642 987 l 825 0 l 618 0 l 584 213 m 336 368 l 558 368 l 502 717 l 498 718 l 336 368 m 806 1086 l 625 1086 l 645 1224 l 825 1224 l 806 1086 m 467 1086 l 286 1086 l 306 1224 l 486 1224 l 467 1086 z "},"Å":{"ha":884,"x_min":-42,"x_max":825,"o":"m 584 213 l 263 213 l 165 0 l -42 0 l 439 987 l 642 987 l 825 0 l 618 0 l 584 213 m 336 368 l 558 368 l 502 717 l 498 718 l 336 368 m 439 1184 q 488 1268 447 1235 q 585 1301 530 1301 q 667 1267 635 1301 q 692 1184 699 1233 q 644 1101 684 1132 q 549 1069 603 1069 q 464 1102 497 1069 q 439 1184 431 1135 m 518 1184 q 526 1149 514 1162 q 559 1135 538 1135 q 594 1149 578 1135 q 614 1184 610 1162 q 606 1220 617 1206 q 574 1234 595 1234 q 537 1219 554 1234 q 518 1184 521 1205 z "},"Æ":{"ha":1319,"x_min":-46,"x_max":1322,"o":"m 1217 0 l 608 0 l 632 227 l 334 227 l 186 0 l -46 0 l 633 987 l 1322 987 l 1299 833 l 895 833 l 869 585 l 1207 585 l 1184 431 l 852 431 l 822 154 l 1240 154 l 1217 0 m 650 390 l 690 768 l 686 769 l 439 390 l 650 390 z "},"Ç":{"ha":884,"x_min":45,"x_max":906,"o":"m 825 327 l 827 323 q 694 72 805 159 q 407 -14 584 -14 q 141 101 236 -14 q 72 395 45 216 l 102 591 q 252 890 130 779 q 549 1002 374 1002 q 814 912 723 1002 q 880 665 906 823 l 878 661 l 685 661 q 661 804 700 760 q 526 849 623 849 q 378 777 441 849 q 299 593 316 704 l 269 395 q 293 208 252 277 q 429 138 335 138 q 567 185 515 138 q 634 327 620 232 l 825 327 m 475 3 l 462 -36 q 529 -71 504 -43 q 546 -153 554 -99 q 467 -271 534 -229 q 284 -313 399 -313 l 296 -203 q 352 -190 329 -203 q 380 -147 375 -176 q 365 -107 384 -118 q 292 -94 345 -97 l 327 3 l 475 3 z "},"È":{"ha":772,"x_min":37,"x_max":817,"o":"m 666 434 l 300 434 l 257 152 l 693 152 l 670 0 l 37 0 l 184 987 l 817 987 l 794 835 l 359 835 l 322 587 l 689 587 l 666 434 m 606 1085 l 435 1085 l 276 1262 l 277 1265 l 498 1265 l 606 1085 z "},"É":{"ha":772,"x_min":37,"x_max":817,"o":"m 666 434 l 300 434 l 257 152 l 693 152 l 670 0 l 37 0 l 184 987 l 817 987 l 794 835 l 359 835 l 322 587 l 689 587 l 666 434 m 576 1265 l 795 1265 l 797 1261 l 584 1085 l 420 1085 l 418 1088 l 576 1265 z "},"Ê":{"ha":772,"x_min":37,"x_max":817,"o":"m 666 434 l 300 434 l 257 152 l 693 152 l 670 0 l 37 0 l 184 987 l 817 987 l 794 835 l 359 835 l 322 587 l 689 587 l 666 434 m 770 1095 l 768 1080 l 610 1080 l 529 1170 l 421 1080 l 267 1080 l 270 1097 l 486 1260 l 600 1260 l 770 1095 z "},"Ë":{"ha":772,"x_min":37,"x_max":817,"o":"m 666 434 l 300 434 l 257 152 l 693 152 l 670 0 l 37 0 l 184 987 l 817 987 l 794 835 l 359 835 l 322 587 l 689 587 l 666 434 m 770 1086 l 590 1086 l 610 1224 l 790 1224 l 770 1086 m 431 1086 l 251 1086 l 271 1224 l 451 1224 l 431 1086 z "},"Ì":{"ha":408,"x_min":50,"x_max":402,"o":"m 248 0 l 50 0 l 198 987 l 396 987 l 248 0 m 402 1085 l 232 1085 l 73 1262 l 74 1265 l 295 1265 l 402 1085 z "},"Í":{"ha":408,"x_min":50,"x_max":593,"o":"m 248 0 l 50 0 l 198 987 l 396 987 l 248 0 m 372 1265 l 591 1265 l 593 1261 l 380 1085 l 216 1085 l 214 1088 l 372 1265 z "},"Î":{"ha":408,"x_min":50,"x_max":566,"o":"m 248 0 l 50 0 l 198 987 l 396 987 l 248 0 m 566 1095 l 564 1080 l 407 1080 l 326 1170 l 218 1080 l 64 1080 l 66 1097 l 282 1260 l 397 1260 l 566 1095 z "},"Ï":{"ha":408,"x_min":47,"x_max":587,"o":"m 248 0 l 50 0 l 198 987 l 396 987 l 248 0 m 567 1086 l 387 1086 l 406 1224 l 587 1224 l 567 1086 m 228 1086 l 47 1086 l 67 1224 l 248 1224 l 228 1086 z "},"Ð":{"ha":919,"x_min":11,"x_max":909,"o":"m 37 0 l 102 442 l 11 442 l 29 565 l 121 565 l 184 987 l 529 987 q 806 871 703 987 q 883 575 909 754 l 859 412 q 697 112 830 223 q 381 0 564 0 l 37 0 m 466 442 l 300 442 l 257 152 l 404 152 q 570 225 498 152 q 660 412 643 299 l 685 576 q 653 764 702 694 q 507 835 605 835 l 359 835 l 319 565 l 484 565 l 466 442 z "},"Ñ":{"ha":980,"x_min":37,"x_max":983,"o":"m 835 0 l 637 0 l 338 666 l 334 665 l 235 0 l 37 0 l 184 987 l 382 987 l 681 322 l 685 323 l 785 987 l 983 987 l 835 0 m 871 1259 q 815 1147 862 1192 q 707 1102 769 1102 q 605 1132 662 1102 q 513 1161 548 1161 q 469 1139 489 1161 q 445 1086 449 1117 l 343 1115 q 399 1227 352 1181 q 507 1273 446 1273 q 605 1243 543 1273 q 703 1214 667 1214 q 746 1236 725 1214 q 771 1289 766 1258 l 871 1259 z "},"Ò":{"ha":956,"x_min":45,"x_max":949,"o":"m 897 405 q 737 101 867 216 q 420 -14 606 -14 q 145 105 245 -14 q 73 405 45 225 l 99 583 q 257 886 127 770 q 572 1002 387 1002 q 849 881 749 1002 q 923 583 949 761 l 897 405 m 726 584 q 697 775 743 703 q 548 847 650 847 q 382 772 451 847 q 296 584 313 698 l 270 405 q 296 212 252 283 q 444 140 341 140 q 611 214 541 140 q 699 405 681 289 l 726 584 m 678 1099 l 508 1099 l 349 1276 l 350 1280 l 571 1280 l 678 1099 z "},"Ó":{"ha":956,"x_min":45,"x_max":949,"o":"m 897 405 q 737 101 867 216 q 420 -14 606 -14 q 145 105 245 -14 q 73 405 45 225 l 99 583 q 257 886 127 770 q 572 1002 387 1002 q 849 881 749 1002 q 923 583 949 761 l 897 405 m 726 584 q 697 775 743 703 q 548 847 650 847 q 382 772 451 847 q 296 584 313 698 l 270 405 q 296 212 252 283 q 444 140 341 140 q 611 214 541 140 q 699 405 681 289 l 726 584 m 648 1280 l 868 1280 l 869 1276 l 656 1099 l 492 1099 l 491 1103 l 648 1280 z "},"Ô":{"ha":956,"x_min":45,"x_max":949,"o":"m 897 405 q 737 101 867 216 q 420 -14 606 -14 q 145 105 245 -14 q 73 405 45 225 l 99 583 q 257 886 127 770 q 572 1002 387 1002 q 849 881 749 1002 q 923 583 949 761 l 897 405 m 726 584 q 697 775 743 703 q 548 847 650 847 q 382 772 451 847 q 296 584 313 698 l 270 405 q 296 212 252 283 q 444 140 341 140 q 611 214 541 140 q 699 405 681 289 l 726 584 m 842 1109 l 840 1094 l 683 1094 l 602 1184 l 494 1094 l 340 1094 l 342 1112 l 558 1274 l 673 1274 l 842 1109 z "},"Õ":{"ha":956,"x_min":45,"x_max":949,"o":"m 897 405 q 737 101 867 216 q 420 -14 606 -14 q 145 105 245 -14 q 73 405 45 225 l 99 583 q 257 886 127 770 q 572 1002 387 1002 q 849 881 749 1002 q 923 583 949 761 l 897 405 m 726 584 q 697 775 743 703 q 548 847 650 847 q 382 772 451 847 q 296 584 313 698 l 270 405 q 296 212 252 283 q 444 140 341 140 q 611 214 541 140 q 699 405 681 289 l 726 584 m 862 1273 q 806 1161 852 1206 q 697 1116 760 1116 q 595 1146 652 1116 q 503 1175 538 1175 q 459 1153 479 1175 q 435 1101 439 1131 l 334 1129 q 389 1241 342 1195 q 498 1287 436 1287 q 595 1258 534 1287 q 693 1228 657 1228 q 736 1250 715 1228 q 762 1303 757 1272 l 862 1273 z "},"Ö":{"ha":956,"x_min":45,"x_max":949,"o":"m 897 405 q 737 101 867 216 q 420 -14 606 -14 q 145 105 245 -14 q 73 405 45 225 l 99 583 q 257 886 127 770 q 572 1002 387 1002 q 849 881 749 1002 q 923 583 949 761 l 897 405 m 726 584 q 697 775 743 703 q 548 847 650 847 q 382 772 451 847 q 296 584 313 698 l 270 405 q 296 212 252 283 q 444 140 341 140 q 611 214 541 140 q 699 405 681 289 l 726 584 m 844 1100 l 663 1100 l 683 1238 l 863 1238 l 844 1100 m 505 1100 l 324 1100 l 344 1238 l 524 1238 l 505 1100 z "},"×":{"ha":738,"x_min":27,"x_max":736,"o":"m 27 252 l 269 465 l 91 679 l 224 790 l 399 580 l 636 790 l 736 679 l 494 465 l 672 252 l 538 140 l 364 350 l 127 140 l 27 252 z "},"Ø":{"ha":956,"x_min":57,"x_max":964,"o":"m 897 405 q 737 101 867 216 q 420 -14 606 -14 q 320 -2 368 -14 q 233 33 273 9 l 162 -64 l 65 -64 l 170 79 q 83 221 109 136 q 73 405 57 305 l 99 583 q 257 886 127 770 q 572 1002 387 1002 q 693 984 637 1002 q 795 932 749 966 l 867 1029 l 964 1029 l 852 878 q 917 744 898 820 q 923 583 936 669 l 897 405 m 270 405 q 266 311 262 353 q 283 241 269 269 l 288 239 l 688 787 q 629 831 665 815 q 548 847 594 847 q 382 772 451 847 q 296 584 313 698 l 270 405 m 726 584 q 730 646 730 617 q 725 697 730 675 l 721 699 l 334 171 q 383 148 355 155 q 444 140 410 140 q 611 214 541 140 q 699 405 681 289 l 726 584 z "},"Ù":{"ha":954,"x_min":53,"x_max":967,"o":"m 967 987 l 870 341 q 722 77 844 168 q 420 -14 599 -14 q 152 81 251 -14 q 78 341 53 176 l 175 987 l 374 987 l 277 341 q 306 188 261 239 q 442 138 351 138 q 593 191 530 138 q 671 341 656 243 l 768 987 l 967 987 m 675 1085 l 505 1085 l 346 1262 l 347 1265 l 568 1265 l 675 1085 z "},"Ú":{"ha":954,"x_min":53,"x_max":967,"o":"m 967 987 l 870 341 q 722 77 844 168 q 420 -14 599 -14 q 152 81 251 -14 q 78 341 53 176 l 175 987 l 374 987 l 277 341 q 306 188 261 239 q 442 138 351 138 q 593 191 530 138 q 671 341 656 243 l 768 987 l 967 987 m 646 1265 l 865 1265 l 867 1261 l 654 1085 l 490 1085 l 488 1088 l 646 1265 z "},"Û":{"ha":954,"x_min":53,"x_max":967,"o":"m 967 987 l 870 341 q 722 77 844 168 q 420 -14 599 -14 q 152 81 251 -14 q 78 341 53 176 l 175 987 l 374 987 l 277 341 q 306 188 261 239 q 442 138 351 138 q 593 191 530 138 q 671 341 656 243 l 768 987 l 967 987 m 840 1095 l 838 1080 l 680 1080 l 599 1170 l 491 1080 l 337 1080 l 340 1097 l 555 1260 l 670 1260 l 840 1095 z "},"Ü":{"ha":954,"x_min":53,"x_max":967,"o":"m 967 987 l 870 341 q 722 77 844 168 q 420 -14 599 -14 q 152 81 251 -14 q 78 341 53 176 l 175 987 l 374 987 l 277 341 q 306 188 261 239 q 442 138 351 138 q 593 191 530 138 q 671 341 656 243 l 768 987 l 967 987 m 840 1086 l 660 1086 l 680 1224 l 860 1224 l 840 1086 m 501 1086 l 321 1086 l 340 1224 l 521 1224 l 501 1086 z "},"Ý":{"ha":884,"x_min":100,"x_max":970,"o":"m 465 533 l 469 532 l 753 987 l 970 987 l 536 348 l 484 0 l 286 0 l 339 357 l 100 987 l 317 987 l 465 533 m 614 1265 l 833 1265 l 835 1261 l 622 1085 l 458 1085 l 456 1088 l 614 1265 z "},"Þ":{"ha":846,"x_min":35,"x_max":843,"o":"m 381 987 l 353 804 l 504 804 q 756 719 669 804 q 823 500 843 634 q 694 278 802 359 q 412 196 587 196 l 262 196 l 233 0 l 35 0 l 183 987 l 381 987 m 331 652 l 286 349 l 435 349 q 565 392 515 349 q 625 499 615 436 q 600 609 635 566 q 481 652 565 652 l 331 652 z "},"ß":{"ha":878,"x_min":37,"x_max":827,"o":"m 235 0 l 37 0 l 149 747 q 272 986 173 906 q 524 1067 370 1067 q 714 1001 642 1067 q 770 818 787 936 q 712 676 758 741 q 659 566 666 612 q 740 430 652 525 q 814 241 827 336 q 708 47 793 109 q 473 -14 622 -14 q 366 -4 420 -14 q 289 24 313 6 l 349 175 q 410 149 373 160 q 491 138 447 138 q 575 164 541 138 q 616 233 609 190 q 535 375 623 285 q 461 560 446 465 q 518 691 471 625 q 572 808 565 758 q 553 885 579 856 q 488 915 528 915 q 398 869 438 915 q 347 744 358 823 l 235 0 z "},"à":{"ha":746,"x_min":0,"x_max":711,"o":"m 454 0 q 444 53 447 25 q 441 111 440 81 q 347 21 402 56 q 222 -14 292 -14 q 56 46 111 -14 q 16 207 0 106 q 123 376 32 319 q 375 433 214 433 l 486 433 l 495 492 q 480 575 503 547 q 401 603 456 603 q 324 579 355 603 q 288 515 293 556 l 97 515 l 96 519 q 201 682 106 616 q 435 747 296 747 q 637 680 563 747 q 692 490 711 613 l 647 187 q 640 90 639 134 q 652 0 642 45 l 454 0 m 293 132 q 388 158 342 132 q 454 218 433 184 l 469 321 l 358 321 q 259 290 298 321 q 214 214 221 258 q 229 154 208 175 q 293 132 250 132 m 536 867 l 366 867 l 206 1044 l 208 1047 l 429 1047 l 536 867 z "},"á":{"ha":746,"x_min":0,"x_max":727,"o":"m 454 0 q 444 53 447 25 q 441 111 440 81 q 347 21 402 56 q 222 -14 292 -14 q 56 46 111 -14 q 16 207 0 106 q 123 376 32 319 q 375 433 214 433 l 486 433 l 495 492 q 480 575 503 547 q 401 603 456 603 q 324 579 355 603 q 288 515 293 556 l 97 515 l 96 519 q 201 682 106 616 q 435 747 296 747 q 637 680 563 747 q 692 490 711 613 l 647 187 q 640 90 639 134 q 652 0 642 45 l 454 0 m 293 132 q 388 158 342 132 q 454 218 433 184 l 469 321 l 358 321 q 259 290 298 321 q 214 214 221 258 q 229 154 208 175 q 293 132 250 132 m 506 1047 l 726 1047 l 727 1043 l 514 867 l 350 867 l 349 870 l 506 1047 z "},"â":{"ha":746,"x_min":0,"x_max":711,"o":"m 454 0 q 444 53 447 25 q 441 111 440 81 q 347 21 402 56 q 222 -14 292 -14 q 56 46 111 -14 q 16 207 0 106 q 123 376 32 319 q 375 433 214 433 l 486 433 l 495 492 q 480 575 503 547 q 401 603 456 603 q 324 579 355 603 q 288 515 293 556 l 97 515 l 96 519 q 201 682 106 616 q 435 747 296 747 q 637 680 563 747 q 692 490 711 613 l 647 187 q 640 90 639 134 q 652 0 642 45 l 454 0 m 293 132 q 388 158 342 132 q 454 218 433 184 l 469 321 l 358 321 q 259 290 298 321 q 214 214 221 258 q 229 154 208 175 q 293 132 250 132 m 700 877 l 698 861 l 541 861 l 459 951 l 351 861 l 197 861 l 200 879 l 416 1042 l 530 1042 l 700 877 z "},"ã":{"ha":746,"x_min":0,"x_max":720,"o":"m 454 0 q 444 53 447 25 q 441 111 440 81 q 347 21 402 56 q 222 -14 292 -14 q 56 46 111 -14 q 16 207 0 106 q 123 376 32 319 q 375 433 214 433 l 486 433 l 495 492 q 480 575 503 547 q 401 603 456 603 q 324 579 355 603 q 288 515 293 556 l 97 515 l 96 519 q 201 682 106 616 q 435 747 296 747 q 637 680 563 747 q 692 490 711 613 l 647 187 q 640 90 639 134 q 652 0 642 45 l 454 0 m 293 132 q 388 158 342 132 q 454 218 433 184 l 469 321 l 358 321 q 259 290 298 321 q 214 214 221 258 q 229 154 208 175 q 293 132 250 132 m 720 1040 q 664 928 710 973 q 555 884 617 884 q 453 913 510 884 q 361 943 396 943 q 317 921 337 943 q 293 868 297 899 l 191 897 q 247 1008 200 962 q 355 1055 294 1055 q 453 1025 391 1055 q 551 996 515 996 q 594 1018 573 996 q 619 1071 614 1040 l 720 1040 z "},"ä":{"ha":746,"x_min":0,"x_max":720,"o":"m 454 0 q 444 53 447 25 q 441 111 440 81 q 347 21 402 56 q 222 -14 292 -14 q 56 46 111 -14 q 16 207 0 106 q 123 376 32 319 q 375 433 214 433 l 486 433 l 495 492 q 480 575 503 547 q 401 603 456 603 q 324 579 355 603 q 288 515 293 556 l 97 515 l 96 519 q 201 682 106 616 q 435 747 296 747 q 637 680 563 747 q 692 490 711 613 l 647 187 q 640 90 639 134 q 652 0 642 45 l 454 0 m 293 132 q 388 158 342 132 q 454 218 433 184 l 469 321 l 358 321 q 259 290 298 321 q 214 214 221 258 q 229 154 208 175 q 293 132 250 132 m 701 867 l 520 867 l 540 1006 l 720 1006 l 701 867 m 361 867 l 181 867 l 201 1006 l 381 1006 l 361 867 z "},"å":{"ha":746,"x_min":0,"x_max":711,"o":"m 454 0 q 444 53 447 25 q 441 111 440 81 q 347 21 402 56 q 222 -14 292 -14 q 56 46 111 -14 q 16 207 0 106 q 123 376 32 319 q 375 433 214 433 l 486 433 l 495 492 q 480 575 503 547 q 401 603 456 603 q 324 579 355 603 q 288 515 293 556 l 97 515 l 96 519 q 201 682 106 616 q 435 747 296 747 q 637 680 563 747 q 692 490 711 613 l 647 187 q 640 90 639 134 q 652 0 642 45 l 454 0 m 293 132 q 388 158 342 132 q 454 218 433 184 l 469 321 l 358 321 q 259 290 298 321 q 214 214 221 258 q 229 154 208 175 q 293 132 250 132 m 334 966 q 383 1049 342 1017 q 479 1082 425 1082 q 562 1048 530 1082 q 587 966 594 1015 q 538 882 579 913 q 444 851 498 851 q 359 884 392 851 q 334 966 326 916 m 413 966 q 421 930 409 944 q 454 917 433 917 q 489 930 473 917 q 509 966 505 944 q 501 1002 512 988 q 469 1015 490 1015 q 432 1001 449 1015 q 413 966 416 987 z "},"æ":{"ha":1201,"x_min":17,"x_max":1192,"o":"m 812 -14 q 664 14 728 -14 q 562 96 601 43 q 441 17 515 47 q 271 -14 367 -14 q 81 48 145 -14 q 33 215 17 110 q 143 383 50 327 q 403 439 236 439 l 526 439 l 532 479 q 517 565 540 535 q 444 595 495 595 q 355 569 391 595 q 313 506 318 543 l 123 518 l 123 522 q 229 686 134 624 q 469 747 323 747 q 588 729 534 747 q 677 675 642 711 q 783 729 724 711 q 910 747 842 747 q 1120 657 1048 747 q 1169 415 1192 567 l 1153 308 l 711 308 l 710 304 q 735 182 701 227 q 855 138 770 138 q 961 152 915 138 q 1064 193 1008 165 l 1097 68 q 974 11 1050 35 q 812 -14 897 -14 m 329 125 q 413 146 367 125 q 489 196 460 168 l 507 315 l 386 315 q 279 284 323 315 q 230 212 236 254 q 248 148 223 171 q 329 125 273 125 m 888 595 q 787 553 827 595 q 732 441 747 511 l 733 437 l 978 437 l 981 456 q 967 558 990 522 q 888 595 945 595 z "},"ç":{"ha":716,"x_min":17,"x_max":714,"o":"m 349 138 q 434 169 398 138 q 479 251 471 200 l 659 251 l 660 247 q 550 59 645 132 q 326 -14 454 -14 q 93 91 170 -14 q 41 356 17 197 l 44 376 q 172 646 69 544 q 439 747 275 747 q 641 669 568 747 q 692 466 714 591 l 691 463 l 510 463 q 495 558 519 521 q 416 595 471 595 q 299 532 342 595 q 242 376 256 470 l 239 356 q 247 196 224 255 q 349 138 270 138 m 399 3 l 385 -36 q 452 -71 427 -43 q 469 -153 477 -99 q 390 -271 458 -229 q 208 -313 323 -313 l 219 -203 q 275 -190 252 -203 q 303 -147 298 -176 q 288 -107 307 -118 q 215 -94 269 -97 l 250 3 l 399 3 z "},"è":{"ha":726,"x_min":19,"x_max":718,"o":"m 338 -14 q 100 88 180 -14 q 43 346 19 190 l 47 373 q 177 646 73 544 q 439 747 281 748 q 649 656 581 747 q 694 413 718 564 l 680 311 l 241 311 l 240 307 q 266 183 232 229 q 381 138 300 138 q 496 152 445 138 q 599 193 547 165 l 634 71 q 505 10 584 35 q 338 -14 427 -14 m 416 595 q 320 553 359 595 q 264 446 281 512 l 265 441 l 505 441 l 507 456 q 497 559 517 523 q 416 595 476 595 m 531 867 l 361 867 l 201 1044 l 203 1048 l 424 1048 l 531 867 z "},"é":{"ha":726,"x_min":19,"x_max":722,"o":"m 338 -14 q 100 88 180 -14 q 43 346 19 190 l 47 373 q 177 646 73 544 q 439 747 281 748 q 649 656 581 747 q 694 413 718 564 l 680 311 l 241 311 l 240 307 q 266 183 232 229 q 381 138 300 138 q 496 152 445 138 q 599 193 547 165 l 634 71 q 505 10 584 35 q 338 -14 427 -14 m 416 595 q 320 553 359 595 q 264 446 281 512 l 265 441 l 505 441 l 507 456 q 497 559 517 523 q 416 595 476 595 m 501 1048 l 721 1048 l 722 1044 l 509 867 l 345 867 l 344 871 l 501 1048 z "},"ê":{"ha":726,"x_min":19,"x_max":718,"o":"m 338 -14 q 100 88 180 -14 q 43 346 19 190 l 47 373 q 177 646 73 544 q 439 747 281 748 q 649 656 581 747 q 694 413 718 564 l 680 311 l 241 311 l 240 307 q 266 183 232 229 q 381 138 300 138 q 496 152 445 138 q 599 193 547 165 l 634 71 q 505 10 584 35 q 338 -14 427 -14 m 416 595 q 320 553 359 595 q 264 446 281 512 l 265 441 l 505 441 l 507 456 q 497 559 517 523 q 416 595 476 595 m 695 878 l 693 862 l 536 862 l 454 952 l 347 862 l 193 862 l 195 880 l 411 1042 l 526 1042 l 695 878 z "},"ë":{"ha":726,"x_min":19,"x_max":718,"o":"m 338 -14 q 100 88 180 -14 q 43 346 19 190 l 47 373 q 177 646 73 544 q 439 747 281 748 q 649 656 581 747 q 694 413 718 564 l 680 311 l 241 311 l 240 307 q 266 183 232 229 q 381 138 300 138 q 496 152 445 138 q 599 193 547 165 l 634 71 q 505 10 584 35 q 338 -14 427 -14 m 416 595 q 320 553 359 595 q 264 446 281 512 l 265 441 l 505 441 l 507 456 q 497 559 517 523 q 416 595 476 595 m 696 868 l 515 868 l 535 1006 l 715 1006 l 696 868 m 357 868 l 176 868 l 196 1006 l 376 1006 l 357 868 z "},"ì":{"ha":381,"x_min":24,"x_max":354,"o":"m 234 0 l 36 0 l 146 734 l 344 734 l 234 0 m 354 852 l 184 852 l 24 1029 l 26 1033 l 247 1033 l 354 852 z "},"í":{"ha":381,"x_min":36,"x_max":545,"o":"m 234 0 l 36 0 l 146 734 l 344 734 l 234 0 m 323 1033 l 543 1033 l 545 1029 l 332 852 l 168 852 l 166 856 l 323 1033 z "},"î":{"ha":381,"x_min":16,"x_max":518,"o":"m 234 0 l 36 0 l 146 734 l 344 734 l 234 0 m 518 863 l 516 848 l 359 848 l 277 938 l 170 848 l 16 848 l 18 865 l 234 1028 l 349 1028 l 518 863 z "},"ï":{"ha":381,"x_min":-1,"x_max":538,"o":"m 234 0 l 36 0 l 146 734 l 344 734 l 234 0 m 519 853 l 338 853 l 358 991 l 538 991 l 519 853 m 180 853 l -1 853 l 19 991 l 199 991 l 180 853 z "},"ð":{"ha":826,"x_min":5,"x_max":821,"o":"m 701 875 q 784 709 760 803 q 791 503 808 614 l 772 370 q 624 90 745 194 q 342 -14 503 -14 q 96 82 186 -14 q 26 317 5 178 q 153 566 50 477 q 416 656 257 656 q 516 637 469 656 q 595 587 564 618 l 597 589 q 578 698 597 650 q 524 784 559 747 l 341 690 l 300 767 l 442 840 l 441 844 q 399 863 423 854 q 348 881 376 872 l 433 1029 q 542 993 491 1016 q 635 939 593 970 l 780 1013 l 821 936 l 701 875 m 367 138 q 501 204 443 138 q 574 370 559 270 l 586 450 q 526 494 567 477 q 425 512 484 512 q 291 458 346 512 q 224 317 237 404 q 250 188 212 239 q 367 138 288 138 z "},"ñ":{"ha":784,"x_min":18,"x_max":748,"o":"m 307 633 q 409 718 351 688 q 534 747 467 747 q 694 675 641 747 q 725 450 748 602 l 658 0 l 459 0 l 526 449 q 516 562 538 530 q 438 593 494 593 q 358 576 395 593 q 296 528 322 559 l 216 0 l 18 0 l 128 734 l 313 734 l 307 633 m 741 1040 q 685 928 731 973 q 576 884 638 884 q 474 913 531 884 q 382 943 417 943 q 338 921 358 943 q 314 868 318 899 l 212 897 q 268 1008 221 962 q 376 1055 315 1055 q 474 1025 412 1055 q 572 996 536 996 q 615 1018 594 996 q 640 1071 635 1040 l 741 1040 z "},"ò":{"ha":784,"x_min":20,"x_max":764,"o":"m 47 374 q 179 646 73 544 q 448 747 285 747 q 684 642 605 747 q 740 374 764 536 l 738 359 q 606 87 711 188 q 336 -14 500 -14 q 100 91 179 -14 q 45 359 20 197 l 47 374 m 243 359 q 253 197 227 256 q 358 138 279 138 q 478 199 431 138 q 540 359 525 261 l 542 374 q 530 535 556 475 q 426 595 504 595 q 305 532 352 595 q 245 374 258 469 l 243 359 m 557 867 l 387 867 l 227 1044 l 229 1047 l 450 1047 l 557 867 z "},"ó":{"ha":784,"x_min":20,"x_max":764,"o":"m 47 374 q 179 646 73 544 q 448 747 285 747 q 684 642 605 747 q 740 374 764 536 l 738 359 q 606 87 711 188 q 336 -14 500 -14 q 100 91 179 -14 q 45 359 20 197 l 47 374 m 243 359 q 253 197 227 256 q 358 138 279 138 q 478 199 431 138 q 540 359 525 261 l 542 374 q 530 535 556 475 q 426 595 504 595 q 305 532 352 595 q 245 374 258 469 l 243 359 m 527 1047 l 747 1047 l 748 1043 l 535 867 l 371 867 l 370 870 l 527 1047 z "},"ô":{"ha":784,"x_min":20,"x_max":764,"o":"m 47 374 q 179 646 73 544 q 448 747 285 747 q 684 642 605 747 q 740 374 764 536 l 738 359 q 606 87 711 188 q 336 -14 500 -14 q 100 91 179 -14 q 45 359 20 197 l 47 374 m 243 359 q 253 197 227 256 q 358 138 279 138 q 478 199 431 138 q 540 359 525 261 l 542 374 q 530 535 556 475 q 426 595 504 595 q 305 532 352 595 q 245 374 258 469 l 243 359 m 721 877 l 719 861 l 562 861 l 480 951 l 372 861 l 218 861 l 221 879 l 437 1042 l 551 1042 l 721 877 z "},"õ":{"ha":784,"x_min":20,"x_max":764,"o":"m 47 374 q 179 646 73 544 q 448 747 285 747 q 684 642 605 747 q 740 374 764 536 l 738 359 q 606 87 711 188 q 336 -14 500 -14 q 100 91 179 -14 q 45 359 20 197 l 47 374 m 243 359 q 253 197 227 256 q 358 138 279 138 q 478 199 431 138 q 540 359 525 261 l 542 374 q 530 535 556 475 q 426 595 504 595 q 305 532 352 595 q 245 374 258 469 l 243 359 m 741 1040 q 685 928 731 973 q 576 884 638 884 q 474 913 531 884 q 382 943 417 943 q 338 921 358 943 q 314 868 318 899 l 212 897 q 268 1008 221 962 q 376 1055 315 1055 q 474 1025 412 1055 q 572 996 536 996 q 615 1018 594 996 q 640 1071 635 1040 l 741 1040 z "},"ö":{"ha":784,"x_min":20,"x_max":764,"o":"m 47 374 q 179 646 73 544 q 448 747 285 747 q 684 642 605 747 q 740 374 764 536 l 738 359 q 606 87 711 188 q 336 -14 500 -14 q 100 91 179 -14 q 45 359 20 197 l 47 374 m 243 359 q 253 197 227 256 q 358 138 279 138 q 478 199 431 138 q 540 359 525 261 l 542 374 q 530 535 556 475 q 426 595 504 595 q 305 532 352 595 q 245 374 258 469 l 243 359 m 722 867 l 541 867 l 561 1006 l 741 1006 l 722 867 m 382 867 l 202 867 l 222 1006 l 402 1006 l 382 867 z "},"÷":{"ha":792,"x_min":47,"x_max":768,"o":"m 745 389 l 47 389 l 70 543 l 768 543 l 745 389 m 536 660 l 338 660 l 361 818 l 560 818 l 536 660 m 454 111 l 256 111 l 279 269 l 478 269 l 454 111 z "},"ø":{"ha":784,"x_min":30,"x_max":753,"o":"m 47 374 q 179 646 73 544 q 448 747 285 747 q 513 742 482 747 q 572 726 545 736 l 634 824 l 743 824 l 650 678 q 730 549 707 628 q 740 374 753 470 l 738 359 q 606 87 711 188 q 336 -14 500 -14 q 275 -9 304 -14 q 220 4 246 -5 l 156 -96 l 47 -96 l 140 50 q 55 180 79 99 q 45 359 30 260 l 47 374 m 243 359 q 236 280 236 316 q 245 222 237 245 l 250 222 l 481 584 q 455 592 469 589 q 426 595 441 595 q 305 532 352 595 q 245 374 258 469 l 243 359 m 542 374 q 547 444 547 412 q 541 498 547 477 l 536 500 l 310 145 q 331 139 319 141 q 358 138 343 138 q 478 199 431 138 q 540 359 525 261 l 542 374 z "},"ù":{"ha":784,"x_min":39,"x_max":766,"o":"m 488 105 q 389 16 446 47 q 262 -14 332 -14 q 94 65 150 -14 q 63 309 39 144 l 127 734 l 324 734 l 260 307 q 266 174 245 208 q 342 140 287 140 q 426 156 389 140 q 489 203 463 172 l 568 734 l 766 734 l 656 0 l 492 0 l 488 105 m 554 852 l 384 852 l 224 1029 l 226 1033 l 447 1033 l 554 852 z "},"ú":{"ha":784,"x_min":39,"x_max":766,"o":"m 488 105 q 389 16 446 47 q 262 -14 332 -14 q 94 65 150 -14 q 63 309 39 144 l 127 734 l 324 734 l 260 307 q 266 174 245 208 q 342 140 287 140 q 426 156 389 140 q 489 203 463 172 l 568 734 l 766 734 l 656 0 l 492 0 l 488 105 m 524 1033 l 744 1033 l 745 1029 l 532 852 l 368 852 l 367 856 l 524 1033 z "},"û":{"ha":784,"x_min":39,"x_max":766,"o":"m 488 105 q 389 16 446 47 q 262 -14 332 -14 q 94 65 150 -14 q 63 309 39 144 l 127 734 l 324 734 l 260 307 q 266 174 245 208 q 342 140 287 140 q 426 156 389 140 q 489 203 463 172 l 568 734 l 766 734 l 656 0 l 492 0 l 488 105 m 718 863 l 716 848 l 559 848 l 477 938 l 370 848 l 216 848 l 218 865 l 434 1028 l 549 1028 l 718 863 z "},"ü":{"ha":784,"x_min":39,"x_max":766,"o":"m 488 105 q 389 16 446 47 q 262 -14 332 -14 q 94 65 150 -14 q 63 309 39 144 l 127 734 l 324 734 l 260 307 q 266 174 245 208 q 342 140 287 140 q 426 156 389 140 q 489 203 463 172 l 568 734 l 766 734 l 656 0 l 492 0 l 488 105 m 719 853 l 538 853 l 558 991 l 739 991 l 719 853 m 380 853 l 199 853 l 219 991 l 399 991 l 380 853 z "},"ý":{"ha":709,"x_min":-32,"x_max":762,"o":"m 332 308 l 334 268 l 338 267 l 549 734 l 762 734 l 338 -110 q 233 -242 295 -189 q 64 -296 171 -296 q 19 -292 40 -296 q -32 -281 -3 -288 l 13 -136 q 31 -139 21 -138 q 50 -140 41 -140 q 127 -116 96 -140 q 178 -56 159 -91 l 210 0 l 59 734 l 272 734 l 332 308 m 488 1033 l 708 1033 l 709 1029 l 496 852 l 332 852 l 331 856 l 488 1033 z "},"þ":{"ha":788,"x_min":-14,"x_max":770,"o":"m 743 347 q 628 82 717 178 q 403 -14 539 -14 q 305 8 347 -14 q 237 75 264 31 l 226 0 l 184 -282 l -14 -282 l 28 0 l 28 0 l 186 1058 l 385 1058 l 324 657 q 410 724 363 701 q 515 747 458 747 q 708 640 646 747 q 745 361 770 532 l 743 347 m 547 361 q 537 530 562 467 q 441 593 513 593 q 363 574 397 593 q 304 519 328 555 l 256 202 q 298 154 269 170 q 374 138 328 138 q 486 195 443 138 q 545 347 530 252 l 547 361 z "},"ÿ":{"ha":709,"x_min":-32,"x_max":762,"o":"m 332 308 l 334 268 l 338 267 l 549 734 l 762 734 l 338 -110 q 233 -242 295 -189 q 64 -296 171 -296 q 19 -292 40 -296 q -32 -281 -3 -288 l 13 -136 q 31 -139 21 -138 q 50 -140 41 -140 q 127 -116 96 -140 q 178 -56 159 -91 l 210 0 l 59 734 l 272 734 l 332 308 m 684 853 l 503 853 l 523 991 l 703 991 l 684 853 m 345 853 l 164 853 l 184 991 l 364 991 l 345 853 z "},"Ā":{"ha":884,"x_min":-42,"x_max":825,"o":"m 584 213 l 263 213 l 165 0 l -42 0 l 439 987 l 642 987 l 825 0 l 618 0 l 584 213 m 336 368 l 558 368 l 502 717 l 498 718 l 336 368 m 796 1094 l 300 1094 l 316 1206 l 812 1206 l 796 1094 z "},"ā":{"ha":746,"x_min":0,"x_max":711,"o":"m 454 0 q 444 53 447 25 q 441 111 440 81 q 347 21 402 56 q 222 -14 292 -14 q 56 46 111 -14 q 16 207 0 106 q 123 376 32 319 q 375 433 214 433 l 486 433 l 495 492 q 480 575 503 547 q 401 603 456 603 q 324 579 355 603 q 288 515 293 556 l 97 515 l 96 519 q 201 682 106 616 q 435 747 296 747 q 637 680 563 747 q 692 490 711 613 l 647 187 q 640 90 639 134 q 652 0 642 45 l 454 0 m 293 132 q 388 158 342 132 q 454 218 433 184 l 469 321 l 358 321 q 259 290 298 321 q 214 214 221 258 q 229 154 208 175 q 293 132 250 132 m 691 876 l 195 876 l 211 988 l 707 988 l 691 876 z "},"Ă":{"ha":884,"x_min":-42,"x_max":825,"o":"m 584 213 l 263 213 l 165 0 l -42 0 l 439 987 l 642 987 l 825 0 l 618 0 l 584 213 m 336 368 l 558 368 l 502 717 l 498 718 l 336 368 m 805 1286 l 806 1282 q 726 1139 796 1192 q 548 1086 656 1086 q 386 1141 444 1086 q 344 1282 328 1196 l 345 1286 l 490 1286 q 502 1226 484 1249 q 564 1204 519 1204 q 630 1227 606 1204 q 660 1286 654 1251 l 805 1286 z "},"ă":{"ha":746,"x_min":0,"x_max":711,"o":"m 454 0 q 444 53 447 25 q 441 111 440 81 q 347 21 402 56 q 222 -14 292 -14 q 56 46 111 -14 q 16 207 0 106 q 123 376 32 319 q 375 433 214 433 l 486 433 l 495 492 q 480 575 503 547 q 401 603 456 603 q 324 579 355 603 q 288 515 293 556 l 97 515 l 96 519 q 201 682 106 616 q 435 747 296 747 q 637 680 563 747 q 692 490 711 613 l 647 187 q 640 90 639 134 q 652 0 642 45 l 454 0 m 293 132 q 388 158 342 132 q 454 218 433 184 l 469 321 l 358 321 q 259 290 298 321 q 214 214 221 258 q 229 154 208 175 q 293 132 250 132 m 700 1067 l 701 1063 q 621 921 691 974 q 443 868 551 868 q 281 923 339 868 q 239 1063 223 978 l 240 1067 l 385 1067 q 397 1008 379 1030 q 459 985 414 985 q 525 1009 500 985 q 555 1067 549 1032 l 700 1067 z "},"Ą":{"ha":884,"x_min":-42,"x_max":825,"o":"m 584 213 l 263 213 l 165 0 l -42 0 l 439 987 l 642 987 l 825 0 l 618 0 l 584 213 m 336 368 l 558 368 l 502 717 l 498 718 l 336 368 m 768 0 q 706 -61 727 -35 q 680 -119 685 -86 q 686 -153 677 -138 q 731 -167 695 -167 q 765 -163 749 -167 q 797 -153 781 -159 l 805 -258 q 747 -279 779 -271 q 674 -288 715 -288 q 561 -249 604 -288 q 528 -142 518 -210 q 575 -42 537 -88 q 685 41 612 3 l 768 0 z "},"ą":{"ha":746,"x_min":0,"x_max":711,"o":"m 454 0 q 444 53 447 25 q 441 111 440 81 q 347 21 402 56 q 222 -14 292 -14 q 56 46 111 -14 q 16 207 0 106 q 123 376 32 319 q 375 433 214 433 l 486 433 l 495 492 q 480 575 503 547 q 401 603 456 603 q 324 579 355 603 q 288 515 293 556 l 97 515 l 96 519 q 201 682 106 616 q 435 747 296 747 q 637 680 563 747 q 692 490 711 613 l 647 187 q 640 90 639 134 q 652 0 642 45 l 454 0 m 293 132 q 388 158 342 132 q 454 218 433 184 l 469 321 l 358 321 q 259 290 298 321 q 214 214 221 258 q 229 154 208 175 q 293 132 250 132 m 594 0 q 532 -61 553 -35 q 506 -119 511 -86 q 512 -153 503 -138 q 557 -167 521 -167 q 591 -163 575 -167 q 623 -153 607 -159 l 631 -258 q 573 -279 605 -271 q 500 -288 541 -288 q 387 -249 429 -288 q 354 -142 344 -210 q 400 -42 363 -88 q 511 41 438 3 l 594 0 z "},"Ć":{"ha":884,"x_min":45,"x_max":906,"o":"m 825 327 l 827 323 q 694 72 805 159 q 407 -14 584 -14 q 141 101 236 -14 q 72 395 45 216 l 102 591 q 252 890 130 779 q 549 1002 374 1002 q 814 912 723 1002 q 880 665 906 823 l 878 661 l 685 661 q 661 804 700 760 q 526 849 623 849 q 378 777 441 849 q 299 593 316 704 l 269 395 q 293 208 252 277 q 429 138 335 138 q 567 185 515 138 q 634 327 620 232 l 825 327 m 631 1280 l 850 1280 l 852 1276 l 639 1099 l 475 1099 l 473 1103 l 631 1280 z "},"ć":{"ha":716,"x_min":17,"x_max":719,"o":"m 349 138 q 434 169 398 138 q 479 251 471 200 l 659 251 l 660 247 q 550 59 645 132 q 326 -14 454 -14 q 93 91 170 -14 q 41 356 17 197 l 44 376 q 172 646 69 544 q 439 747 275 747 q 641 669 568 747 q 692 466 714 591 l 691 463 l 510 463 q 495 558 519 521 q 416 595 471 595 q 299 532 342 595 q 242 376 256 470 l 239 356 q 247 196 224 255 q 349 138 270 138 m 498 1047 l 718 1047 l 719 1043 l 506 867 l 342 867 l 340 870 l 498 1047 z "},"Ĉ":{"ha":884,"x_min":45,"x_max":906,"o":"m 825 327 l 827 323 q 694 72 805 159 q 407 -14 584 -14 q 141 101 236 -14 q 72 395 45 216 l 102 591 q 252 890 130 779 q 549 1002 374 1002 q 814 912 723 1002 q 880 665 906 823 l 878 661 l 685 661 q 661 804 700 760 q 526 849 623 849 q 378 777 441 849 q 299 593 316 704 l 269 395 q 293 208 252 277 q 429 138 335 138 q 567 185 515 138 q 634 327 620 232 l 825 327 m 825 1109 l 823 1094 l 665 1094 l 584 1184 l 476 1094 l 322 1094 l 325 1112 l 541 1274 l 655 1274 l 825 1109 z "},"ĉ":{"ha":716,"x_min":17,"x_max":714,"o":"m 349 138 q 434 169 398 138 q 479 251 471 200 l 659 251 l 660 247 q 550 59 645 132 q 326 -14 454 -14 q 93 91 170 -14 q 41 356 17 197 l 44 376 q 172 646 69 544 q 439 747 275 747 q 641 669 568 747 q 692 466 714 591 l 691 463 l 510 463 q 495 558 519 521 q 416 595 471 595 q 299 532 342 595 q 242 376 256 470 l 239 356 q 247 196 224 255 q 349 138 270 138 m 692 877 l 690 861 l 532 861 l 451 951 l 343 861 l 189 861 l 192 879 l 408 1042 l 522 1042 l 692 877 z "},"Ċ":{"ha":884,"x_min":45,"x_max":906,"o":"m 825 327 l 827 323 q 694 72 805 159 q 407 -14 584 -14 q 141 101 236 -14 q 72 395 45 216 l 102 591 q 252 890 130 779 q 549 1002 374 1002 q 814 912 723 1002 q 880 665 906 823 l 878 661 l 685 661 q 661 804 700 760 q 526 849 623 849 q 378 777 441 849 q 299 593 316 704 l 269 395 q 293 208 252 277 q 429 138 335 138 q 567 185 515 138 q 634 327 620 232 l 825 327 m 682 1100 l 460 1100 l 485 1263 l 707 1263 l 682 1100 z "},"ċ":{"ha":716,"x_min":17,"x_max":714,"o":"m 349 138 q 434 169 398 138 q 479 251 471 200 l 659 251 l 660 247 q 550 59 645 132 q 326 -14 454 -14 q 93 91 170 -14 q 41 356 17 197 l 44 376 q 172 646 69 544 q 439 747 275 747 q 641 669 568 747 q 692 466 714 591 l 691 463 l 510 463 q 495 558 519 521 q 416 595 471 595 q 299 532 342 595 q 242 376 256 470 l 239 356 q 247 196 224 255 q 349 138 270 138 m 549 867 l 328 867 l 352 1031 l 574 1031 l 549 867 z "},"Č":{"ha":884,"x_min":45,"x_max":906,"o":"m 825 327 l 827 323 q 694 72 805 159 q 407 -14 584 -14 q 141 101 236 -14 q 72 395 45 216 l 102 591 q 252 890 130 779 q 549 1002 374 1002 q 814 912 723 1002 q 880 665 906 823 l 878 661 l 685 661 q 661 804 700 760 q 526 849 623 849 q 378 777 441 849 q 299 593 316 704 l 269 395 q 293 208 252 277 q 429 138 335 138 q 567 185 515 138 q 634 327 620 232 l 825 327 m 586 1198 l 678 1284 l 857 1284 l 855 1273 l 639 1100 l 504 1100 l 339 1274 l 341 1284 l 520 1284 l 586 1198 z "},"č":{"ha":716,"x_min":17,"x_max":724,"o":"m 349 138 q 434 169 398 138 q 479 251 471 200 l 659 251 l 660 247 q 550 59 645 132 q 326 -14 454 -14 q 93 91 170 -14 q 41 356 17 197 l 44 376 q 172 646 69 544 q 439 747 275 747 q 641 669 568 747 q 692 466 714 591 l 691 463 l 510 463 q 495 558 519 521 q 416 595 471 595 q 299 532 342 595 q 242 376 256 470 l 239 356 q 247 196 224 255 q 349 138 270 138 m 452 966 l 545 1052 l 724 1052 l 722 1040 l 505 867 l 370 867 l 205 1041 l 208 1052 l 387 1052 l 452 966 z "},"Ď":{"ha":919,"x_min":37,"x_max":909,"o":"m 37 0 l 184 987 l 529 987 q 806 871 703 987 q 883 575 909 754 l 859 412 q 697 112 830 223 q 381 0 564 0 l 37 0 m 359 835 l 257 152 l 404 152 q 570 225 498 152 q 660 412 643 299 l 685 576 q 653 764 702 694 q 507 835 605 835 l 359 835 m 523 1184 l 615 1270 l 794 1270 l 792 1259 l 576 1086 l 441 1086 l 276 1259 l 278 1270 l 457 1270 l 523 1184 z "},"ď":{"ha":784,"x_min":19,"x_max":1032,"o":"m 45 361 q 162 644 72 541 q 389 747 252 747 q 483 723 443 747 q 551 652 524 698 l 612 1058 l 811 1058 l 652 0 l 484 0 l 480 90 q 387 13 438 39 q 274 -14 335 -14 q 82 86 144 -14 q 43 347 19 186 l 45 361 m 241 347 q 250 193 225 247 q 348 140 274 140 q 425 158 390 140 q 485 210 460 176 l 532 520 q 488 574 517 555 q 417 593 459 593 q 303 528 348 593 q 243 361 258 463 l 241 347 m 1016 948 l 904 789 l 821 789 l 888 955 l 903 1057 l 1032 1057 l 1016 948 z "},"Đ":{"ha":919,"x_min":11,"x_max":909,"o":"m 37 0 l 102 442 l 11 442 l 29 565 l 121 565 l 184 987 l 529 987 q 806 871 703 987 q 883 575 909 754 l 859 412 q 697 112 830 223 q 381 0 564 0 l 37 0 m 466 442 l 300 442 l 257 152 l 404 152 q 570 225 498 152 q 660 412 643 299 l 685 576 q 653 764 702 694 q 507 835 605 835 l 359 835 l 319 565 l 484 565 l 466 442 z "},"đ":{"ha":784,"x_min":19,"x_max":892,"o":"m 874 827 l 777 827 l 652 0 l 484 0 l 480 90 q 387 13 438 39 q 274 -14 335 -14 q 82 86 144 -14 q 43 347 19 186 l 45 361 q 162 644 72 541 q 389 747 252 747 q 483 723 443 747 q 551 652 524 698 l 578 827 l 419 827 l 437 950 l 596 950 l 612 1058 l 811 1058 l 795 950 l 892 950 l 874 827 m 241 347 q 250 193 225 247 q 348 140 274 140 q 425 158 390 140 q 485 210 460 176 l 532 520 q 488 574 517 555 q 417 593 459 593 q 303 528 348 593 q 243 361 258 463 l 241 347 z "},"Ē":{"ha":772,"x_min":37,"x_max":817,"o":"m 666 434 l 300 434 l 257 152 l 693 152 l 670 0 l 37 0 l 184 987 l 817 987 l 794 835 l 359 835 l 322 587 l 689 587 l 666 434 m 761 1094 l 265 1094 l 281 1206 l 777 1206 l 761 1094 z "},"ē":{"ha":726,"x_min":19,"x_max":718,"o":"m 338 -14 q 100 88 180 -14 q 43 346 19 190 l 47 373 q 177 646 73 544 q 439 747 281 748 q 649 656 581 747 q 694 413 718 564 l 680 311 l 241 311 l 240 307 q 266 183 232 229 q 381 138 300 138 q 496 152 445 138 q 599 193 547 165 l 634 71 q 505 10 584 35 q 338 -14 427 -14 m 416 595 q 320 553 359 595 q 264 446 281 512 l 265 441 l 505 441 l 507 456 q 497 559 517 523 q 416 595 476 595 m 686 876 l 191 876 l 206 988 l 702 988 l 686 876 z "},"Ĕ":{"ha":772,"x_min":37,"x_max":817,"o":"m 666 434 l 300 434 l 257 152 l 693 152 l 670 0 l 37 0 l 184 987 l 817 987 l 794 835 l 359 835 l 322 587 l 689 587 l 666 434 m 770 1286 l 770 1282 q 691 1139 761 1192 q 513 1086 621 1086 q 351 1141 409 1086 q 309 1282 293 1196 l 310 1286 l 455 1286 q 467 1226 449 1249 q 529 1204 484 1204 q 595 1227 570 1204 q 625 1286 619 1251 l 770 1286 z "},"ĕ":{"ha":726,"x_min":19,"x_max":718,"o":"m 338 -14 q 100 88 180 -14 q 43 346 19 190 l 47 373 q 177 646 73 544 q 439 747 281 748 q 649 656 581 747 q 694 413 718 564 l 680 311 l 241 311 l 240 307 q 266 183 232 229 q 381 138 300 138 q 496 152 445 138 q 599 193 547 165 l 634 71 q 505 10 584 35 q 338 -14 427 -14 m 416 595 q 320 553 359 595 q 264 446 281 512 l 265 441 l 505 441 l 507 456 q 497 559 517 523 q 416 595 476 595 m 695 1068 l 696 1064 q 616 922 686 975 q 438 869 546 869 q 276 924 334 869 q 234 1064 218 979 l 235 1068 l 380 1068 q 392 1008 374 1031 q 454 986 410 986 q 520 1009 496 986 q 550 1068 545 1033 l 695 1068 z "},"Ė":{"ha":772,"x_min":37,"x_max":817,"o":"m 666 434 l 300 434 l 257 152 l 693 152 l 670 0 l 37 0 l 184 987 l 817 987 l 794 835 l 359 835 l 322 587 l 689 587 l 666 434 m 627 1086 l 406 1086 l 430 1249 l 652 1249 l 627 1086 z "},"ė":{"ha":726,"x_min":19,"x_max":718,"o":"m 338 -14 q 100 88 180 -14 q 43 346 19 190 l 47 373 q 177 646 73 544 q 439 747 281 748 q 649 656 581 747 q 694 413 718 564 l 680 311 l 241 311 l 240 307 q 266 183 232 229 q 381 138 300 138 q 496 152 445 138 q 599 193 547 165 l 634 71 q 505 10 584 35 q 338 -14 427 -14 m 416 595 q 320 553 359 595 q 264 446 281 512 l 265 441 l 505 441 l 507 456 q 497 559 517 523 q 416 595 476 595 m 553 868 l 331 868 l 355 1031 l 577 1031 l 553 868 z "},"Ę":{"ha":772,"x_min":37,"x_max":817,"o":"m 666 434 l 300 434 l 257 152 l 693 152 l 670 0 l 37 0 l 184 987 l 817 987 l 794 835 l 359 835 l 322 587 l 689 587 l 666 434 m 404 0 q 341 -61 362 -35 q 315 -119 320 -86 q 321 -153 312 -138 q 366 -167 330 -167 q 400 -163 385 -167 q 432 -153 416 -159 l 440 -258 q 382 -279 414 -271 q 309 -288 351 -288 q 196 -249 239 -288 q 163 -142 153 -210 q 210 -42 172 -88 q 320 41 248 3 l 404 0 z "},"ę":{"ha":726,"x_min":19,"x_max":718,"o":"m 338 -14 q 100 88 180 -14 q 43 346 19 190 l 47 373 q 177 646 73 544 q 439 747 281 748 q 649 656 581 747 q 694 413 718 564 l 680 311 l 241 311 l 240 307 q 266 183 232 229 q 381 138 300 138 q 496 152 445 138 q 599 193 547 165 l 634 71 q 505 10 584 35 q 338 -14 427 -14 m 416 595 q 320 553 359 595 q 264 446 281 512 l 265 441 l 505 441 l 507 456 q 497 559 517 523 q 416 595 476 595 m 544 28 q 481 -32 503 -7 q 456 -91 460 -58 q 461 -124 452 -110 q 507 -138 471 -138 q 541 -134 525 -138 q 572 -125 557 -130 l 581 -229 q 523 -251 555 -242 q 450 -259 491 -259 q 336 -220 379 -259 q 304 -114 294 -182 q 350 -14 313 -60 q 460 69 388 32 l 544 28 z "},"Ě":{"ha":772,"x_min":37,"x_max":817,"o":"m 666 434 l 300 434 l 257 152 l 693 152 l 670 0 l 37 0 l 184 987 l 817 987 l 794 835 l 359 835 l 322 587 l 689 587 l 666 434 m 530 1184 l 623 1270 l 802 1270 l 800 1259 l 583 1086 l 448 1086 l 283 1259 l 286 1270 l 465 1270 l 530 1184 z "},"ě":{"ha":726,"x_min":19,"x_max":727,"o":"m 338 -14 q 100 88 180 -14 q 43 346 19 190 l 47 373 q 177 646 73 544 q 439 747 281 748 q 649 656 581 747 q 694 413 718 564 l 680 311 l 241 311 l 240 307 q 266 183 232 229 q 381 138 300 138 q 496 152 445 138 q 599 193 547 165 l 634 71 q 505 10 584 35 q 338 -14 427 -14 m 416 595 q 320 553 359 595 q 264 446 281 512 l 265 441 l 505 441 l 507 456 q 497 559 517 523 q 416 595 476 595 m 456 966 l 548 1053 l 727 1053 l 725 1041 l 509 868 l 374 868 l 209 1042 l 211 1053 l 390 1053 l 456 966 z "},"Ĝ":{"ha":925,"x_min":44,"x_max":905,"o":"m 814 135 q 660 30 758 75 q 418 -14 562 -14 q 145 100 245 -14 q 71 391 44 214 l 102 597 q 256 892 130 783 q 558 1002 382 1002 q 819 915 732 1002 q 881 687 905 828 l 880 683 l 692 683 q 666 807 705 764 q 540 849 627 849 q 384 778 452 849 q 300 598 316 707 l 269 391 q 297 206 251 274 q 440 138 343 138 q 553 152 507 138 q 623 188 599 167 l 652 379 l 462 379 l 482 516 l 871 516 l 814 135 m 821 1109 l 819 1094 l 662 1094 l 581 1184 l 473 1094 l 319 1094 l 321 1112 l 537 1274 l 652 1274 l 821 1109 z "},"ĝ":{"ha":784,"x_min":20,"x_max":764,"o":"m 47 361 q 163 644 73 541 q 391 747 254 747 q 494 718 451 747 q 563 636 536 689 l 593 734 l 764 734 l 654 3 q 528 -221 631 -145 q 254 -296 424 -296 q 140 -281 201 -296 q 30 -239 79 -265 l 85 -92 q 174 -124 127 -113 q 277 -136 221 -136 q 400 -101 355 -136 q 456 4 446 -67 l 466 71 q 380 7 427 28 q 276 -14 333 -14 q 83 86 146 -14 q 45 347 20 186 l 47 361 m 243 347 q 251 193 227 247 q 349 140 275 140 q 428 157 393 140 q 487 207 462 174 l 534 522 q 491 575 520 557 q 418 593 463 593 q 304 528 349 593 q 245 361 260 463 l 243 347 m 707 877 l 705 861 l 548 861 l 467 951 l 359 861 l 205 861 l 208 879 l 423 1042 l 538 1042 l 707 877 z "},"Ğ":{"ha":925,"x_min":44,"x_max":905,"o":"m 814 135 q 660 30 758 75 q 418 -14 562 -14 q 145 100 245 -14 q 71 391 44 214 l 102 597 q 256 892 130 783 q 558 1002 382 1002 q 819 915 732 1002 q 881 687 905 828 l 880 683 l 692 683 q 666 807 705 764 q 540 849 627 849 q 384 778 452 849 q 300 598 316 707 l 269 391 q 297 206 251 274 q 440 138 343 138 q 553 152 507 138 q 623 188 599 167 l 652 379 l 462 379 l 482 516 l 871 516 l 814 135 m 821 1300 l 822 1296 q 742 1154 812 1206 q 564 1101 672 1101 q 402 1156 460 1101 q 360 1296 345 1211 l 361 1300 l 507 1300 q 518 1240 500 1263 q 581 1218 536 1218 q 646 1241 622 1218 q 676 1300 671 1265 l 821 1300 z "},"ğ":{"ha":784,"x_min":20,"x_max":764,"o":"m 47 361 q 163 644 73 541 q 391 747 254 747 q 494 718 451 747 q 563 636 536 689 l 593 734 l 764 734 l 654 3 q 528 -221 631 -145 q 254 -296 424 -296 q 140 -281 201 -296 q 30 -239 79 -265 l 85 -92 q 174 -124 127 -113 q 277 -136 221 -136 q 400 -101 355 -136 q 456 4 446 -67 l 466 71 q 380 7 427 28 q 276 -14 333 -14 q 83 86 146 -14 q 45 347 20 186 l 47 361 m 243 347 q 251 193 227 247 q 349 140 275 140 q 428 157 393 140 q 487 207 462 174 l 534 522 q 491 575 520 557 q 418 593 463 593 q 304 528 349 593 q 245 361 260 463 l 243 347 m 707 1067 l 708 1063 q 628 921 699 974 q 450 868 558 868 q 289 923 347 868 q 246 1063 231 978 l 248 1067 l 393 1067 q 404 1008 387 1030 q 467 985 422 985 q 532 1009 508 985 q 562 1067 557 1032 l 707 1067 z "},"Ġ":{"ha":925,"x_min":44,"x_max":905,"o":"m 814 135 q 660 30 758 75 q 418 -14 562 -14 q 145 100 245 -14 q 71 391 44 214 l 102 597 q 256 892 130 783 q 558 1002 382 1002 q 819 915 732 1002 q 881 687 905 828 l 880 683 l 692 683 q 666 807 705 764 q 540 849 627 849 q 384 778 452 849 q 300 598 316 707 l 269 391 q 297 206 251 274 q 440 138 343 138 q 553 152 507 138 q 623 188 599 167 l 652 379 l 462 379 l 482 516 l 871 516 l 814 135 m 679 1100 l 457 1100 l 481 1263 l 703 1263 l 679 1100 z "},"ġ":{"ha":784,"x_min":20,"x_max":764,"o":"m 47 361 q 163 644 73 541 q 391 747 254 747 q 494 718 451 747 q 563 636 536 689 l 593 734 l 764 734 l 654 3 q 528 -221 631 -145 q 254 -296 424 -296 q 140 -281 201 -296 q 30 -239 79 -265 l 85 -92 q 174 -124 127 -113 q 277 -136 221 -136 q 400 -101 355 -136 q 456 4 446 -67 l 466 71 q 380 7 427 28 q 276 -14 333 -14 q 83 86 146 -14 q 45 347 20 186 l 47 361 m 243 347 q 251 193 227 247 q 349 140 275 140 q 428 157 393 140 q 487 207 462 174 l 534 522 q 491 575 520 557 q 418 593 463 593 q 304 528 349 593 q 245 361 260 463 l 243 347 m 565 867 l 343 867 l 368 1031 l 589 1031 l 565 867 z "},"Ģ":{"ha":925,"x_min":44,"x_max":905,"o":"m 814 135 q 660 30 758 75 q 418 -14 562 -14 q 145 100 245 -14 q 71 391 44 214 l 102 597 q 256 892 130 783 q 558 1002 382 1002 q 819 915 732 1002 q 881 687 905 828 l 880 683 l 692 683 q 666 807 705 764 q 540 849 627 849 q 384 778 452 849 q 300 598 316 707 l 269 391 q 297 206 251 274 q 440 138 343 138 q 553 152 507 138 q 623 188 599 167 l 652 379 l 462 379 l 482 516 l 871 516 l 814 135 m 446 -181 l 334 -340 l 252 -340 l 318 -174 l 334 -72 l 463 -72 l 446 -181 z "},"ģ":{"ha":784,"x_min":20,"x_max":764,"o":"m 47 361 q 163 644 73 541 q 391 747 254 747 q 494 718 451 747 q 563 636 536 689 l 593 734 l 764 734 l 654 3 q 528 -221 631 -145 q 254 -296 424 -296 q 140 -281 201 -296 q 30 -239 79 -265 l 85 -92 q 174 -124 127 -113 q 277 -136 221 -136 q 400 -101 355 -136 q 456 4 446 -67 l 466 71 q 380 7 427 28 q 276 -14 333 -14 q 83 86 146 -14 q 45 347 20 186 l 47 361 m 243 347 q 251 193 227 247 q 349 140 275 140 q 428 157 393 140 q 487 207 462 174 l 534 522 q 491 575 520 557 q 418 593 463 593 q 304 528 349 593 q 245 361 260 463 l 243 347 m 385 972 l 489 1148 l 597 1148 l 545 965 l 529 853 l 367 853 l 385 972 z "},"Ĥ":{"ha":980,"x_min":37,"x_max":983,"o":"m 835 0 l 637 0 l 698 410 l 296 410 l 235 0 l 37 0 l 184 987 l 382 987 l 319 563 l 721 563 l 785 987 l 983 987 l 835 0 m 850 1095 l 848 1080 l 691 1080 l 610 1170 l 502 1080 l 348 1080 l 351 1097 l 566 1260 l 681 1260 l 850 1095 z "},"ĥ":{"ha":784,"x_min":17,"x_max":745,"o":"m 311 645 q 408 721 354 694 q 523 747 462 747 q 689 670 633 747 q 722 435 745 593 l 656 0 l 458 0 l 524 437 q 515 559 537 526 q 437 593 493 593 q 357 578 393 593 q 295 534 321 562 l 215 0 l 17 0 l 176 1058 l 374 1058 l 311 645 m 713 1096 l 711 1080 l 554 1080 l 473 1171 l 365 1080 l 211 1080 l 214 1098 l 429 1261 l 544 1261 l 713 1096 z "},"Ħ":{"ha":980,"x_min":42,"x_max":1043,"o":"m 962 813 l 1043 813 l 1025 697 l 945 697 l 840 0 l 642 0 l 703 410 l 301 410 l 240 0 l 42 0 l 146 697 l 61 697 l 79 813 l 163 813 l 190 987 l 388 987 l 361 813 l 764 813 l 790 987 l 988 987 l 962 813 m 324 563 l 726 563 l 746 697 l 345 697 l 324 563 z "},"ħ":{"ha":784,"x_min":17,"x_max":745,"o":"m 516 825 l 338 825 l 311 645 q 408 721 354 694 q 523 747 462 747 q 689 670 633 747 q 722 435 745 593 l 656 0 l 458 0 l 524 437 q 515 559 537 526 q 437 593 493 593 q 357 578 393 593 q 295 534 321 562 l 215 0 l 17 0 l 140 825 l 61 825 l 79 948 l 159 948 l 176 1058 l 374 1058 l 357 948 l 534 948 l 516 825 z "},"Ĩ":{"ha":408,"x_min":50,"x_max":586,"o":"m 248 0 l 50 0 l 198 987 l 396 987 l 248 0 m 586 1259 q 530 1147 576 1192 q 421 1102 484 1102 q 319 1132 376 1102 q 227 1161 262 1161 q 183 1139 203 1161 q 159 1086 163 1117 l 58 1115 q 113 1227 66 1181 q 222 1273 160 1273 q 319 1243 258 1273 q 417 1214 381 1214 q 460 1236 439 1214 q 486 1289 481 1258 l 586 1259 z "},"ĩ":{"ha":381,"x_min":9,"x_max":537,"o":"m 234 0 l 36 0 l 146 734 l 344 734 l 234 0 m 537 1026 q 481 914 528 959 q 372 869 435 869 q 271 899 328 869 q 178 928 214 928 q 135 906 155 928 q 111 854 115 884 l 9 882 q 64 994 18 948 q 173 1040 111 1040 q 271 1011 209 1040 q 368 981 332 981 q 411 1003 391 981 q 437 1057 432 1025 l 537 1026 z "},"Ī":{"ha":408,"x_min":50,"x_max":573,"o":"m 248 0 l 50 0 l 198 987 l 396 987 l 248 0 m 557 1094 l 62 1094 l 77 1206 l 573 1206 l 557 1094 z "},"ī":{"ha":381,"x_min":14,"x_max":525,"o":"m 234 0 l 36 0 l 146 734 l 344 734 l 234 0 m 509 862 l 14 862 l 29 974 l 525 974 l 509 862 z "},"Ĭ":{"ha":408,"x_min":50,"x_max":567,"o":"m 248 0 l 50 0 l 198 987 l 396 987 l 248 0 m 566 1286 l 567 1282 q 487 1139 557 1192 q 309 1086 417 1086 q 148 1141 205 1086 q 105 1282 90 1196 l 106 1286 l 252 1286 q 263 1226 245 1249 q 326 1204 281 1204 q 391 1227 367 1204 q 421 1286 416 1251 l 566 1286 z "},"ĭ":{"ha":381,"x_min":36,"x_max":519,"o":"m 234 0 l 36 0 l 146 734 l 344 734 l 234 0 m 518 1053 l 519 1049 q 439 907 509 960 q 261 854 369 854 q 99 909 157 854 q 57 1049 41 964 l 58 1053 l 203 1053 q 215 994 197 1016 q 277 971 233 971 q 343 995 319 971 q 373 1053 368 1018 l 518 1053 z "},"Į":{"ha":408,"x_min":-59,"x_max":396,"o":"m 248 0 l 50 0 l 198 987 l 396 987 l 248 0 m 191 0 q 129 -61 150 -35 q 103 -119 108 -86 q 109 -153 100 -138 q 154 -167 118 -167 q 188 -163 172 -167 q 220 -153 204 -159 l 228 -258 q 170 -279 202 -271 q 97 -288 138 -288 q -16 -249 26 -288 q -49 -142 -59 -210 q -2 -42 -40 -88 q 108 41 35 3 l 191 0 z "},"į":{"ha":371,"x_min":-77,"x_max":389,"o":"m 230 0 l 32 0 l 142 734 l 340 734 l 230 0 m 366 909 l 168 909 l 191 1058 l 389 1058 l 366 909 m 173 0 q 111 -61 132 -35 q 85 -119 90 -86 q 91 -153 81 -138 q 136 -167 100 -167 q 170 -163 154 -167 q 201 -153 186 -159 l 210 -258 q 152 -279 184 -271 q 79 -288 120 -288 q -35 -249 8 -288 q -67 -142 -77 -210 q -21 -42 -58 -88 q 90 41 17 3 l 173 0 z "},"İ":{"ha":408,"x_min":50,"x_max":448,"o":"m 248 0 l 50 0 l 198 987 l 396 987 l 248 0 m 423 1086 l 201 1086 l 226 1249 l 448 1249 l 423 1086 z "},"ı":{"ha":381,"x_min":36,"x_max":344,"o":"m 234 0 l 36 0 l 146 734 l 344 734 l 234 0 z "},"Ĳ":{"ha":1179,"x_min":50,"x_max":1183,"o":"m 248 0 l 50 0 l 198 987 l 396 987 l 248 0 m 985 987 l 1183 987 l 1081 306 q 957 70 1058 153 q 712 -14 855 -14 q 479 64 561 -14 q 421 288 397 142 l 423 292 l 616 292 q 635 174 603 210 q 734 138 668 138 q 829 183 787 138 q 884 306 871 229 l 985 987 z "},"ĳ":{"ha":739,"x_min":32,"x_max":761,"o":"m 230 0 l 32 0 l 142 734 l 340 734 l 230 0 m 366 909 l 168 909 l 191 1058 l 389 1058 l 366 909 m 716 734 l 602 -27 q 504 -229 582 -161 q 302 -296 426 -296 q 254 -294 277 -296 q 208 -285 231 -291 l 239 -134 q 270 -140 254 -138 q 303 -142 286 -142 q 368 -114 342 -142 q 404 -27 394 -85 l 517 734 l 716 734 m 739 911 l 540 911 l 562 1058 l 761 1058 l 739 911 z "},"Ĵ":{"ha":771,"x_min":-11,"x_max":932,"o":"m 578 987 l 775 987 l 673 306 q 549 70 650 153 q 304 -14 448 -14 q 71 64 153 -14 q 14 288 -11 142 l 16 292 l 208 292 q 228 174 195 210 q 327 138 260 138 q 421 183 379 138 q 476 306 464 229 l 578 987 m 932 1093 l 930 1077 l 773 1077 l 692 1167 l 584 1077 l 430 1077 l 433 1095 l 648 1257 l 763 1257 l 932 1093 z "},"ĵ":{"ha":392,"x_min":-154,"x_max":513,"o":"m 355 734 l 241 -27 q 143 -229 220 -161 q -58 -296 65 -296 q -107 -294 -84 -296 q -154 -285 -130 -291 l -121 -135 q -90 -141 -106 -139 q -56 -144 -73 -144 q 8 -113 -18 -144 q 43 -27 35 -83 l 157 734 l 355 734 m 513 858 l 511 842 l 353 842 l 272 932 l 164 842 l 10 842 l 13 860 l 229 1023 l 343 1023 l 513 858 z "},"Ķ":{"ha":885,"x_min":33,"x_max":926,"o":"m 363 410 l 293 410 l 232 0 l 33 0 l 181 987 l 380 987 l 319 584 l 389 584 l 667 987 l 926 987 l 539 494 l 791 0 l 564 0 l 363 410 m 416 -173 l 304 -332 l 222 -332 l 288 -166 l 304 -64 l 433 -64 l 416 -173 z "},"ķ":{"ha":744,"x_min":22,"x_max":775,"o":"m 316 307 l 266 307 l 220 0 l 22 0 l 180 1058 l 378 1058 l 288 458 l 332 458 l 549 734 l 774 734 l 775 730 l 490 399 l 701 0 l 473 0 l 316 307 m 363 -172 l 252 -332 l 169 -332 l 235 -165 l 251 -63 l 380 -63 l 363 -172 z "},"ĸ":{"ha":821,"x_min":33,"x_max":836,"o":"m 351 275 l 272 275 l 231 0 l 33 0 l 143 734 l 341 734 l 299 454 l 359 454 l 589 734 l 834 734 l 836 730 l 527 390 l 741 0 l 487 0 l 351 275 z "},"Ĺ":{"ha":772,"x_min":37,"x_max":700,"o":"m 257 152 l 700 152 l 677 0 l 37 0 l 184 987 l 382 987 l 257 152 m 357 1250 l 577 1250 l 578 1246 l 366 1069 l 201 1069 l 200 1073 l 357 1250 z "},"ĺ":{"ha":371,"x_min":32,"x_max":577,"o":"m 230 0 l 32 0 l 191 1058 l 389 1058 l 230 0 m 356 1284 l 576 1284 l 577 1280 l 364 1104 l 200 1104 l 199 1107 l 356 1284 z "},"Ļ":{"ha":772,"x_min":37,"x_max":700,"o":"m 257 152 l 700 152 l 677 0 l 37 0 l 184 987 l 382 987 l 257 152 m 390 -172 l 278 -332 l 195 -332 l 262 -165 l 277 -63 l 406 -63 l 390 -172 z "},"ļ":{"ha":371,"x_min":-29,"x_max":389,"o":"m 230 0 l 32 0 l 191 1058 l 389 1058 l 230 0 m 165 -172 l 54 -332 l -29 -332 l 37 -165 l 53 -63 l 182 -63 l 165 -172 z "},"Ľ":{"ha":772,"x_min":37,"x_max":700,"o":"m 257 152 l 700 152 l 677 0 l 37 0 l 184 987 l 382 987 l 257 152 m 664 880 l 552 720 l 469 720 l 536 886 l 551 989 l 680 989 l 664 880 z "},"ľ":{"ha":371,"x_min":32,"x_max":621,"o":"m 230 0 l 32 0 l 191 1058 l 389 1058 l 230 0 m 605 948 l 493 789 l 410 789 l 477 955 l 492 1057 l 621 1057 l 605 948 z "},"Ŀ":{"ha":772,"x_min":37,"x_max":700,"o":"m 257 152 l 700 152 l 677 0 l 37 0 l 184 987 l 382 987 l 257 152 m 642 461 l 420 461 l 445 625 l 667 625 l 642 461 z "},"ŀ":{"ha":371,"x_min":32,"x_max":522,"o":"m 230 0 l 32 0 l 191 1058 l 389 1058 l 230 0 m 498 426 l 276 426 l 300 589 l 522 589 l 498 426 z "},"Ł":{"ha":705,"x_min":12,"x_max":695,"o":"m 319 600 l 492 647 l 472 515 l 300 467 l 252 152 l 695 152 l 672 0 l 32 0 l 93 410 l 12 388 l 32 520 l 113 543 l 180 987 l 378 987 l 319 600 z "},"ł":{"ha":403,"x_min":14,"x_max":436,"o":"m 336 615 l 436 647 l 416 515 l 316 483 l 243 0 l 45 0 l 108 417 l 14 388 l 34 520 l 128 550 l 204 1058 l 402 1058 l 336 615 z "},"Ń":{"ha":980,"x_min":37,"x_max":983,"o":"m 835 0 l 637 0 l 338 666 l 334 665 l 235 0 l 37 0 l 184 987 l 382 987 l 681 322 l 685 323 l 785 987 l 983 987 l 835 0 m 658 1265 l 878 1265 l 879 1261 l 666 1085 l 502 1085 l 500 1088 l 658 1265 z "},"ń":{"ha":784,"x_min":18,"x_max":748,"o":"m 307 633 q 409 718 351 688 q 534 747 467 747 q 694 675 641 747 q 725 450 748 602 l 658 0 l 459 0 l 526 449 q 516 562 538 530 q 438 593 494 593 q 358 576 395 593 q 296 528 322 559 l 216 0 l 18 0 l 128 734 l 313 734 l 307 633 m 527 1047 l 747 1047 l 748 1043 l 535 867 l 371 867 l 370 870 l 527 1047 z "},"Ņ":{"ha":980,"x_min":37,"x_max":983,"o":"m 835 0 l 637 0 l 338 666 l 334 665 l 235 0 l 37 0 l 184 987 l 382 987 l 681 322 l 685 323 l 785 987 l 983 987 l 835 0 m 469 -172 l 357 -332 l 275 -332 l 341 -165 l 357 -63 l 486 -63 l 469 -172 z "},"ņ":{"ha":784,"x_min":18,"x_max":748,"o":"m 307 633 q 409 718 351 688 q 534 747 467 747 q 694 675 641 747 q 725 450 748 602 l 658 0 l 459 0 l 526 449 q 516 562 538 530 q 438 593 494 593 q 358 576 395 593 q 296 528 322 559 l 216 0 l 18 0 l 128 734 l 313 734 l 307 633 m 371 -172 l 259 -332 l 176 -332 l 243 -165 l 258 -63 l 387 -63 l 371 -172 z "},"Ň":{"ha":980,"x_min":37,"x_max":983,"o":"m 835 0 l 637 0 l 338 666 l 334 665 l 235 0 l 37 0 l 184 987 l 382 987 l 681 322 l 685 323 l 785 987 l 983 987 l 835 0 m 612 1184 l 705 1270 l 884 1270 l 882 1259 l 665 1086 l 530 1086 l 366 1259 l 368 1270 l 547 1270 l 612 1184 z "},"ň":{"ha":784,"x_min":18,"x_max":753,"o":"m 307 633 q 409 718 351 688 q 534 747 467 747 q 694 675 641 747 q 725 450 748 602 l 658 0 l 459 0 l 526 449 q 516 562 538 530 q 438 593 494 593 q 358 576 395 593 q 296 528 322 559 l 216 0 l 18 0 l 128 734 l 313 734 l 307 633 m 481 966 l 574 1052 l 753 1052 l 751 1040 l 534 867 l 399 867 l 235 1041 l 237 1052 l 416 1052 l 481 966 z "},"ŉ":{"ha":784,"x_min":18,"x_max":748,"o":"m 307 633 q 409 718 351 688 q 534 747 467 747 q 694 675 641 747 q 725 450 748 602 l 658 0 l 459 0 l 526 449 q 516 562 538 530 q 438 593 494 593 q 358 576 395 593 q 296 528 322 559 l 216 0 l 18 0 l 128 734 l 313 734 l 307 633 m 239 948 l 127 789 l 45 789 l 111 955 l 127 1057 l 256 1057 l 239 948 z "},"Ŋ":{"ha":975,"x_min":35,"x_max":981,"o":"m 981 987 l 829 -27 q 731 -229 808 -161 q 530 -296 653 -296 q 480 -294 503 -296 q 433 -285 457 -291 l 465 -135 q 497 -141 480 -139 q 532 -144 513 -144 q 596 -113 569 -144 q 631 -27 623 -83 l 635 0 l 336 666 l 332 665 l 233 0 l 35 0 l 182 987 l 381 987 l 680 322 l 684 323 l 783 987 l 981 987 z "},"ŋ":{"ha":784,"x_min":18,"x_max":747,"o":"m 307 635 q 408 718 351 688 q 532 747 466 747 q 693 675 640 747 q 724 450 747 602 l 652 -27 q 554 -229 632 -161 q 353 -296 476 -296 q 303 -294 326 -296 q 257 -285 281 -291 l 290 -133 q 320 -139 303 -136 q 355 -141 336 -141 q 419 -112 393 -141 q 454 -27 445 -82 l 525 449 q 515 562 537 530 q 437 593 493 593 q 358 577 394 593 q 296 530 322 560 l 216 0 l 18 0 l 128 734 l 313 734 l 307 635 z "},"Ō":{"ha":956,"x_min":45,"x_max":949,"o":"m 897 405 q 737 101 867 216 q 420 -14 606 -14 q 145 105 245 -14 q 73 405 45 225 l 99 583 q 257 886 127 770 q 572 1002 387 1002 q 849 881 749 1002 q 923 583 949 761 l 897 405 m 726 584 q 697 775 743 703 q 548 847 650 847 q 382 772 451 847 q 296 584 313 698 l 270 405 q 296 212 252 283 q 444 140 341 140 q 611 214 541 140 q 699 405 681 289 l 726 584 m 833 1108 l 338 1108 l 353 1220 l 849 1220 l 833 1108 z "},"ō":{"ha":784,"x_min":20,"x_max":764,"o":"m 47 374 q 179 646 73 544 q 448 747 285 747 q 684 642 605 747 q 740 374 764 536 l 738 359 q 606 87 711 188 q 336 -14 500 -14 q 100 91 179 -14 q 45 359 20 197 l 47 374 m 243 359 q 253 197 227 256 q 358 138 279 138 q 478 199 431 138 q 540 359 525 261 l 542 374 q 530 535 556 475 q 426 595 504 595 q 305 532 352 595 q 245 374 258 469 l 243 359 m 712 876 l 216 876 l 232 988 l 728 988 l 712 876 z "},"Ŏ":{"ha":956,"x_min":45,"x_max":949,"o":"m 897 405 q 737 101 867 216 q 420 -14 606 -14 q 145 105 245 -14 q 73 405 45 225 l 99 583 q 257 886 127 770 q 572 1002 387 1002 q 849 881 749 1002 q 923 583 949 761 l 897 405 m 726 584 q 697 775 743 703 q 548 847 650 847 q 382 772 451 847 q 296 584 313 698 l 270 405 q 296 212 252 283 q 444 140 341 140 q 611 214 541 140 q 699 405 681 289 l 726 584 m 842 1300 l 843 1296 q 763 1154 833 1206 q 585 1101 693 1101 q 424 1156 481 1101 q 381 1296 366 1211 l 382 1300 l 528 1300 q 539 1240 522 1263 q 602 1218 557 1218 q 667 1241 643 1218 q 697 1300 692 1265 l 842 1300 z "},"ŏ":{"ha":784,"x_min":20,"x_max":764,"o":"m 47 374 q 179 646 73 544 q 448 747 285 747 q 684 642 605 747 q 740 374 764 536 l 738 359 q 606 87 711 188 q 336 -14 500 -14 q 100 91 179 -14 q 45 359 20 197 l 47 374 m 243 359 q 253 197 227 256 q 358 138 279 138 q 478 199 431 138 q 540 359 525 261 l 542 374 q 530 535 556 475 q 426 595 504 595 q 305 532 352 595 q 245 374 258 469 l 243 359 m 721 1067 l 722 1063 q 642 921 712 974 q 464 868 572 868 q 302 923 360 868 q 260 1063 244 978 l 261 1067 l 406 1067 q 418 1008 400 1030 q 480 985 435 985 q 546 1009 522 985 q 576 1067 570 1032 l 721 1067 z "},"Ő":{"ha":956,"x_min":45,"x_max":994,"o":"m 897 405 q 737 101 867 216 q 420 -14 606 -14 q 145 105 245 -14 q 73 405 45 225 l 99 583 q 257 886 127 770 q 572 1002 387 1002 q 849 881 749 1002 q 923 583 949 761 l 897 405 m 726 584 q 697 775 743 703 q 548 847 650 847 q 382 772 451 847 q 296 584 313 698 l 270 405 q 296 212 252 283 q 444 140 341 140 q 611 214 541 140 q 699 405 681 289 l 726 584 m 804 1280 l 993 1280 l 994 1276 l 774 1100 l 616 1100 l 615 1104 l 804 1280 m 541 1280 l 727 1280 l 728 1276 l 539 1100 l 385 1100 l 383 1103 l 541 1280 z "},"ő":{"ha":784,"x_min":20,"x_max":872,"o":"m 47 374 q 179 646 73 544 q 448 747 285 747 q 684 642 605 747 q 740 374 764 536 l 738 359 q 606 87 711 188 q 336 -14 500 -14 q 100 91 179 -14 q 45 359 20 197 l 47 374 m 243 359 q 253 197 227 256 q 358 138 279 138 q 478 199 431 138 q 540 359 525 261 l 542 374 q 530 535 556 475 q 426 595 504 595 q 305 532 352 595 q 245 374 258 469 l 243 359 m 682 1048 l 871 1048 l 872 1044 l 652 867 l 494 867 l 493 871 l 682 1048 m 419 1048 l 605 1048 l 606 1044 l 417 867 l 262 867 l 261 871 l 419 1048 z "},"Œ":{"ha":1345,"x_min":43,"x_max":1315,"o":"m 1168 0 l 618 0 q 511 -11 555 -7 q 420 -14 466 -14 q 143 99 244 -14 q 70 391 43 213 l 101 597 q 258 892 129 783 q 572 1002 387 1002 q 666 998 616 1002 q 766 987 715 994 l 1315 987 l 1293 835 l 858 835 l 821 587 l 1187 587 l 1164 434 l 798 434 l 755 152 l 1192 152 l 1168 0 m 444 138 q 498 140 470 138 q 557 145 527 142 l 661 842 q 604 847 632 845 q 549 849 576 849 q 384 784 452 849 q 298 598 316 720 l 267 391 q 295 200 248 262 q 444 138 342 138 z "},"œ":{"ha":1253,"x_min":20,"x_max":1246,"o":"m 867 -14 q 720 16 783 -14 q 619 100 657 45 q 494 15 566 45 q 336 -14 422 -14 q 100 91 179 -14 q 45 359 20 197 l 47 374 q 179 646 73 544 q 448 747 285 747 q 591 717 529 747 q 692 631 653 686 q 813 718 743 688 q 968 747 883 747 q 1178 656 1110 747 q 1223 413 1246 564 l 1208 311 l 770 311 l 769 307 q 795 183 761 229 q 910 138 829 138 q 1025 152 974 138 q 1128 193 1076 165 l 1163 71 q 1034 10 1113 35 q 867 -14 956 -14 m 243 359 q 253 197 227 256 q 358 138 279 138 q 478 199 431 138 q 540 359 525 261 l 542 374 q 530 535 556 475 q 426 595 504 595 q 305 532 352 595 q 245 374 258 469 l 243 359 m 945 595 q 849 553 888 595 q 793 446 810 512 l 794 441 l 1034 441 l 1036 456 q 1026 559 1046 523 q 945 595 1005 595 z "},"Ŕ":{"ha":885,"x_min":37,"x_max":863,"o":"m 294 395 l 235 0 l 37 0 l 184 987 l 526 987 q 775 910 688 987 q 842 696 863 832 q 782 562 830 616 q 650 474 734 507 q 762 387 731 447 q 780 240 793 326 l 769 168 q 767 80 763 125 q 795 14 772 36 l 793 0 l 589 0 q 566 71 566 22 q 572 169 565 120 l 583 239 q 560 355 594 315 q 451 395 526 395 l 294 395 m 317 547 l 457 547 q 585 583 537 547 q 643 687 632 618 q 618 796 653 757 q 504 835 584 835 l 360 835 l 317 547 m 594 1265 l 814 1265 l 815 1261 l 602 1085 l 438 1085 l 437 1088 l 594 1265 z "},"ŕ":{"ha":489,"x_min":22,"x_max":636,"o":"m 492 564 l 420 566 q 345 546 377 566 q 292 492 313 527 l 219 0 l 22 0 l 132 734 l 315 734 l 309 629 q 388 716 342 686 q 488 747 433 747 q 515 745 502 747 q 540 739 528 743 l 492 564 m 415 1047 l 635 1047 l 636 1043 l 423 867 l 259 867 l 258 870 l 415 1047 z "},"Ŗ":{"ha":885,"x_min":37,"x_max":863,"o":"m 294 395 l 235 0 l 37 0 l 184 987 l 526 987 q 775 910 688 987 q 842 696 863 832 q 782 562 830 616 q 650 474 734 507 q 762 387 731 447 q 780 240 793 326 l 769 168 q 767 80 763 125 q 795 14 772 36 l 793 0 l 589 0 q 566 71 566 22 q 572 169 565 120 l 583 239 q 560 355 594 315 q 451 395 526 395 l 294 395 m 317 547 l 457 547 q 585 583 537 547 q 643 687 632 618 q 618 796 653 757 q 504 835 584 835 l 360 835 l 317 547 m 406 -172 l 294 -332 l 211 -332 l 277 -165 l 293 -63 l 422 -63 l 406 -172 z "},"ŗ":{"ha":489,"x_min":-31,"x_max":540,"o":"m 492 564 l 420 566 q 345 546 377 566 q 292 492 313 527 l 219 0 l 22 0 l 132 734 l 315 734 l 309 629 q 388 716 342 686 q 488 747 433 747 q 515 745 502 747 q 540 739 528 743 l 492 564 m 164 -172 l 52 -332 l -31 -332 l 36 -165 l 52 -63 l 180 -63 l 164 -172 z "},"Ř":{"ha":885,"x_min":37,"x_max":863,"o":"m 294 395 l 235 0 l 37 0 l 184 987 l 526 987 q 775 910 688 987 q 842 696 863 832 q 782 562 830 616 q 650 474 734 507 q 762 387 731 447 q 780 240 793 326 l 769 168 q 767 80 763 125 q 795 14 772 36 l 793 0 l 589 0 q 566 71 566 22 q 572 169 565 120 l 583 239 q 560 355 594 315 q 451 395 526 395 l 294 395 m 317 547 l 457 547 q 585 583 537 547 q 643 687 632 618 q 618 796 653 757 q 504 835 584 835 l 360 835 l 317 547 m 549 1184 l 641 1270 l 820 1270 l 818 1259 l 602 1086 l 467 1086 l 302 1259 l 304 1270 l 483 1270 l 549 1184 z "},"ř":{"ha":489,"x_min":22,"x_max":642,"o":"m 492 564 l 420 566 q 345 546 377 566 q 292 492 313 527 l 219 0 l 22 0 l 132 734 l 315 734 l 309 629 q 388 716 342 686 q 488 747 433 747 q 515 745 502 747 q 540 739 528 743 l 492 564 m 370 966 l 463 1052 l 642 1052 l 640 1040 l 423 867 l 288 867 l 123 1041 l 125 1052 l 304 1052 l 370 966 z "},"Ś":{"ha":859,"x_min":39,"x_max":844,"o":"m 605 239 q 576 340 614 304 q 429 414 537 376 q 178 545 260 468 q 115 746 96 621 q 237 933 133 865 q 491 1002 342 1002 q 750 921 656 1002 q 819 699 844 840 l 818 695 l 626 695 q 592 806 635 764 q 468 849 548 849 q 365 820 409 849 q 314 747 320 791 q 345 651 304 684 q 512 575 385 618 q 747 447 672 523 q 803 241 822 370 q 680 51 784 116 q 422 -14 576 -14 q 150 59 261 -14 q 66 288 39 133 l 67 292 l 259 292 q 303 173 246 208 q 445 138 361 138 q 551 166 505 138 q 605 239 598 195 m 599 1280 l 819 1280 l 820 1276 l 607 1099 l 443 1099 l 441 1103 l 599 1280 z "},"ś":{"ha":716,"x_min":7,"x_max":709,"o":"m 450 203 q 427 260 455 237 q 315 300 399 282 q 131 378 191 326 q 83 520 71 431 q 185 683 97 618 q 408 747 274 747 q 619 680 542 747 q 679 515 696 613 l 677 511 l 486 511 q 468 584 492 557 q 389 611 444 611 q 312 587 344 611 q 275 529 279 564 q 295 473 270 494 q 408 435 321 453 q 597 356 538 408 q 644 211 656 303 q 536 47 629 108 q 303 -14 444 -14 q 85 61 162 -14 q 24 229 7 136 l 26 233 l 208 233 q 234 148 201 174 q 326 121 267 121 q 412 144 378 121 q 450 203 445 166 m 488 1047 l 708 1047 l 709 1043 l 496 867 l 332 867 l 331 870 l 488 1047 z "},"Ŝ":{"ha":859,"x_min":39,"x_max":844,"o":"m 605 239 q 576 340 614 304 q 429 414 537 376 q 178 545 260 468 q 115 746 96 621 q 237 933 133 865 q 491 1002 342 1002 q 750 921 656 1002 q 819 699 844 840 l 818 695 l 626 695 q 592 806 635 764 q 468 849 548 849 q 365 820 409 849 q 314 747 320 791 q 345 651 304 684 q 512 575 385 618 q 747 447 672 523 q 803 241 822 370 q 680 51 784 116 q 422 -14 576 -14 q 150 59 261 -14 q 66 288 39 133 l 67 292 l 259 292 q 303 173 246 208 q 445 138 361 138 q 551 166 505 138 q 605 239 598 195 m 793 1109 l 791 1094 l 633 1094 l 552 1184 l 444 1094 l 290 1094 l 293 1112 l 509 1274 l 623 1274 l 793 1109 z "},"ŝ":{"ha":716,"x_min":7,"x_max":696,"o":"m 450 203 q 427 260 455 237 q 315 300 399 282 q 131 378 191 326 q 83 520 71 431 q 185 683 97 618 q 408 747 274 747 q 619 680 542 747 q 679 515 696 613 l 677 511 l 486 511 q 468 584 492 557 q 389 611 444 611 q 312 587 344 611 q 275 529 279 564 q 295 473 270 494 q 408 435 321 453 q 597 356 538 408 q 644 211 656 303 q 536 47 629 108 q 303 -14 444 -14 q 85 61 162 -14 q 24 229 7 136 l 26 233 l 208 233 q 234 148 201 174 q 326 121 267 121 q 412 144 378 121 q 450 203 445 166 m 682 877 l 680 861 l 523 861 l 441 951 l 334 861 l 180 861 l 182 879 l 398 1042 l 513 1042 l 682 877 z "},"Ş":{"ha":859,"x_min":39,"x_max":844,"o":"m 605 239 q 576 340 614 304 q 429 414 537 376 q 178 545 260 468 q 115 746 96 621 q 237 933 133 865 q 491 1002 342 1002 q 750 921 656 1002 q 819 699 844 840 l 818 695 l 626 695 q 592 806 635 764 q 468 849 548 849 q 365 820 409 849 q 314 747 320 791 q 345 651 304 684 q 512 575 385 618 q 747 447 672 523 q 803 241 822 370 q 680 51 784 116 q 422 -14 576 -14 q 150 59 261 -14 q 66 288 39 133 l 67 292 l 259 292 q 303 173 246 208 q 445 138 361 138 q 551 166 505 138 q 605 239 598 195 m 451 -2 l 437 -41 q 505 -76 479 -48 q 522 -158 530 -104 q 443 -275 510 -233 q 260 -317 375 -317 l 271 -208 q 328 -194 304 -208 q 355 -152 351 -180 q 340 -112 359 -123 q 267 -98 321 -102 l 302 -2 l 451 -2 z "},"ş":{"ha":716,"x_min":7,"x_max":696,"o":"m 450 203 q 427 260 455 237 q 315 300 399 282 q 131 378 191 326 q 83 520 71 431 q 185 683 97 618 q 408 747 274 747 q 619 680 542 747 q 679 515 696 613 l 677 511 l 486 511 q 468 584 492 557 q 389 611 444 611 q 312 587 344 611 q 275 529 279 564 q 295 473 270 494 q 408 435 321 453 q 597 356 538 408 q 644 211 656 303 q 536 47 629 108 q 303 -14 444 -14 q 85 61 162 -14 q 24 229 7 136 l 26 233 l 208 233 q 234 148 201 174 q 326 121 267 121 q 412 144 378 121 q 450 203 445 166 m 375 -2 l 361 -41 q 429 -76 404 -48 q 446 -158 454 -104 q 367 -275 434 -233 q 184 -317 299 -317 l 195 -208 q 252 -194 229 -208 q 279 -152 275 -180 q 264 -112 283 -123 q 191 -98 245 -102 l 227 -2 l 375 -2 z "},"Š":{"ha":859,"x_min":39,"x_max":844,"o":"m 605 239 q 576 340 614 304 q 429 414 537 376 q 178 545 260 468 q 115 746 96 621 q 237 933 133 865 q 491 1002 342 1002 q 750 921 656 1002 q 819 699 844 840 l 818 695 l 626 695 q 592 806 635 764 q 468 849 548 849 q 365 820 409 849 q 314 747 320 791 q 345 651 304 684 q 512 575 385 618 q 747 447 672 523 q 803 241 822 370 q 680 51 784 116 q 422 -14 576 -14 q 150 59 261 -14 q 66 288 39 133 l 67 292 l 259 292 q 303 173 246 208 q 445 138 361 138 q 551 166 505 138 q 605 239 598 195 m 554 1198 l 646 1284 l 825 1284 l 823 1273 l 607 1100 l 472 1100 l 307 1274 l 309 1284 l 488 1284 l 554 1198 z "},"š":{"ha":716,"x_min":7,"x_max":714,"o":"m 450 203 q 427 260 455 237 q 315 300 399 282 q 131 378 191 326 q 83 520 71 431 q 185 683 97 618 q 408 747 274 747 q 619 680 542 747 q 679 515 696 613 l 677 511 l 486 511 q 468 584 492 557 q 389 611 444 611 q 312 587 344 611 q 275 529 279 564 q 295 473 270 494 q 408 435 321 453 q 597 356 538 408 q 644 211 656 303 q 536 47 629 108 q 303 -14 444 -14 q 85 61 162 -14 q 24 229 7 136 l 26 233 l 208 233 q 234 148 201 174 q 326 121 267 121 q 412 144 378 121 q 450 203 445 166 m 443 966 l 535 1052 l 714 1052 l 712 1040 l 496 867 l 361 867 l 196 1041 l 198 1052 l 377 1052 l 443 966 z "},"Ţ":{"ha":797,"x_min":92,"x_max":873,"o":"m 850 835 l 568 835 l 443 0 l 245 0 l 370 835 l 92 835 l 115 987 l 873 987 l 850 835 m 379 -172 l 267 -332 l 184 -332 l 251 -165 l 267 -63 l 395 -63 l 379 -172 z "},"ţ":{"ha":484,"x_min":44,"x_max":493,"o":"m 396 913 l 369 734 l 493 734 l 473 595 l 348 595 l 292 221 q 300 159 286 176 q 345 142 315 142 q 373 143 360 142 q 400 149 385 145 l 395 6 q 335 -9 363 -4 q 273 -14 306 -14 q 125 43 174 -14 q 95 220 77 100 l 151 595 l 44 595 l 64 734 l 172 734 l 199 913 l 396 913 m 274 -179 l 162 -338 l 79 -338 l 146 -172 l 161 -70 l 290 -70 l 274 -179 z "},"Ť":{"ha":797,"x_min":92,"x_max":873,"o":"m 850 835 l 568 835 l 443 0 l 245 0 l 370 835 l 92 835 l 115 987 l 873 987 l 850 835 m 522 1184 l 614 1270 l 793 1270 l 791 1259 l 575 1086 l 440 1086 l 275 1259 l 277 1270 l 456 1270 l 522 1184 z "},"ť":{"ha":484,"x_min":44,"x_max":676,"o":"m 396 913 l 369 734 l 493 734 l 473 595 l 348 595 l 292 221 q 300 159 286 176 q 345 142 315 142 q 373 143 360 142 q 400 149 385 145 l 395 6 q 335 -9 363 -4 q 273 -14 306 -14 q 125 43 174 -14 q 95 220 77 100 l 151 595 l 44 595 l 64 734 l 172 734 l 199 913 l 396 913 m 660 968 l 548 809 l 465 809 l 532 975 l 547 1078 l 676 1078 l 660 968 z "},"Ŧ":{"ha":797,"x_min":92,"x_max":873,"o":"m 654 513 l 519 513 l 443 0 l 245 0 l 321 513 l 199 513 l 217 636 l 340 636 l 370 835 l 92 835 l 115 987 l 873 987 l 850 835 l 568 835 l 538 636 l 672 636 l 654 513 z "},"ŧ":{"ha":484,"x_min":-6,"x_max":493,"o":"m 396 913 l 369 734 l 493 734 l 473 595 l 348 595 l 332 488 l 467 488 l 449 366 l 314 366 l 292 221 q 300 159 286 176 q 345 142 315 142 q 373 143 360 142 q 400 149 385 145 l 395 6 q 335 -9 363 -4 q 273 -14 306 -14 q 125 43 174 -14 q 95 220 77 100 l 117 366 l -6 366 l 12 488 l 135 488 l 151 595 l 44 595 l 64 734 l 172 734 l 199 913 l 396 913 z "},"Ũ":{"ha":954,"x_min":53,"x_max":967,"o":"m 967 987 l 870 341 q 722 77 844 168 q 420 -14 599 -14 q 152 81 251 -14 q 78 341 53 176 l 175 987 l 374 987 l 277 341 q 306 188 261 239 q 442 138 351 138 q 593 191 530 138 q 671 341 656 243 l 768 987 l 967 987 m 859 1259 q 803 1147 850 1192 q 694 1102 757 1102 q 593 1132 650 1102 q 500 1161 536 1161 q 457 1139 477 1161 q 433 1086 437 1117 l 331 1115 q 387 1227 340 1181 q 495 1273 433 1273 q 593 1243 531 1273 q 690 1214 654 1214 q 733 1236 713 1214 q 759 1289 754 1258 l 859 1259 z "},"ũ":{"ha":784,"x_min":39,"x_max":766,"o":"m 488 105 q 389 16 446 47 q 262 -14 332 -14 q 94 65 150 -14 q 63 309 39 144 l 127 734 l 324 734 l 260 307 q 266 174 245 208 q 342 140 287 140 q 426 156 389 140 q 489 203 463 172 l 568 734 l 766 734 l 656 0 l 492 0 l 488 105 m 737 1026 q 681 914 728 959 q 572 869 635 869 q 471 899 528 869 q 378 928 414 928 q 335 906 355 928 q 311 854 315 884 l 209 882 q 264 994 218 948 q 373 1040 311 1040 q 471 1011 409 1040 q 568 981 532 981 q 611 1003 591 981 q 637 1057 632 1025 l 737 1026 z "},"Ū":{"ha":954,"x_min":53,"x_max":967,"o":"m 967 987 l 870 341 q 722 77 844 168 q 420 -14 599 -14 q 152 81 251 -14 q 78 341 53 176 l 175 987 l 374 987 l 277 341 q 306 188 261 239 q 442 138 351 138 q 593 191 530 138 q 671 341 656 243 l 768 987 l 967 987 m 831 1094 l 335 1094 l 351 1206 l 846 1206 l 831 1094 z "},"ū":{"ha":784,"x_min":39,"x_max":766,"o":"m 488 105 q 389 16 446 47 q 262 -14 332 -14 q 94 65 150 -14 q 63 309 39 144 l 127 734 l 324 734 l 260 307 q 266 174 245 208 q 342 140 287 140 q 426 156 389 140 q 489 203 463 172 l 568 734 l 766 734 l 656 0 l 492 0 l 488 105 m 709 862 l 214 862 l 229 974 l 725 974 l 709 862 z "},"Ŭ":{"ha":954,"x_min":53,"x_max":967,"o":"m 967 987 l 870 341 q 722 77 844 168 q 420 -14 599 -14 q 152 81 251 -14 q 78 341 53 176 l 175 987 l 374 987 l 277 341 q 306 188 261 239 q 442 138 351 138 q 593 191 530 138 q 671 341 656 243 l 768 987 l 967 987 m 840 1286 l 840 1282 q 761 1139 831 1192 q 583 1086 690 1086 q 421 1141 479 1086 q 378 1282 363 1196 l 380 1286 l 525 1286 q 536 1226 519 1249 q 599 1204 554 1204 q 665 1227 640 1204 q 694 1286 689 1251 l 840 1286 z "},"ŭ":{"ha":784,"x_min":39,"x_max":766,"o":"m 488 105 q 389 16 446 47 q 262 -14 332 -14 q 94 65 150 -14 q 63 309 39 144 l 127 734 l 324 734 l 260 307 q 266 174 245 208 q 342 140 287 140 q 426 156 389 140 q 489 203 463 172 l 568 734 l 766 734 l 656 0 l 492 0 l 488 105 m 718 1053 l 719 1049 q 639 907 709 960 q 461 854 569 854 q 299 909 357 854 q 257 1049 241 964 l 258 1053 l 404 1053 q 415 994 397 1016 q 477 971 433 971 q 543 995 519 971 q 573 1053 568 1018 l 718 1053 z "},"Ů":{"ha":954,"x_min":53,"x_max":967,"o":"m 967 987 l 870 341 q 722 77 844 168 q 420 -14 599 -14 q 152 81 251 -14 q 78 341 53 176 l 175 987 l 374 987 l 277 341 q 306 188 261 239 q 442 138 351 138 q 593 191 530 138 q 671 341 656 243 l 768 987 l 967 987 m 474 1184 q 523 1268 481 1235 q 619 1301 564 1301 q 702 1267 670 1301 q 727 1184 734 1233 q 678 1101 719 1132 q 584 1069 637 1069 q 499 1102 532 1069 q 474 1184 466 1135 m 553 1184 q 561 1149 549 1162 q 594 1135 572 1135 q 629 1149 613 1135 q 648 1184 644 1162 q 641 1220 652 1206 q 609 1234 629 1234 q 572 1219 589 1234 q 553 1184 555 1205 z "},"ů":{"ha":784,"x_min":39,"x_max":766,"o":"m 488 105 q 389 16 446 47 q 262 -14 332 -14 q 94 65 150 -14 q 63 309 39 144 l 127 734 l 324 734 l 260 307 q 266 174 245 208 q 342 140 287 140 q 426 156 389 140 q 489 203 463 172 l 568 734 l 766 734 l 656 0 l 492 0 l 488 105 m 353 951 q 401 1035 360 1002 q 498 1068 443 1068 q 581 1034 549 1068 q 606 951 612 1000 q 557 868 597 899 q 463 837 516 837 q 377 869 410 837 q 353 951 345 902 m 431 951 q 439 916 427 930 q 473 903 451 903 q 507 916 492 903 q 527 951 523 930 q 519 987 530 974 q 488 1001 508 1001 q 451 987 467 1001 q 431 951 434 972 z "},"Ű":{"ha":954,"x_min":53,"x_max":991,"o":"m 967 987 l 870 341 q 722 77 844 168 q 420 -14 599 -14 q 152 81 251 -14 q 78 341 53 176 l 175 987 l 374 987 l 277 341 q 306 188 261 239 q 442 138 351 138 q 593 191 530 138 q 671 341 656 243 l 768 987 l 967 987 m 801 1266 l 989 1266 l 991 1262 l 771 1086 l 613 1086 l 612 1090 l 801 1266 m 538 1266 l 724 1266 l 725 1262 l 536 1086 l 381 1086 l 380 1089 l 538 1266 z "},"ű":{"ha":784,"x_min":39,"x_max":869,"o":"m 488 105 q 389 16 446 47 q 262 -14 332 -14 q 94 65 150 -14 q 63 309 39 144 l 127 734 l 324 734 l 260 307 q 266 174 245 208 q 342 140 287 140 q 426 156 389 140 q 489 203 463 172 l 568 734 l 766 734 l 656 0 l 492 0 l 488 105 m 680 1034 l 868 1034 l 869 1029 l 650 853 l 492 853 l 490 857 l 680 1034 m 416 1034 l 602 1034 l 604 1029 l 414 853 l 260 853 l 258 857 l 416 1034 z "},"Ų":{"ha":954,"x_min":53,"x_max":967,"o":"m 967 987 l 870 341 q 722 77 844 168 q 420 -14 599 -14 q 152 81 251 -14 q 78 341 53 176 l 175 987 l 374 987 l 277 341 q 306 188 261 239 q 442 138 351 138 q 593 191 530 138 q 671 341 656 243 l 768 987 l 967 987 m 494 0 q 432 -61 453 -35 q 406 -119 411 -86 q 412 -153 403 -138 q 457 -167 421 -167 q 491 -163 475 -167 q 523 -153 507 -159 l 531 -258 q 473 -279 505 -271 q 400 -288 441 -288 q 287 -249 330 -288 q 254 -142 244 -210 q 301 -42 263 -88 q 411 41 338 3 l 494 0 z "},"ų":{"ha":784,"x_min":39,"x_max":766,"o":"m 488 105 q 389 16 446 47 q 262 -14 332 -14 q 94 65 150 -14 q 63 309 39 144 l 127 734 l 324 734 l 260 307 q 266 174 245 208 q 342 140 287 140 q 426 156 389 140 q 489 203 463 172 l 568 734 l 766 734 l 656 0 l 492 0 l 488 105 m 598 0 q 536 -61 557 -35 q 510 -119 515 -86 q 516 -153 507 -138 q 561 -167 525 -167 q 595 -163 579 -167 q 627 -153 611 -159 l 635 -258 q 577 -279 609 -271 q 504 -288 545 -288 q 391 -249 433 -288 q 358 -142 348 -210 q 405 -42 367 -88 q 515 41 442 3 l 598 0 z "},"Ŵ":{"ha":1223,"x_min":107,"x_max":1303,"o":"m 863 317 l 867 317 l 1099 987 l 1303 987 l 924 0 l 741 0 l 656 650 l 653 650 l 374 0 l 190 0 l 107 987 l 311 987 l 342 318 l 347 317 l 625 987 l 785 987 l 863 317 m 974 1095 l 972 1080 l 814 1080 l 733 1170 l 625 1080 l 471 1080 l 474 1097 l 690 1260 l 804 1260 l 974 1095 z "},"ŵ":{"ha":1022,"x_min":75,"x_max":1055,"o":"m 701 274 l 705 274 l 863 734 l 1055 734 l 759 0 l 593 0 l 521 422 l 517 423 l 317 0 l 152 0 l 75 734 l 268 734 l 289 276 l 293 275 l 499 734 l 631 734 l 701 274 m 838 863 l 836 848 l 678 848 l 597 938 l 489 848 l 335 848 l 338 865 l 553 1028 l 668 1028 l 838 863 z "},"Ŷ":{"ha":884,"x_min":100,"x_max":970,"o":"m 465 533 l 469 532 l 753 987 l 970 987 l 536 348 l 484 0 l 286 0 l 339 357 l 100 987 l 317 987 l 465 533 m 808 1095 l 806 1080 l 648 1080 l 567 1170 l 459 1080 l 305 1080 l 308 1097 l 524 1260 l 638 1260 l 808 1095 z "},"ŷ":{"ha":709,"x_min":-32,"x_max":762,"o":"m 332 308 l 334 268 l 338 267 l 549 734 l 762 734 l 338 -110 q 233 -242 295 -189 q 64 -296 171 -296 q 19 -292 40 -296 q -32 -281 -3 -288 l 13 -136 q 31 -139 21 -138 q 50 -140 41 -140 q 127 -116 96 -140 q 178 -56 159 -91 l 210 0 l 59 734 l 272 734 l 332 308 m 682 863 l 680 848 l 523 848 l 441 938 l 334 848 l 180 848 l 182 865 l 398 1028 l 513 1028 l 682 863 z "},"Ÿ":{"ha":884,"x_min":100,"x_max":970,"o":"m 465 533 l 469 532 l 753 987 l 970 987 l 536 348 l 484 0 l 286 0 l 339 357 l 100 987 l 317 987 l 465 533 m 808 1086 l 628 1086 l 648 1224 l 828 1224 l 808 1086 m 469 1086 l 289 1086 l 309 1224 l 489 1224 l 469 1086 z "},"Ź":{"ha":789,"x_min":7,"x_max":797,"o":"m 262 152 l 715 152 l 692 0 l 16 0 l 7 103 l 513 835 l 123 835 l 145 987 l 786 987 l 772 888 l 262 152 m 576 1266 l 795 1266 l 797 1262 l 584 1086 l 420 1086 l 418 1089 l 576 1266 z "},"ź":{"ha":709,"x_min":-3,"x_max":710,"o":"m 269 155 l 270 152 l 629 152 l 606 0 l -3 0 l 14 117 l 429 577 l 428 581 l 94 581 l 117 734 l 705 734 l 688 621 l 269 155 m 489 1033 l 709 1033 l 710 1029 l 497 852 l 333 852 l 332 856 l 489 1033 z "},"Ż":{"ha":789,"x_min":7,"x_max":786,"o":"m 262 152 l 715 152 l 692 0 l 16 0 l 7 103 l 513 835 l 123 835 l 145 987 l 786 987 l 772 888 l 262 152 m 627 1086 l 406 1086 l 430 1250 l 652 1250 l 627 1086 z "},"ż":{"ha":709,"x_min":-3,"x_max":705,"o":"m 269 155 l 270 152 l 629 152 l 606 0 l -3 0 l 14 117 l 429 577 l 428 581 l 94 581 l 117 734 l 705 734 l 688 621 l 269 155 m 541 853 l 319 853 l 343 1017 l 565 1017 l 541 853 z "},"Ž":{"ha":789,"x_min":7,"x_max":802,"o":"m 262 152 l 715 152 l 692 0 l 16 0 l 7 103 l 513 835 l 123 835 l 145 987 l 786 987 l 772 888 l 262 152 m 531 1185 l 623 1271 l 802 1271 l 800 1259 l 584 1086 l 449 1086 l 284 1260 l 286 1271 l 465 1271 l 531 1185 z "},"ž":{"ha":709,"x_min":-3,"x_max":715,"o":"m 269 155 l 270 152 l 629 152 l 606 0 l -3 0 l 14 117 l 429 577 l 428 581 l 94 581 l 117 734 l 705 734 l 688 621 l 269 155 m 444 951 l 536 1038 l 715 1038 l 713 1026 l 496 853 l 361 853 l 197 1027 l 199 1038 l 378 1038 l 444 951 z "},"ſ":{"ha":361,"x_min":24,"x_max":563,"o":"m 24 0 l 146 815 q 245 1008 165 943 q 456 1072 326 1072 q 506 1068 480 1072 q 563 1058 532 1064 l 524 912 q 493 918 507 916 q 459 920 479 920 q 382 892 413 920 q 344 815 351 864 l 222 0 l 24 0 z "},"ƒ":{"ha":502,"x_min":-125,"x_max":602,"o":"m 496 595 l 355 595 l 267 -27 q 171 -229 248 -161 q -29 -296 94 -296 q -78 -294 -55 -296 q -125 -285 -101 -291 l -94 -135 q -62 -141 -79 -139 q -28 -144 -46 -144 q 35 -113 9 -144 q 69 -27 61 -82 l 157 595 l 48 595 l 67 734 l 176 734 l 187 815 q 284 1008 205 943 q 495 1072 364 1072 q 545 1068 519 1072 q 602 1058 571 1064 l 564 911 q 533 916 549 913 q 498 918 517 918 q 422 891 452 918 q 386 815 393 864 l 374 734 l 515 734 l 496 595 z "},"Ơ":{"ha":973,"x_min":42,"x_max":1170,"o":"m 893 405 q 733 101 864 216 q 417 -14 603 -14 q 142 105 241 -14 q 69 405 42 225 l 96 583 q 253 886 123 770 q 568 1002 383 1002 q 726 970 655 1002 q 846 882 798 939 q 964 956 918 900 q 1023 1097 1010 1011 l 1170 1097 q 1083 877 1149 962 q 910 758 1017 792 q 924 673 921 718 q 920 583 926 629 l 893 405 m 722 584 q 693 775 740 703 q 545 847 647 847 q 379 772 448 847 q 293 584 310 698 l 267 405 q 293 212 248 283 q 440 140 338 140 q 608 214 538 140 q 696 405 677 289 l 722 584 z "},"ơ":{"ha":808,"x_min":20,"x_max":927,"o":"m 47 374 q 179 646 73 544 q 448 747 285 747 q 578 723 521 747 q 675 653 636 698 q 745 724 718 677 q 784 835 773 770 l 927 835 q 860 663 911 732 q 726 563 809 594 q 744 474 741 522 q 740 374 747 426 l 738 359 q 606 87 711 188 q 336 -14 500 -14 q 100 91 179 -14 q 45 359 20 197 l 47 374 m 243 359 q 253 197 227 256 q 358 138 279 138 q 478 199 431 138 q 540 359 525 261 l 542 374 q 530 535 556 475 q 426 595 504 595 q 305 532 352 595 q 245 374 258 469 l 243 359 z "},"Ư":{"ha":990,"x_min":53,"x_max":1234,"o":"m 967 987 l 949 866 l 953 865 q 1043 937 1010 879 q 1092 1090 1077 994 l 1233 1090 l 1234 1086 q 1138 839 1213 926 q 929 733 1064 751 l 870 341 q 722 77 844 168 q 420 -14 599 -14 q 152 81 251 -14 q 78 341 53 176 l 175 987 l 374 987 l 277 341 q 306 188 261 239 q 442 138 351 138 q 593 191 530 138 q 671 341 656 243 l 768 987 l 967 987 z "},"ư":{"ha":791,"x_min":39,"x_max":1013,"o":"m 1012 811 l 1013 807 q 930 618 997 684 q 737 540 863 553 l 656 0 l 492 0 l 488 105 q 389 16 446 47 q 262 -14 332 -14 q 94 65 150 -14 q 63 309 39 144 l 127 734 l 324 734 l 260 307 q 266 174 245 208 q 342 140 287 140 q 426 156 389 140 q 489 203 463 172 l 568 734 l 766 734 l 754 651 l 758 649 q 844 698 813 658 q 886 811 875 739 l 1012 811 z "},"ǰ":{"ha":392,"x_min":-154,"x_max":545,"o":"m 355 734 l 241 -27 q 143 -229 220 -161 q -58 -296 65 -296 q -107 -294 -84 -296 q -154 -285 -130 -291 l -121 -135 q -90 -141 -106 -139 q -56 -144 -73 -144 q 8 -113 -18 -144 q 43 -27 35 -83 l 157 734 l 355 734 m 274 947 l 366 1033 l 545 1033 l 543 1021 l 327 848 l 192 848 l 27 1022 l 29 1033 l 208 1033 l 274 947 z "},"Ǻ":{"ha":884,"x_min":-42,"x_max":850,"o":"m 584 213 l 263 213 l 165 0 l -42 0 l 439 987 l 642 987 l 825 0 l 618 0 l 584 213 m 336 368 l 558 368 l 502 717 l 498 718 l 336 368 m 675 1451 l 848 1451 l 850 1447 l 650 1308 l 531 1308 l 530 1312 l 675 1451 m 425 1150 q 477 1240 432 1205 q 581 1275 522 1275 q 670 1239 635 1275 q 697 1150 705 1202 q 645 1060 688 1094 q 543 1027 601 1027 q 452 1062 487 1027 q 425 1150 416 1097 m 501 1150 q 511 1107 496 1123 q 553 1090 526 1090 q 597 1107 577 1090 q 621 1150 616 1124 q 610 1195 624 1178 q 571 1211 597 1211 q 525 1194 545 1211 q 501 1150 505 1176 z "},"ǻ":{"ha":746,"x_min":0,"x_max":745,"o":"m 454 0 q 444 53 447 25 q 441 111 440 81 q 347 21 402 56 q 222 -14 292 -14 q 56 46 111 -14 q 16 207 0 106 q 123 376 32 319 q 375 433 214 433 l 486 433 l 495 492 q 480 575 503 547 q 401 603 456 603 q 324 579 355 603 q 288 515 293 556 l 97 515 l 96 519 q 201 682 106 616 q 435 747 296 747 q 637 680 563 747 q 692 490 711 613 l 647 187 q 640 90 639 134 q 652 0 642 45 l 454 0 m 293 132 q 388 158 342 132 q 454 218 433 184 l 469 321 l 358 321 q 259 290 298 321 q 214 214 221 258 q 229 154 208 175 q 293 132 250 132 m 570 1233 l 743 1233 l 745 1229 l 545 1090 l 426 1090 l 425 1094 l 570 1233 m 319 932 q 372 1022 327 987 q 475 1057 416 1057 q 565 1020 530 1057 q 592 932 600 984 q 539 842 583 876 q 438 808 496 808 q 347 844 382 808 q 319 932 311 879 m 396 932 q 406 888 391 905 q 448 872 420 872 q 492 889 472 872 q 515 932 511 906 q 505 976 519 960 q 466 993 492 993 q 420 975 440 993 q 396 932 399 958 z "},"Ǽ":{"ha":1319,"x_min":-46,"x_max":1322,"o":"m 1217 0 l 608 0 l 632 227 l 334 227 l 186 0 l -46 0 l 633 987 l 1322 987 l 1299 833 l 895 833 l 869 585 l 1207 585 l 1184 431 l 852 431 l 822 154 l 1240 154 l 1217 0 m 650 390 l 690 768 l 686 769 l 439 390 l 650 390 m 808 1265 l 1027 1265 l 1029 1261 l 816 1085 l 652 1085 l 650 1088 l 808 1265 z "},"ǽ":{"ha":1201,"x_min":17,"x_max":1192,"o":"m 812 -14 q 664 14 728 -14 q 562 96 601 43 q 441 17 515 47 q 271 -14 367 -14 q 81 48 145 -14 q 33 215 17 110 q 143 383 50 327 q 403 439 236 439 l 526 439 l 532 479 q 517 565 540 535 q 444 595 495 595 q 355 569 391 595 q 313 506 318 543 l 123 518 l 123 522 q 229 686 134 624 q 469 747 323 747 q 588 729 534 747 q 677 675 642 711 q 783 729 724 711 q 910 747 842 747 q 1120 657 1048 747 q 1169 415 1192 567 l 1153 308 l 711 308 l 710 304 q 735 182 701 227 q 855 138 770 138 q 961 152 915 138 q 1064 193 1008 165 l 1097 68 q 974 11 1050 35 q 812 -14 897 -14 m 329 125 q 413 146 367 125 q 489 196 460 168 l 507 315 l 386 315 q 279 284 323 315 q 230 212 236 254 q 248 148 223 171 q 329 125 273 125 m 888 595 q 787 553 827 595 q 732 441 747 511 l 733 437 l 978 437 l 981 456 q 967 558 990 522 q 888 595 945 595 m 743 1048 l 963 1048 l 964 1044 l 751 867 l 587 867 l 586 871 l 743 1048 z "},"Ǿ":{"ha":956,"x_min":57,"x_max":964,"o":"m 897 405 q 737 101 867 216 q 420 -14 606 -14 q 320 -2 368 -14 q 233 33 273 9 l 162 -64 l 65 -64 l 170 79 q 83 221 109 136 q 73 405 57 305 l 99 583 q 257 886 127 770 q 572 1002 387 1002 q 693 984 637 1002 q 795 932 749 966 l 867 1029 l 964 1029 l 852 878 q 917 744 898 820 q 923 583 936 669 l 897 405 m 270 405 q 266 311 262 353 q 283 241 269 269 l 288 239 l 688 787 q 629 831 665 815 q 548 847 594 847 q 382 772 451 847 q 296 584 313 698 l 270 405 m 726 584 q 730 646 730 617 q 725 697 730 675 l 721 699 l 334 171 q 383 148 355 155 q 444 140 410 140 q 611 214 541 140 q 699 405 681 289 l 726 584 m 659 1308 l 878 1308 l 880 1303 l 667 1127 l 503 1127 l 501 1131 l 659 1308 z "},"ǿ":{"ha":784,"x_min":30,"x_max":753,"o":"m 47 374 q 179 646 73 544 q 448 747 285 747 q 513 742 482 747 q 572 726 545 736 l 634 824 l 743 824 l 650 678 q 730 549 707 628 q 740 374 753 470 l 738 359 q 606 87 711 188 q 336 -14 500 -14 q 275 -9 304 -14 q 220 4 246 -5 l 156 -96 l 47 -96 l 140 50 q 55 180 79 99 q 45 359 30 260 l 47 374 m 243 359 q 236 280 236 316 q 245 222 237 245 l 250 222 l 481 584 q 455 592 469 589 q 426 595 441 595 q 305 532 352 595 q 245 374 258 469 l 243 359 m 542 374 q 547 444 547 412 q 541 498 547 477 l 536 500 l 310 145 q 331 139 319 141 q 358 138 343 138 q 478 199 431 138 q 540 359 525 261 l 542 374 m 500 1044 l 720 1044 l 722 1040 l 509 864 l 345 864 l 343 867 l 500 1044 z "},"Ș":{"ha":859,"x_min":39,"x_max":844,"o":"m 605 239 q 576 340 614 304 q 429 414 537 376 q 178 545 260 468 q 115 746 96 621 q 237 933 133 865 q 491 1002 342 1002 q 750 921 656 1002 q 819 699 844 840 l 818 695 l 626 695 q 592 806 635 764 q 468 849 548 849 q 365 820 409 849 q 314 747 320 791 q 345 651 304 684 q 512 575 385 618 q 747 447 672 523 q 803 241 822 370 q 680 51 784 116 q 422 -14 576 -14 q 150 59 261 -14 q 66 288 39 133 l 67 292 l 259 292 q 303 173 246 208 q 445 138 361 138 q 551 166 505 138 q 605 239 598 195 m 406 -186 l 294 -345 l 212 -345 l 278 -179 l 294 -77 l 422 -77 l 406 -186 z "},"ș":{"ha":716,"x_min":7,"x_max":696,"o":"m 450 203 q 427 260 455 237 q 315 300 399 282 q 131 378 191 326 q 83 520 71 431 q 185 683 97 618 q 408 747 274 747 q 619 680 542 747 q 679 515 696 613 l 677 511 l 486 511 q 468 584 492 557 q 389 611 444 611 q 312 587 344 611 q 275 529 279 564 q 295 473 270 494 q 408 435 321 453 q 597 356 538 408 q 644 211 656 303 q 536 47 629 108 q 303 -14 444 -14 q 85 61 162 -14 q 24 229 7 136 l 26 233 l 208 233 q 234 148 201 174 q 326 121 267 121 q 412 144 378 121 q 450 203 445 166 m 330 -186 l 218 -345 l 136 -345 l 202 -179 l 218 -77 l 347 -77 l 330 -186 z "},"ȷ":{"ha":392,"x_min":-154,"x_max":355,"o":"m 355 734 l 241 -27 q 143 -229 220 -161 q -58 -296 65 -296 q -107 -294 -84 -296 q -154 -285 -130 -291 l -121 -135 q -90 -141 -106 -139 q -56 -144 -73 -144 q 8 -113 -18 -144 q 43 -27 35 -83 l 157 734 l 355 734 z "},"ʼ":{"ha":378,"x_min":146,"x_max":368,"o":"m 342 812 l 244 618 l 146 618 l 175 811 l 201 987 l 368 987 l 342 812 z "},"ˆ":{"ha":689,"x_min":166,"x_max":669,"o":"m 669 865 l 667 849 l 509 849 l 428 939 l 320 849 l 166 849 l 169 867 l 385 1029 l 499 1029 l 669 865 z "},"ˇ":{"ha":654,"x_min":166,"x_max":684,"o":"m 413 947 l 505 1034 l 684 1034 l 682 1022 l 466 849 l 331 849 l 166 1023 l 168 1034 l 347 1034 l 413 947 z "},"˘":{"ha":617,"x_min":147,"x_max":625,"o":"m 624 987 l 625 983 q 545 841 615 894 q 367 788 475 788 q 205 843 263 788 q 163 983 147 898 l 164 987 l 309 987 q 321 928 303 950 q 383 905 338 905 q 449 929 425 905 q 479 987 473 952 l 624 987 z "},"˙":{"ha":427,"x_min":164,"x_max":410,"o":"m 386 832 l 164 832 l 189 996 l 410 996 l 386 832 z "},"˚":{"ha":463,"x_min":175,"x_max":443,"o":"m 183 885 q 232 969 191 936 q 328 1002 273 1002 q 411 968 379 1002 q 436 885 443 934 q 387 802 428 833 q 293 770 347 770 q 208 803 241 770 q 183 885 175 836 m 262 885 q 270 850 258 863 q 303 836 281 836 q 338 850 322 836 q 357 885 353 863 q 350 921 361 907 q 318 935 338 935 q 281 920 298 935 q 262 885 264 906 z "},"˛":{"ha":419,"x_min":-30,"x_max":257,"o":"m 220 0 q 158 -61 179 -35 q 132 -119 137 -86 q 138 -153 129 -138 q 183 -167 147 -167 q 217 -163 201 -167 q 249 -153 233 -159 l 257 -258 q 199 -279 231 -271 q 126 -288 168 -288 q 13 -249 56 -288 q -20 -142 -30 -210 q 27 -42 -11 -88 q 137 41 64 3 l 220 0 z "},"˜":{"ha":669,"x_min":151,"x_max":679,"o":"m 679 1006 q 623 895 669 939 q 514 850 576 850 q 412 879 469 850 q 320 909 355 909 q 276 887 296 909 q 252 834 256 865 l 151 863 q 206 975 159 928 q 315 1021 253 1021 q 412 991 351 1021 q 510 962 474 962 q 553 984 532 962 q 578 1037 574 1006 l 679 1006 z "},"˝":{"ha":594,"x_min":172,"x_max":783,"o":"m 593 1029 l 782 1029 l 783 1025 l 564 849 l 406 849 l 404 853 l 593 1029 m 330 1029 l 516 1029 l 517 1025 l 328 849 l 174 849 l 172 852 l 330 1029 z "},"˳":{"ha":450,"x_min":22,"x_max":283,"o":"m 30 -155 q 78 -74 37 -104 q 172 -43 118 -43 q 252 -75 221 -43 q 277 -155 283 -107 q 230 -234 269 -204 q 138 -264 191 -264 q 55 -233 87 -264 q 30 -155 22 -201 m 107 -155 q 115 -188 104 -175 q 148 -201 127 -201 q 181 -188 167 -201 q 199 -155 196 -174 q 192 -119 202 -132 q 161 -106 181 -106 q 125 -120 141 -106 q 107 -155 110 -134 z "},"̀":{"ha":0,"x_min":-527,"x_max":-298,"o":"m -297 857 l -416 857 l -527 1091 l -526 1095 l -372 1095 l -297 857 z "},"́":{"ha":0,"x_min":-432,"x_max":-174,"o":"m -324 1096 l -174 1096 l -174 1091 l -319 857 l -431 857 l -432 862 l -324 1096 z "},"̃":{"ha":0,"x_min":-541,"x_max":-12,"o":"m -12 1006 q -68 895 -22 939 q -177 850 -115 850 q -279 879 -222 850 q -371 909 -336 909 q -415 887 -395 909 q -439 834 -435 865 l -541 863 q -485 975 -532 928 q -376 1021 -438 1021 q -279 991 -340 1021 q -181 962 -217 962 q -138 984 -159 962 q -113 1037 -117 1006 l -12 1006 z "},"̉":{"ha":0,"x_min":-413,"x_max":-132,"o":"m -413 857 l -410 950 q -336 962 -359 952 q -310 995 -313 972 q -331 1031 -306 1020 q -399 1042 -355 1042 l -381 1132 q -193 1098 -254 1132 q -142 1000 -132 1063 q -182 932 -149 956 q -259 901 -215 907 l -265 857 l -413 857 z "},"̏":{"ha":0,"x_min":-602,"x_max":-41,"o":"m -273 849 l -435 849 l -602 1025 l -600 1029 l -412 1029 l -273 849 m -41 849 l -201 849 l -340 1029 l -149 1029 l -41 849 z "},"̣":{"ha":0,"x_min":-607,"x_max":-361,"o":"m -385 -240 l -607 -240 l -583 -77 l -361 -77 l -385 -240 z "},"΄":{"ha":471,"x_min":239,"x_max":494,"o":"m 309 1053 l 492 1053 l 494 1050 l 335 861 l 239 861 l 309 1053 z "},"΅":{"ha":763,"x_min":177,"x_max":741,"o":"m 721 849 l 549 849 l 569 987 l 741 987 l 721 849 m 349 849 l 177 849 l 197 987 l 369 987 l 349 849 m 477 1192 l 669 1192 l 521 1002 l 420 1002 l 477 1192 z "},"Ά":{"ha":884,"x_min":-42,"x_max":825,"o":"m 584 213 l 263 213 l 165 0 l -42 0 l 439 987 l 642 987 l 825 0 l 618 0 l 584 213 m 336 368 l 558 368 l 502 717 l 498 718 l 336 368 m 208 1053 l 391 1053 l 393 1050 l 234 861 l 138 861 l 208 1053 z "},"·":{"ha":420,"x_min":111,"x_max":336,"o":"m 309 385 l 111 385 l 138 562 l 336 562 l 309 385 z "},"Έ":{"ha":772,"x_min":-87,"x_max":817,"o":"m 666 434 l 300 434 l 257 152 l 693 152 l 670 0 l 37 0 l 184 987 l 817 987 l 794 835 l 359 835 l 322 587 l 689 587 l 666 434 m -17 1055 l 167 1055 l 168 1051 l 9 863 l -87 863 l -17 1055 z "},"Ή":{"ha":980,"x_min":-58,"x_max":983,"o":"m 835 0 l 637 0 l 698 410 l 296 410 l 235 0 l 37 0 l 184 987 l 382 987 l 319 563 l 721 563 l 785 987 l 983 987 l 835 0 m 12 1053 l 195 1053 l 197 1049 l 38 861 l -58 861 l 12 1053 z "},"Ί":{"ha":408,"x_min":-51,"x_max":396,"o":"m 248 0 l 50 0 l 198 987 l 396 987 l 248 0 m 19 1055 l 203 1055 l 204 1051 l 45 863 l -51 863 l 19 1055 z "},"Ό":{"ha":956,"x_min":45,"x_max":949,"o":"m 897 405 q 737 101 867 216 q 420 -14 606 -14 q 145 105 245 -14 q 73 405 45 225 l 99 583 q 257 886 127 770 q 572 1002 387 1002 q 849 881 749 1002 q 923 583 949 761 l 897 405 m 726 584 q 697 775 743 703 q 548 847 650 847 q 382 772 451 847 q 296 584 313 698 l 270 405 q 296 212 252 283 q 444 140 341 140 q 611 214 541 140 q 699 405 681 289 l 726 584 m 126 1053 l 310 1053 l 311 1050 l 153 861 l 56 861 l 126 1053 z "},"Ύ":{"ha":884,"x_min":-119,"x_max":970,"o":"m 465 533 l 469 532 l 753 987 l 970 987 l 536 348 l 484 0 l 286 0 l 339 357 l 100 987 l 317 987 l 465 533 m -50 1053 l 134 1053 l 136 1050 l -23 861 l -119 861 l -50 1053 z "},"Ώ":{"ha":933,"x_min":31,"x_max":911,"o":"m 456 83 l 462 121 l 467 154 l 468 157 q 583 268 534 179 q 656 518 631 357 l 666 582 q 650 782 686 716 q 532 847 615 847 q 398 778 455 847 q 322 582 341 709 l 313 518 q 310 264 287 350 q 397 157 334 179 l 391 121 l 373 0 l 31 0 l 54 154 l 224 154 q 114 312 151 215 q 94 518 77 408 l 103 581 q 257 887 132 773 q 556 1002 381 1002 q 817 883 723 1002 q 884 581 911 764 l 875 518 q 793 309 857 405 q 639 154 729 214 l 810 154 l 787 0 l 444 0 l 456 83 m 115 1053 l 299 1053 l 300 1050 l 142 861 l 45 861 l 115 1053 z "},"ΐ":{"ha":462,"x_min":-11,"x_max":553,"o":"m 347 733 l 269 218 q 275 156 262 172 q 319 140 288 140 q 351 142 338 140 q 388 152 363 144 l 387 9 q 323 -9 353 -4 q 256 -14 294 -14 q 104 44 154 -14 q 72 220 54 103 l 149 733 l 347 733 m 533 806 l 361 806 l 381 944 l 553 944 l 533 806 m 161 806 l -11 806 l 9 944 l 181 944 l 161 806 m 290 1148 l 481 1148 l 333 959 l 233 959 l 290 1148 z "},"Α":{"ha":884,"x_min":-42,"x_max":825,"o":"m 584 213 l 263 213 l 165 0 l -42 0 l 439 987 l 642 987 l 825 0 l 618 0 l 584 213 m 336 368 l 558 368 l 502 717 l 498 718 l 336 368 z "},"Β":{"ha":885,"x_min":37,"x_max":857,"o":"m 37 0 l 184 987 l 508 987 q 766 919 675 987 q 838 717 857 850 q 784 594 826 646 q 671 515 742 541 q 796 434 760 497 q 821 288 832 371 q 695 70 798 140 q 418 0 592 0 l 37 0 m 300 437 l 257 152 l 441 152 q 565 186 517 152 q 623 288 613 221 q 600 399 633 362 q 482 437 566 437 l 300 437 m 321 574 l 460 574 q 581 608 534 575 q 637 701 627 642 q 610 804 648 772 q 486 835 572 835 l 360 835 l 321 574 z "},"Γ":{"ha":771,"x_min":35,"x_max":827,"o":"m 804 835 l 359 835 l 233 0 l 35 0 l 183 987 l 827 987 l 804 835 z "},"Δ":{"ha":1013,"x_min":-39,"x_max":947,"o":"m 504 987 l 707 987 l 947 0 l -39 0 l 504 987 m 248 152 l 707 152 l 572 752 l 568 752 l 248 152 z "},"Ε":{"ha":772,"x_min":37,"x_max":817,"o":"m 666 434 l 300 434 l 257 152 l 693 152 l 670 0 l 37 0 l 184 987 l 817 987 l 794 835 l 359 835 l 322 587 l 689 587 l 666 434 z "},"Ζ":{"ha":789,"x_min":7,"x_max":786,"o":"m 262 152 l 715 152 l 692 0 l 16 0 l 7 103 l 513 835 l 123 835 l 145 987 l 786 987 l 772 888 l 262 152 z "},"Η":{"ha":980,"x_min":37,"x_max":983,"o":"m 835 0 l 637 0 l 698 410 l 296 410 l 235 0 l 37 0 l 184 987 l 382 987 l 319 563 l 721 563 l 785 987 l 983 987 l 835 0 z "},"Θ":{"ha":956,"x_min":45,"x_max":949,"o":"m 618 416 l 361 416 l 384 568 l 642 568 l 618 416 m 897 405 q 737 101 867 216 q 420 -14 606 -14 q 145 105 245 -14 q 73 405 45 225 l 99 583 q 257 886 127 770 q 572 1002 387 1002 q 849 881 749 1002 q 923 583 949 761 l 897 405 m 726 584 q 697 775 743 703 q 548 847 650 847 q 382 772 451 847 q 296 584 313 698 l 270 405 q 296 212 252 283 q 444 140 341 140 q 611 214 541 140 q 699 405 681 289 l 726 584 z "},"Ι":{"ha":408,"x_min":50,"x_max":396,"o":"m 248 0 l 50 0 l 198 987 l 396 987 l 248 0 z "},"Κ":{"ha":885,"x_min":33,"x_max":926,"o":"m 363 410 l 293 410 l 232 0 l 33 0 l 181 987 l 380 987 l 319 584 l 389 584 l 667 987 l 926 987 l 539 494 l 791 0 l 564 0 l 363 410 z "},"Λ":{"ha":901,"x_min":-41,"x_max":831,"o":"m 513 770 l 509 770 l 166 0 l -41 0 l 441 987 l 644 987 l 831 0 l 625 0 l 513 770 z "},"Μ":{"ha":1208,"x_min":37,"x_max":1211,"o":"m 586 260 l 590 259 l 953 987 l 1211 987 l 1063 0 l 865 0 l 966 673 l 962 674 l 617 0 l 483 0 l 340 675 l 336 675 l 235 0 l 37 0 l 184 987 l 444 987 l 586 260 z "},"Ν":{"ha":980,"x_min":37,"x_max":983,"o":"m 835 0 l 637 0 l 338 666 l 334 665 l 235 0 l 37 0 l 184 987 l 382 987 l 681 322 l 685 323 l 785 987 l 983 987 l 835 0 z "},"Ξ":{"ha":789,"x_min":12,"x_max":798,"o":"m 35 152 l 701 152 l 677 0 l 12 0 l 35 152 m 174 576 l 687 576 l 665 429 l 153 429 l 174 576 m 175 987 l 798 987 l 775 835 l 153 835 l 175 987 z "},"Ο":{"ha":956,"x_min":45,"x_max":949,"o":"m 897 405 q 737 101 867 216 q 420 -14 606 -14 q 145 105 245 -14 q 73 405 45 225 l 99 583 q 257 886 127 770 q 572 1002 387 1002 q 849 881 749 1002 q 923 583 949 761 l 897 405 m 726 584 q 697 775 743 703 q 548 847 650 847 q 382 772 451 847 q 296 584 313 698 l 270 405 q 296 212 252 283 q 444 140 341 140 q 611 214 541 140 q 699 405 681 289 l 726 584 z "},"Π":{"ha":979,"x_min":36,"x_max":983,"o":"m 835 0 l 637 0 l 762 835 l 359 835 l 234 0 l 36 0 l 184 987 l 983 987 l 835 0 z "},"Ρ":{"ha":885,"x_min":37,"x_max":901,"o":"m 288 358 l 235 0 l 37 0 l 184 987 l 562 987 q 813 900 726 987 q 881 672 901 812 q 749 441 859 525 q 468 358 640 358 l 288 358 m 311 511 l 491 511 q 621 556 570 511 q 683 671 672 602 q 659 790 694 745 q 540 835 624 835 l 360 835 l 311 511 z "},"Σ":{"ha":789,"x_min":-5,"x_max":825,"o":"m 578 491 l 284 156 l 286 153 l 718 153 l 695 0 l -5 0 l 10 103 l 370 497 l 127 885 l 142 987 l 825 987 l 802 835 l 384 835 l 580 503 l 578 491 z "},"Τ":{"ha":797,"x_min":92,"x_max":873,"o":"m 850 835 l 568 835 l 443 0 l 245 0 l 370 835 l 92 835 l 115 987 l 873 987 l 850 835 z "},"Υ":{"ha":884,"x_min":100,"x_max":970,"o":"m 465 533 l 469 532 l 753 987 l 970 987 l 536 348 l 484 0 l 286 0 l 339 357 l 100 987 l 317 987 l 465 533 z "},"Φ":{"ha":1022,"x_min":36,"x_max":1034,"o":"m 690 851 q 942 741 850 840 q 1012 488 1034 642 q 870 236 987 330 q 582 132 753 142 l 562 0 l 364 0 l 384 132 q 129 239 221 142 q 59 487 36 336 q 201 745 83 649 q 492 851 319 842 l 512 987 l 710 987 l 690 851 m 253 487 q 280 351 239 398 q 405 299 321 303 l 409 300 l 467 682 l 463 684 q 323 626 381 678 q 253 487 265 574 m 817 488 q 791 630 831 580 q 669 684 751 680 l 665 683 l 607 301 l 611 299 q 747 355 691 305 q 817 488 804 405 z "},"Χ":{"ha":884,"x_min":-33,"x_max":949,"o":"m 481 637 l 719 987 l 949 987 l 583 498 l 819 0 l 579 0 l 442 356 l 198 0 l -33 0 l 342 498 l 122 987 l 351 987 l 481 637 z "},"Ψ":{"ha":1006,"x_min":52,"x_max":1058,"o":"m 607 395 l 610 393 q 739 466 688 404 q 807 637 790 528 l 859 987 l 1058 987 l 1006 637 q 866 351 978 453 q 583 233 753 248 l 548 0 l 351 0 l 385 232 q 138 354 223 248 q 79 637 52 460 l 132 987 l 329 987 l 277 637 q 294 465 260 526 q 406 393 328 404 l 410 393 l 498 987 l 696 987 l 607 395 z "},"Ω":{"ha":933,"x_min":31,"x_max":911,"o":"m 456 83 l 462 121 l 467 154 l 468 157 q 583 268 534 179 q 656 518 631 357 l 666 582 q 650 782 686 716 q 532 847 615 847 q 398 778 455 847 q 322 582 341 709 l 313 518 q 310 264 287 350 q 397 157 334 179 l 391 121 l 373 0 l 31 0 l 54 154 l 224 154 q 114 312 151 215 q 94 518 77 408 l 103 581 q 257 887 132 773 q 556 1002 381 1002 q 817 883 723 1002 q 884 581 911 764 l 875 518 q 793 309 857 405 q 639 154 729 214 l 810 154 l 787 0 l 444 0 l 456 83 z "},"Ϊ":{"ha":408,"x_min":47,"x_max":587,"o":"m 248 0 l 50 0 l 198 987 l 396 987 l 248 0 m 567 1086 l 387 1086 l 406 1224 l 587 1224 l 567 1086 m 228 1086 l 47 1086 l 67 1224 l 248 1224 l 228 1086 z "},"Ϋ":{"ha":884,"x_min":100,"x_max":970,"o":"m 465 533 l 469 532 l 753 987 l 970 987 l 536 348 l 484 0 l 286 0 l 339 357 l 100 987 l 317 987 l 465 533 m 808 1086 l 628 1086 l 648 1224 l 828 1224 l 808 1086 m 469 1086 l 289 1086 l 309 1224 l 489 1224 l 469 1086 z "},"ά":{"ha":783,"x_min":23,"x_max":753,"o":"m 753 733 l 677 220 q 680 159 670 176 q 713 142 689 142 q 728 143 722 142 q 742 147 734 144 l 737 5 q 690 -10 712 -6 q 639 -14 667 -14 q 538 12 578 -14 q 482 92 497 39 q 392 13 442 40 q 279 -14 341 -14 q 86 86 149 -14 q 47 347 23 186 l 50 361 q 166 644 76 541 q 394 747 256 747 q 492 719 451 747 q 559 640 534 691 l 606 733 l 753 733 m 245 347 q 254 192 230 246 q 351 138 278 138 q 421 154 390 138 q 476 201 453 170 q 477 212 477 208 q 479 220 477 216 l 525 532 q 486 578 511 562 q 422 595 460 595 q 308 529 353 595 q 248 361 262 463 l 245 347 m 486 1021 l 669 1021 l 671 1018 l 512 829 l 416 829 l 486 1021 z "},"έ":{"ha":773,"x_min":26,"x_max":754,"o":"m 41 208 q 93 315 51 272 q 206 379 134 357 q 123 444 151 404 q 103 533 96 485 q 215 693 119 639 q 463 747 312 747 q 672 686 590 747 q 736 527 754 625 l 734 523 l 543 523 q 517 582 548 561 q 431 603 486 603 q 338 578 374 603 q 298 519 303 553 q 320 459 292 480 q 408 439 348 439 l 534 439 l 528 399 l 515 311 l 389 311 q 287 289 326 311 q 241 220 248 267 q 266 156 235 182 q 360 130 296 130 q 462 155 421 130 q 509 217 503 180 l 699 217 l 700 213 q 585 42 686 98 q 349 -14 483 -14 q 116 46 205 -14 q 41 208 26 106 m 463 1021 l 646 1021 l 648 1017 l 489 829 l 393 829 l 463 1021 z "},"ή":{"ha":784,"x_min":18,"x_max":747,"o":"m 212 391 l 210 395 q 320 650 231 553 q 532 747 408 747 q 694 676 641 747 q 724 450 747 605 l 614 -281 l 416 -281 l 525 449 q 515 563 537 531 q 437 595 493 595 q 302 537 357 595 q 234 392 247 479 l 212 391 m 296 531 l 216 0 l 18 0 l 128 734 l 313 734 l 307 635 l 303 577 l 296 531 m 457 1021 l 641 1021 l 642 1018 l 484 829 l 387 829 l 457 1021 z "},"ί":{"ha":462,"x_min":54,"x_max":450,"o":"m 347 733 l 269 218 q 275 156 262 172 q 319 140 288 140 q 351 142 338 140 q 388 152 363 144 l 387 9 q 323 -9 353 -4 q 256 -14 294 -14 q 104 44 154 -14 q 72 220 54 103 l 149 733 l 347 733 m 265 1006 l 449 1006 l 450 1003 l 292 814 l 195 814 l 265 1006 z "},"ΰ":{"ha":784,"x_min":45,"x_max":756,"o":"m 330 734 l 268 319 q 280 178 252 218 q 366 138 307 138 q 479 211 433 138 q 539 384 524 283 q 545 558 550 470 q 523 734 541 646 l 711 734 q 743 575 735 663 q 736 384 751 488 q 616 91 708 196 q 350 -14 524 -14 q 123 69 200 -14 q 71 320 45 153 l 132 734 l 330 734 m 736 806 l 564 806 l 584 945 l 756 945 l 736 806 m 363 806 l 192 806 l 212 945 l 384 945 l 363 806 m 492 1149 l 684 1149 l 536 960 l 435 960 l 492 1149 z "},"α":{"ha":783,"x_min":23,"x_max":753,"o":"m 753 733 l 677 220 q 680 159 670 176 q 713 142 689 142 q 728 143 722 142 q 742 147 734 144 l 737 5 q 690 -10 712 -6 q 639 -14 667 -14 q 538 12 578 -14 q 482 92 497 39 q 392 13 442 40 q 279 -14 341 -14 q 86 86 149 -14 q 47 347 23 186 l 50 361 q 166 644 76 541 q 394 747 256 747 q 492 719 451 747 q 559 640 534 691 l 606 733 l 753 733 m 245 347 q 254 192 230 246 q 351 138 278 138 q 421 154 390 138 q 476 201 453 170 q 477 212 477 208 q 479 220 477 216 l 525 532 q 486 578 511 562 q 422 595 460 595 q 308 529 353 595 q 248 361 262 463 l 245 347 z "},"β":{"ha":836,"x_min":1,"x_max":818,"o":"m 522 1002 q 740 929 662 1002 q 800 734 818 857 q 746 609 789 664 q 638 523 704 554 q 751 430 715 492 q 774 281 787 367 q 661 61 752 136 q 428 -14 570 -14 q 332 -1 380 -14 q 245 39 283 12 l 199 -273 l 1 -273 l 148 703 q 274 920 168 839 q 522 1002 381 1002 m 391 443 l 397 486 l 406 547 l 412 583 l 456 583 q 553 618 517 583 q 600 721 589 654 q 582 812 608 776 q 498 849 557 849 q 398 808 443 849 q 345 703 354 768 l 266 177 q 325 148 289 157 q 406 138 360 138 q 519 179 471 138 q 577 283 568 220 q 557 401 588 359 q 456 443 526 443 l 391 443 z "},"γ":{"ha":709,"x_min":66,"x_max":755,"o":"m 548 734 l 755 734 l 401 11 l 357 -283 l 159 -283 l 203 14 l 66 734 l 273 734 l 328 273 l 330 206 l 334 205 l 358 273 l 548 734 z "},"δ":{"ha":784,"x_min":18,"x_max":758,"o":"m 758 987 l 735 836 l 461 836 l 459 831 l 606 704 q 716 562 677 645 q 740 374 755 479 l 738 359 q 606 87 711 188 q 336 -14 500 -14 q 99 86 179 -14 q 43 342 18 186 l 45 356 q 152 589 66 497 q 357 702 238 681 l 363 703 l 365 707 l 191 867 l 209 987 l 758 987 m 426 595 q 305 532 352 595 q 245 374 258 469 l 243 359 q 253 197 227 256 q 358 138 279 138 q 478 199 431 138 q 540 359 525 261 l 542 374 q 530 535 556 475 q 426 595 504 595 z "},"ε":{"ha":773,"x_min":26,"x_max":754,"o":"m 41 208 q 93 315 51 272 q 206 379 134 357 q 123 444 151 404 q 103 533 96 485 q 215 693 119 639 q 463 747 312 747 q 672 686 590 747 q 736 527 754 625 l 734 523 l 543 523 q 517 582 548 561 q 431 603 486 603 q 338 578 374 603 q 298 519 303 553 q 320 459 292 480 q 408 439 348 439 l 534 439 l 528 399 l 515 311 l 389 311 q 287 289 326 311 q 241 220 248 267 q 266 156 235 182 q 360 130 296 130 q 462 155 421 130 q 509 217 503 180 l 699 217 l 700 213 q 585 42 686 98 q 349 -14 483 -14 q 116 46 205 -14 q 41 208 26 106 z "},"ζ":{"ha":701,"x_min":47,"x_max":750,"o":"m 750 987 l 734 882 l 446 589 q 318 436 359 500 q 264 286 277 372 q 281 182 254 214 q 379 150 309 150 l 416 150 q 563 100 511 150 q 602 -40 615 50 q 517 -193 588 -125 q 342 -290 447 -261 l 296 -159 q 373 -116 342 -140 q 409 -56 403 -92 q 394 -14 412 -28 q 326 0 375 0 l 292 0 q 107 75 167 0 q 64 259 47 151 q 138 459 80 367 q 309 668 195 551 l 472 831 l 471 836 l 122 836 l 144 987 l 750 987 z "},"η":{"ha":784,"x_min":18,"x_max":747,"o":"m 212 391 l 210 395 q 320 650 231 553 q 532 747 408 747 q 694 676 641 747 q 724 450 747 605 l 614 -281 l 416 -281 l 525 449 q 515 563 537 531 q 437 595 493 595 q 302 537 357 595 q 234 392 247 479 l 212 391 m 296 531 l 216 0 l 18 0 l 128 734 l 313 734 l 307 635 l 303 577 l 296 531 z "},"θ":{"ha":820,"x_min":41,"x_max":802,"o":"m 736 357 q 604 81 709 177 q 347 -14 500 -14 q 121 86 201 -14 q 68 357 41 186 l 109 629 q 240 905 136 809 q 498 1002 345 1002 q 723 901 644 1002 q 777 629 802 800 l 736 357 m 548 422 l 275 422 l 262 338 q 275 188 247 237 q 370 138 303 138 q 476 190 432 138 q 536 338 521 242 l 548 422 m 297 570 l 570 570 l 583 650 q 569 799 597 748 q 475 849 541 849 q 368 796 412 849 q 309 650 323 743 l 297 570 z "},"ι":{"ha":462,"x_min":54,"x_max":388,"o":"m 347 733 l 269 218 q 275 156 262 172 q 319 140 288 140 q 351 142 338 140 q 388 152 363 144 l 387 9 q 323 -9 353 -4 q 256 -14 294 -14 q 104 44 154 -14 q 72 220 54 103 l 149 733 l 347 733 z "},"κ":{"ha":821,"x_min":33,"x_max":836,"o":"m 351 275 l 272 275 l 231 0 l 33 0 l 143 734 l 341 734 l 299 454 l 359 454 l 589 734 l 834 734 l 836 730 l 527 390 l 741 0 l 487 0 l 351 275 z "},"λ":{"ha":747,"x_min":-46,"x_max":743,"o":"m 168 0 l -46 0 l 317 718 l 291 791 q 257 852 280 829 q 197 876 233 876 q 174 875 189 876 q 152 872 159 873 l 169 1014 q 220 1025 198 1021 q 269 1029 243 1029 q 419 975 371 1029 q 486 844 468 920 l 641 234 q 664 175 648 198 q 708 147 681 152 q 724 146 715 146 q 743 146 732 146 l 708 -2 q 662 -8 685 -6 q 617 -8 640 -9 q 491 60 532 -2 q 433 211 450 122 l 376 477 l 372 477 l 354 422 l 168 0 z "},"μ":{"ha":857,"x_min":-2,"x_max":805,"o":"m 347 734 l 281 294 q 295 170 270 201 q 380 140 320 140 q 468 159 431 140 q 530 216 505 179 l 607 734 l 805 734 l 695 0 l 511 0 l 513 43 q 439 0 479 14 q 353 -14 399 -14 q 291 -7 319 -14 q 240 16 262 1 l 195 -282 l -2 -282 l 150 734 l 347 734 z "},"ν":{"ha":709,"x_min":66,"x_max":755,"o":"m 328 273 l 330 206 l 334 205 l 358 273 l 548 734 l 755 734 l 395 0 l 206 0 l 66 734 l 273 734 l 328 273 z "},"ξ":{"ha":744,"x_min":37,"x_max":759,"o":"m 759 987 l 736 830 l 547 830 q 432 798 475 828 q 382 721 389 768 q 406 640 374 668 q 516 611 438 611 l 618 611 l 611 560 l 602 502 l 595 454 l 498 454 q 331 409 395 454 q 255 282 267 365 q 282 180 245 218 q 395 143 319 143 l 477 143 q 630 95 576 143 q 670 -45 684 47 q 587 -205 654 -140 q 409 -304 520 -271 l 371 -187 q 446 -144 414 -169 q 484 -79 478 -120 q 471 -31 489 -47 q 408 -14 452 -14 l 360 -14 q 122 65 208 -14 q 58 285 37 145 q 132 441 72 379 q 295 533 193 503 q 202 597 233 557 q 180 691 172 637 q 215 773 187 739 q 290 827 243 808 l 288 830 l 153 830 l 176 987 l 759 987 z "},"ο":{"ha":784,"x_min":20,"x_max":764,"o":"m 47 374 q 179 646 73 544 q 448 747 285 747 q 684 642 605 747 q 740 374 764 536 l 738 359 q 606 87 711 188 q 336 -14 500 -14 q 100 91 179 -14 q 45 359 20 197 l 47 374 m 243 359 q 253 197 227 256 q 358 138 279 138 q 478 199 431 138 q 540 359 525 261 l 542 374 q 530 535 556 475 q 426 595 504 595 q 305 532 352 595 q 245 374 258 469 l 243 359 z "},"π":{"ha":920,"x_min":87,"x_max":885,"o":"m 863 589 l 732 589 l 677 218 q 683 156 670 172 q 727 140 695 140 q 758 142 745 140 q 795 152 771 144 l 794 9 q 731 -9 760 -4 q 664 -14 701 -14 q 511 44 562 -14 q 479 220 461 103 l 534 589 l 393 589 l 304 0 l 106 0 l 195 589 l 87 589 l 109 734 l 885 734 l 863 589 z "},"ρ":{"ha":784,"x_min":-20,"x_max":762,"o":"m 734 347 q 621 82 709 178 q 396 -14 532 -14 q 299 8 340 -14 q 230 71 257 30 l 177 -282 l -20 -282 l 81 391 q 209 652 105 557 q 469 747 313 747 q 690 640 618 747 q 736 361 762 532 l 734 347 m 539 361 q 532 532 555 469 q 437 595 509 595 q 332 531 375 595 q 275 376 289 468 l 275 375 l 275 375 l 250 201 q 292 154 263 170 q 367 138 321 138 q 479 195 436 138 q 537 347 522 252 l 539 361 z "},"ς":{"ha":713,"x_min":18,"x_max":715,"o":"m 439 747 q 643 671 570 747 q 694 466 715 595 l 692 463 l 511 463 q 497 558 520 522 q 416 595 473 595 q 300 532 344 595 q 242 376 256 469 l 239 356 q 261 212 224 260 q 395 149 297 163 q 572 85 519 129 q 610 -49 624 42 q 526 -201 596 -134 q 351 -298 455 -269 l 304 -168 q 381 -124 351 -148 q 417 -65 411 -101 q 398 -22 420 -37 q 322 2 375 -7 q 88 116 157 26 q 41 356 18 205 l 44 376 q 173 645 69 543 q 439 747 277 747 z "},"σ":{"ha":795,"x_min":19,"x_max":835,"o":"m 812 581 l 637 581 q 710 475 686 536 q 724 346 734 414 l 722 332 q 596 81 699 176 q 335 -14 493 -14 q 98 91 178 -14 q 44 359 19 196 l 46 374 q 176 636 70 538 q 446 734 281 734 l 835 734 l 812 581 m 242 359 q 252 197 226 256 q 357 138 279 138 q 470 199 426 138 q 529 359 514 261 l 531 374 q 520 524 545 468 q 422 581 495 581 q 303 522 349 581 q 244 374 257 463 l 242 359 z "},"τ":{"ha":730,"x_min":68,"x_max":755,"o":"m 732 583 l 496 583 l 410 0 l 212 0 l 298 583 l 68 583 l 90 734 l 755 734 l 732 583 z "},"υ":{"ha":784,"x_min":45,"x_max":751,"o":"m 330 734 l 268 319 q 280 178 252 218 q 366 138 307 138 q 479 211 433 138 q 539 384 524 283 q 545 558 550 470 q 523 734 541 646 l 711 734 q 743 575 735 663 q 736 384 751 488 q 616 91 708 196 q 350 -14 524 -14 q 123 69 200 -14 q 71 320 45 153 l 132 734 l 330 734 z "},"φ":{"ha":1037,"x_min":18,"x_max":1014,"o":"m 667 734 q 927 621 840 734 q 993 364 1014 508 q 864 110 969 210 q 555 -9 758 9 l 508 -324 l 311 -324 l 358 -7 q 95 131 172 18 q 42 401 18 244 q 93 584 57 503 q 179 734 129 665 l 363 734 q 284 563 315 645 q 240 401 252 481 q 256 236 224 300 q 378 153 287 172 l 382 154 l 469 734 l 667 734 m 795 364 q 770 518 808 458 q 647 576 732 579 l 643 575 l 579 153 l 583 151 q 729 224 677 166 q 795 364 782 281 z "},"χ":{"ha":747,"x_min":-53,"x_max":793,"o":"m 170 745 q 321 689 273 745 q 388 559 370 634 l 415 461 l 419 460 l 593 734 l 793 734 l 477 240 l 558 -50 q 583 -108 566 -85 q 625 -136 599 -131 q 641 -138 633 -138 q 661 -138 650 -138 l 625 -287 q 580 -293 604 -292 q 534 -292 557 -294 q 423 -224 460 -286 q 367 -73 387 -163 l 340 20 l 336 20 l 143 -282 l -53 -282 l 279 239 l 203 507 q 166 569 194 546 q 99 592 138 592 q 76 591 91 592 q 54 588 62 589 l 71 730 q 121 741 98 736 q 170 745 144 745 z "},"ψ":{"ha":1035,"x_min":24,"x_max":1010,"o":"m 665 734 l 578 156 l 582 154 q 729 240 675 174 q 799 401 784 307 q 802 564 809 481 q 774 734 795 646 l 958 734 q 999 584 987 667 q 996 401 1010 500 q 863 122 970 232 q 553 -9 757 12 l 507 -324 l 309 -324 l 356 -7 q 107 117 189 16 q 52 400 24 218 l 102 734 l 300 734 l 250 398 q 267 226 233 284 q 376 154 302 168 l 380 155 l 467 734 l 665 734 z "},"ω":{"ha":1194,"x_min":31,"x_max":1158,"o":"m 403 734 q 308 557 346 645 q 255 384 270 470 q 256 205 238 273 q 337 138 273 138 q 431 185 390 138 q 488 332 473 232 l 523 567 l 732 567 l 697 332 q 706 182 681 227 q 788 138 732 138 q 888 208 848 138 q 945 384 928 279 q 943 558 955 471 q 901 734 932 646 l 1090 734 q 1142 576 1126 664 q 1142 384 1158 488 q 1026 91 1114 196 q 773 -14 939 -14 q 643 23 697 -14 q 564 132 589 60 q 454 22 519 59 q 308 -14 389 -14 q 90 96 150 -14 q 58 384 31 205 q 115 577 74 492 q 214 734 156 662 l 403 734 z "},"ϊ":{"ha":462,"x_min":11,"x_max":550,"o":"m 347 733 l 269 218 q 275 156 262 172 q 319 140 288 140 q 351 142 338 140 q 388 152 363 144 l 387 9 q 323 -9 353 -4 q 256 -14 294 -14 q 104 44 154 -14 q 72 220 54 103 l 149 733 l 347 733 m 530 852 l 350 852 l 370 991 l 550 991 l 530 852 m 191 852 l 11 852 l 31 991 l 211 991 l 191 852 z "},"ϋ":{"ha":784,"x_min":45,"x_max":753,"o":"m 330 734 l 268 319 q 280 178 252 218 q 366 138 307 138 q 479 211 433 138 q 539 384 524 283 q 545 558 550 470 q 523 734 541 646 l 711 734 q 743 575 735 663 q 736 384 751 488 q 616 91 708 196 q 350 -14 524 -14 q 123 69 200 -14 q 71 320 45 153 l 132 734 l 330 734 m 733 853 l 553 853 l 572 991 l 753 991 l 733 853 m 394 853 l 214 853 l 233 991 l 414 991 l 394 853 z "},"ό":{"ha":784,"x_min":20,"x_max":764,"o":"m 47 374 q 179 646 73 544 q 448 747 285 747 q 684 642 605 747 q 740 374 764 536 l 738 359 q 606 87 711 188 q 336 -14 500 -14 q 100 91 179 -14 q 45 359 20 197 l 47 374 m 243 359 q 253 197 227 256 q 358 138 279 138 q 478 199 431 138 q 540 359 525 261 l 542 374 q 530 535 556 475 q 426 595 504 595 q 305 532 352 595 q 245 374 258 469 l 243 359 m 457 1021 l 641 1021 l 642 1018 l 484 829 l 387 829 l 457 1021 z "},"ύ":{"ha":784,"x_min":45,"x_max":751,"o":"m 330 734 l 268 319 q 280 178 252 218 q 366 138 307 138 q 479 211 433 138 q 539 384 524 283 q 545 558 550 470 q 523 734 541 646 l 711 734 q 743 575 735 663 q 736 384 751 488 q 616 91 708 196 q 350 -14 524 -14 q 123 69 200 -14 q 71 320 45 153 l 132 734 l 330 734 m 469 1007 l 652 1007 l 654 1004 l 495 815 l 399 815 l 469 1007 z "},"ώ":{"ha":1194,"x_min":31,"x_max":1158,"o":"m 403 734 q 308 557 346 645 q 255 384 270 470 q 256 205 238 273 q 337 138 273 138 q 431 185 390 138 q 488 332 473 232 l 523 567 l 732 567 l 697 332 q 706 182 681 227 q 788 138 732 138 q 888 208 848 138 q 945 384 928 279 q 943 558 955 471 q 901 734 932 646 l 1090 734 q 1142 576 1126 664 q 1142 384 1158 488 q 1026 91 1114 196 q 773 -14 939 -14 q 643 23 697 -14 q 564 132 589 60 q 454 22 519 59 q 308 -14 389 -14 q 90 96 150 -14 q 58 384 31 205 q 115 577 74 492 q 214 734 156 662 l 403 734 m 660 1007 l 844 1007 l 845 1004 l 686 815 l 590 815 l 660 1007 z "},"ϑ":{"ha":947,"x_min":58,"x_max":959,"o":"m 414 656 l 425 726 q 530 926 444 850 q 729 1002 616 1002 q 903 931 846 1002 q 939 726 959 860 l 886 377 q 731 94 860 202 q 431 -14 603 -14 q 154 94 250 -14 q 85 377 58 202 l 156 849 l 365 850 l 294 377 q 323 210 279 275 q 455 144 368 144 q 601 202 543 144 q 677 369 659 260 q 470 456 545 378 q 414 656 395 535 l 414 656 m 734 745 q 729 811 740 788 q 692 833 718 833 q 643 811 663 833 q 616 745 623 789 l 602 655 q 619 561 593 600 q 695 517 645 522 l 699 517 l 734 745 z "},"ϒ":{"ha":815,"x_min":79,"x_max":918,"o":"m 590 816 q 705 962 647 920 q 850 1004 762 1004 q 888 1001 871 1004 q 918 991 905 998 l 880 840 q 865 842 877 841 q 846 844 853 844 q 799 826 822 844 q 760 779 777 808 l 498 323 l 450 0 l 252 0 l 302 332 l 179 779 q 154 826 170 808 q 113 844 138 844 q 93 842 105 844 q 79 840 80 841 l 85 991 q 117 1001 100 998 q 157 1004 134 1004 q 289 963 242 1004 q 361 821 336 922 l 422 559 l 426 499 l 430 498 l 452 559 l 590 816 z "},"ϖ":{"ha":1150,"x_min":34,"x_max":1200,"o":"m 1182 610 l 1092 610 q 1104 503 1103 559 q 1097 384 1106 446 q 986 91 1069 196 q 749 -14 903 -14 q 621 23 673 -14 q 544 132 568 60 q 435 22 499 59 q 290 -14 370 -14 q 89 96 143 -14 q 61 384 34 205 q 89 504 71 448 q 134 610 107 560 l 50 610 l 68 734 l 1200 734 l 1182 610 m 900 384 q 904 497 906 440 q 892 610 902 553 l 334 610 q 287 497 307 553 q 258 384 268 440 q 254 206 241 273 q 318 142 266 139 l 322 142 q 412 185 371 138 q 468 332 452 231 l 488 471 l 696 471 l 676 332 q 685 182 660 227 q 764 138 709 138 q 849 208 814 138 q 900 384 884 278 z "},"Ѐ":{"ha":772,"x_min":37,"x_max":817,"o":"m 666 434 l 300 434 l 257 152 l 693 152 l 670 0 l 37 0 l 184 987 l 817 987 l 794 835 l 359 835 l 322 587 l 689 587 l 666 434 m 606 1085 l 435 1085 l 276 1262 l 277 1265 l 498 1265 l 606 1085 z "},"Ё":{"ha":772,"x_min":37,"x_max":817,"o":"m 666 434 l 300 434 l 257 152 l 693 152 l 670 0 l 37 0 l 184 987 l 817 987 l 794 835 l 359 835 l 322 587 l 689 587 l 666 434 m 770 1086 l 590 1086 l 610 1224 l 790 1224 l 770 1086 m 431 1086 l 251 1086 l 271 1224 l 451 1224 l 431 1086 z "},"Ђ":{"ha":1058,"x_min":106,"x_max":1040,"o":"m 864 835 l 581 835 l 549 622 l 669 622 q 941 536 842 622 q 1017 292 1040 450 q 925 109 1004 201 q 718 -22 846 17 l 653 106 q 767 181 725 136 q 819 292 808 226 q 786 424 832 380 q 645 467 741 467 l 526 467 l 456 0 l 258 0 l 383 835 l 106 835 l 128 987 l 886 987 l 864 835 z "},"Ѓ":{"ha":771,"x_min":35,"x_max":827,"o":"m 804 835 l 359 835 l 233 0 l 35 0 l 183 987 l 827 987 l 804 835 m 580 1265 l 800 1265 l 801 1261 l 588 1085 l 424 1085 l 422 1088 l 580 1265 z "},"Є":{"ha":875,"x_min":57,"x_max":918,"o":"m 837 328 l 838 323 q 706 73 817 159 q 418 -14 595 -14 q 152 102 248 -14 q 84 396 57 217 l 113 592 q 263 891 141 779 q 561 1002 386 1002 q 826 913 734 1002 q 891 666 918 824 l 889 662 l 696 662 q 673 805 711 760 q 538 850 634 850 q 390 777 452 850 q 311 593 328 705 l 307 572 l 600 572 l 577 419 l 285 419 l 281 396 q 306 208 264 278 q 441 138 347 138 q 579 185 527 138 q 646 328 631 233 l 837 328 z "},"Ѕ":{"ha":859,"x_min":22,"x_max":867,"o":"m 590 258 q 565 351 599 317 q 435 414 531 384 q 193 536 271 466 q 134 726 115 606 q 262 927 152 852 q 529 1002 372 1002 q 777 918 687 1002 q 844 702 867 834 l 843 698 l 650 698 q 624 813 662 774 q 503 851 585 851 q 386 815 433 851 q 332 726 339 780 q 361 643 323 673 q 502 575 399 612 q 732 455 658 529 q 788 259 806 380 q 660 56 768 127 q 387 -14 551 -14 q 127 66 233 -14 q 50 302 22 146 l 51 306 l 243 306 q 274 175 229 215 q 409 136 319 136 q 533 169 485 136 q 590 258 581 203 z "},"І":{"ha":408,"x_min":50,"x_max":396,"o":"m 248 0 l 50 0 l 198 987 l 396 987 l 248 0 z "},"Ї":{"ha":408,"x_min":47,"x_max":587,"o":"m 248 0 l 50 0 l 198 987 l 396 987 l 248 0 m 567 1086 l 387 1086 l 406 1224 l 587 1224 l 567 1086 m 228 1086 l 47 1086 l 67 1224 l 248 1224 l 228 1086 z "},"Ј":{"ha":771,"x_min":-11,"x_max":775,"o":"m 578 987 l 775 987 l 673 306 q 549 70 650 153 q 304 -14 448 -14 q 71 64 153 -14 q 14 288 -11 142 l 16 292 l 208 292 q 228 174 195 210 q 327 138 260 138 q 421 183 379 138 q 476 306 464 229 l 578 987 z "},"Љ":{"ha":1471,"x_min":-26,"x_max":1443,"o":"m 983 987 l 931 642 l 1101 642 q 1353 551 1263 642 q 1423 321 1443 460 q 1288 87 1400 174 q 1004 0 1176 0 l 637 0 l 762 835 l 500 835 l 456 538 q 302 121 411 241 q 3 0 194 0 l -26 0 l -3 152 l 24 152 q 174 237 123 152 q 258 538 225 323 l 325 987 l 983 987 m 908 490 l 858 152 l 1027 152 q 1161 202 1107 152 q 1225 323 1215 252 q 1198 442 1236 395 q 1078 490 1161 490 l 908 490 z "},"Њ":{"ha":1470,"x_min":36,"x_max":1442,"o":"m 319 570 l 721 570 l 784 987 l 982 987 l 928 630 l 1098 630 q 1352 542 1261 630 q 1422 316 1442 454 q 1288 86 1400 172 q 1004 0 1175 0 l 636 0 l 699 418 l 296 418 l 234 0 l 36 0 l 184 987 l 382 987 l 319 570 m 905 477 l 857 155 l 1027 155 q 1160 202 1106 155 q 1224 317 1213 250 q 1197 432 1234 387 q 1076 477 1160 477 l 905 477 z "},"Ћ":{"ha":1108,"x_min":117,"x_max":1045,"o":"m 875 835 l 592 835 l 566 663 l 699 663 q 958 583 871 663 q 1021 338 1045 502 l 970 0 l 772 0 l 823 338 q 804 475 838 439 q 676 511 771 511 l 543 511 l 467 0 l 269 0 l 394 835 l 117 835 l 139 987 l 897 987 l 875 835 z "},"Ќ":{"ha":885,"x_min":33,"x_max":926,"o":"m 363 410 l 293 410 l 232 0 l 33 0 l 181 987 l 380 987 l 319 584 l 389 584 l 667 987 l 926 987 l 539 494 l 791 0 l 564 0 l 363 410 m 566 1206 l 785 1206 l 787 1202 l 574 1025 l 410 1025 l 408 1029 l 566 1206 z "},"Ѝ":{"ha":970,"x_min":30,"x_max":976,"o":"m 778 987 l 976 987 l 828 0 l 630 0 l 728 659 l 725 660 l 227 0 l 30 0 l 178 987 l 375 987 l 277 329 l 280 328 l 778 987 m 682 1085 l 511 1085 l 352 1262 l 353 1265 l 574 1265 l 682 1085 z "},"Ў":{"ha":888,"x_min":41,"x_max":964,"o":"m 460 549 l 469 489 l 473 488 l 755 987 l 964 987 l 484 187 q 359 39 428 92 q 182 -14 291 -14 q 111 -7 143 -14 q 41 14 79 0 l 85 155 q 137 142 114 146 q 183 138 159 138 q 272 162 237 138 q 330 233 307 186 l 351 271 l 110 987 l 323 987 l 460 549 m 806 1286 l 806 1282 q 727 1139 797 1192 q 549 1086 656 1086 q 387 1141 445 1086 q 345 1282 329 1196 l 346 1286 l 491 1286 q 503 1226 485 1249 q 565 1204 520 1204 q 631 1227 606 1204 q 661 1286 655 1251 l 806 1286 z "},"Џ":{"ha":970,"x_min":27,"x_max":973,"o":"m 175 987 l 372 987 l 248 152 l 650 152 l 775 987 l 973 987 l 825 0 l 533 0 l 497 -244 l 299 -244 l 335 0 l 27 0 l 175 987 z "},"А":{"ha":884,"x_min":-42,"x_max":825,"o":"m 584 213 l 263 213 l 165 0 l -42 0 l 439 987 l 642 987 l 825 0 l 618 0 l 584 213 m 336 368 l 558 368 l 502 717 l 498 718 l 336 368 z "},"Б":{"ha":870,"x_min":35,"x_max":842,"o":"m 804 835 l 359 835 l 330 640 l 499 640 q 752 550 663 640 q 822 321 842 460 q 687 87 800 174 q 403 0 574 0 l 35 0 l 183 987 l 827 987 l 804 835 m 307 488 l 298 431 l 256 152 l 426 152 q 559 202 505 152 q 625 323 614 252 q 597 441 635 394 q 476 488 560 488 l 307 488 z "},"В":{"ha":885,"x_min":37,"x_max":857,"o":"m 37 0 l 184 987 l 508 987 q 766 919 675 987 q 838 717 857 850 q 784 594 826 646 q 671 515 742 541 q 796 434 760 497 q 821 288 832 371 q 695 70 798 140 q 418 0 592 0 l 37 0 m 300 437 l 257 152 l 441 152 q 565 186 517 152 q 623 288 613 221 q 600 399 633 362 q 482 437 566 437 l 300 437 m 321 574 l 460 574 q 581 608 534 575 q 637 701 627 642 q 610 804 648 772 q 486 835 572 835 l 360 835 l 321 574 z "},"Г":{"ha":771,"x_min":35,"x_max":827,"o":"m 804 835 l 359 835 l 233 0 l 35 0 l 183 987 l 827 987 l 804 835 z "},"Д":{"ha":994,"x_min":-81,"x_max":975,"o":"m 908 -243 l 710 -243 l 747 0 l 153 0 l 116 -243 l -81 -243 l -22 152 l 36 152 q 161 257 110 152 q 256 583 213 361 l 338 987 l 975 987 l 850 152 l 968 152 l 908 -243 m 454 583 q 384 332 425 439 q 291 152 344 224 l 652 152 l 755 835 l 505 835 l 454 583 z "},"Е":{"ha":772,"x_min":37,"x_max":817,"o":"m 666 434 l 300 434 l 257 152 l 693 152 l 670 0 l 37 0 l 184 987 l 817 987 l 794 835 l 359 835 l 322 587 l 689 587 l 666 434 z "},"Ж":{"ha":1268,"x_min":-50,"x_max":1341,"o":"m 807 412 l 744 412 l 682 0 l 485 0 l 547 412 l 481 412 l 197 0 l -50 0 l 341 532 l 114 987 l 359 987 l 522 584 l 572 584 l 633 987 l 830 987 l 770 584 l 817 584 l 1097 987 l 1341 987 l 982 533 l 1209 0 l 963 0 l 807 412 z "},"З":{"ha":912,"x_min":24,"x_max":905,"o":"m 351 578 l 485 578 q 626 615 574 578 q 688 717 678 652 q 653 812 696 776 q 515 849 610 849 q 388 813 444 849 q 324 722 332 777 l 133 722 l 132 726 q 264 928 147 854 q 538 1002 380 1002 q 809 928 712 1002 q 886 720 905 854 q 823 592 875 648 q 688 505 771 536 q 808 417 770 475 q 835 277 847 359 q 691 60 813 135 q 385 -14 569 -14 q 130 59 235 -14 q 50 270 24 132 l 51 274 l 243 274 q 280 176 234 214 q 408 138 326 138 q 564 178 500 138 q 637 279 628 218 q 606 394 649 359 q 463 429 562 429 l 329 429 l 345 533 l 351 578 z "},"И":{"ha":970,"x_min":30,"x_max":976,"o":"m 778 987 l 976 987 l 828 0 l 630 0 l 728 659 l 725 660 l 227 0 l 30 0 l 178 987 l 375 987 l 277 329 l 280 328 l 778 987 z "},"Й":{"ha":970,"x_min":30,"x_max":976,"o":"m 778 987 l 976 987 l 828 0 l 630 0 l 728 659 l 725 660 l 227 0 l 30 0 l 178 987 l 375 987 l 277 329 l 280 328 l 778 987 m 846 1286 l 846 1282 q 767 1139 837 1192 q 589 1086 696 1086 q 427 1141 485 1086 q 385 1282 369 1196 l 386 1286 l 531 1286 q 543 1226 525 1249 q 605 1204 560 1204 q 671 1227 646 1204 q 701 1286 695 1251 l 846 1286 z "},"К":{"ha":885,"x_min":33,"x_max":926,"o":"m 363 410 l 293 410 l 232 0 l 33 0 l 181 987 l 380 987 l 319 584 l 389 584 l 667 987 l 926 987 l 539 494 l 791 0 l 564 0 l 363 410 z "},"Л":{"ha":979,"x_min":-26,"x_max":983,"o":"m 983 987 l 835 0 l 637 0 l 762 835 l 481 835 l 437 538 q 289 120 392 240 q 3 0 186 0 l -26 0 l -3 152 l 24 152 q 160 236 114 152 q 239 538 206 321 l 306 987 l 983 987 z "},"М":{"ha":1208,"x_min":37,"x_max":1211,"o":"m 586 260 l 590 259 l 953 987 l 1211 987 l 1063 0 l 865 0 l 966 673 l 962 674 l 617 0 l 483 0 l 340 675 l 336 675 l 235 0 l 37 0 l 184 987 l 444 987 l 586 260 z "},"Н":{"ha":980,"x_min":37,"x_max":983,"o":"m 835 0 l 637 0 l 698 410 l 296 410 l 235 0 l 37 0 l 184 987 l 382 987 l 319 563 l 721 563 l 785 987 l 983 987 l 835 0 z "},"О":{"ha":956,"x_min":45,"x_max":949,"o":"m 897 405 q 737 101 867 216 q 420 -14 606 -14 q 145 105 245 -14 q 73 405 45 225 l 99 583 q 257 886 127 770 q 572 1002 387 1002 q 849 881 749 1002 q 923 583 949 761 l 897 405 m 726 584 q 697 775 743 703 q 548 847 650 847 q 382 772 451 847 q 296 584 313 698 l 270 405 q 296 212 252 283 q 444 140 341 140 q 611 214 541 140 q 699 405 681 289 l 726 584 z "},"П":{"ha":979,"x_min":36,"x_max":983,"o":"m 835 0 l 637 0 l 762 835 l 359 835 l 234 0 l 36 0 l 184 987 l 983 987 l 835 0 z "},"Р":{"ha":885,"x_min":37,"x_max":901,"o":"m 288 358 l 235 0 l 37 0 l 184 987 l 562 987 q 813 900 726 987 q 881 672 901 812 q 749 441 859 525 q 468 358 640 358 l 288 358 m 311 511 l 491 511 q 621 556 570 511 q 683 671 672 602 q 659 790 694 745 q 540 835 624 835 l 360 835 l 311 511 z "},"С":{"ha":884,"x_min":45,"x_max":906,"o":"m 825 327 l 827 323 q 694 72 805 159 q 407 -14 584 -14 q 141 101 236 -14 q 72 395 45 216 l 102 591 q 252 890 130 779 q 549 1002 374 1002 q 814 912 723 1002 q 880 665 906 823 l 878 661 l 685 661 q 661 804 700 760 q 526 849 623 849 q 378 777 441 849 q 299 593 316 704 l 269 395 q 293 208 252 277 q 429 138 335 138 q 567 185 515 138 q 634 327 620 232 l 825 327 z "},"Т":{"ha":797,"x_min":92,"x_max":873,"o":"m 850 835 l 568 835 l 443 0 l 245 0 l 370 835 l 92 835 l 115 987 l 873 987 l 850 835 z "},"У":{"ha":888,"x_min":41,"x_max":964,"o":"m 460 549 l 469 489 l 473 488 l 755 987 l 964 987 l 484 187 q 359 39 428 92 q 182 -14 291 -14 q 111 -7 143 -14 q 41 14 79 0 l 85 155 q 137 142 114 146 q 183 138 159 138 q 272 162 237 138 q 330 233 307 186 l 351 271 l 110 987 l 323 987 l 460 549 z "},"Ф":{"ha":1022,"x_min":36,"x_max":1034,"o":"m 690 851 q 942 741 850 840 q 1012 488 1034 642 q 870 236 987 330 q 582 132 753 142 l 562 0 l 364 0 l 384 132 q 129 239 221 142 q 59 487 36 336 q 201 745 83 649 q 492 851 319 842 l 512 987 l 710 987 l 690 851 m 253 487 q 280 351 239 398 q 405 299 321 303 l 409 300 l 467 682 l 463 684 q 323 626 381 678 q 253 487 265 574 m 817 488 q 791 630 831 580 q 669 684 751 680 l 665 683 l 607 301 l 611 299 q 747 355 691 305 q 817 488 804 405 z "},"Х":{"ha":884,"x_min":-33,"x_max":949,"o":"m 481 637 l 719 987 l 949 987 l 583 498 l 819 0 l 579 0 l 442 356 l 198 0 l -33 0 l 342 498 l 122 987 l 351 987 l 481 637 z "},"Ц":{"ha":1057,"x_min":28,"x_max":982,"o":"m 176 987 l 374 987 l 249 153 l 652 153 l 777 987 l 975 987 l 849 153 l 982 153 l 922 -243 l 724 -243 l 761 0 l 28 0 l 176 987 z "},"Ч":{"ha":963,"x_min":117,"x_max":967,"o":"m 967 987 l 819 0 l 621 0 l 677 380 q 574 364 631 370 q 474 358 518 358 q 208 437 299 358 q 142 680 117 517 l 188 987 l 386 987 l 340 680 q 362 546 325 581 q 497 511 399 511 q 595 516 537 511 q 700 533 654 522 l 768 987 l 967 987 z "},"Ш":{"ha":1437,"x_min":33,"x_max":1446,"o":"m 379 987 l 254 152 l 591 152 l 716 987 l 913 987 l 789 152 l 1123 152 l 1248 987 l 1446 987 l 1298 0 l 33 0 l 181 987 l 379 987 z "},"Щ":{"ha":1543,"x_min":33,"x_max":1472,"o":"m 379 987 l 254 152 l 591 152 l 716 987 l 913 987 l 789 152 l 1123 152 l 1248 987 l 1446 987 l 1319 141 l 1472 141 l 1416 -237 l 1218 -237 l 1253 0 l 33 0 l 181 987 l 379 987 z "},"Ъ":{"ha":1000,"x_min":75,"x_max":953,"o":"m 98 987 l 492 987 l 439 640 l 610 640 q 863 550 773 640 q 932 321 953 460 q 798 87 910 174 q 513 0 685 0 l 146 0 l 271 835 l 75 835 l 98 987 m 417 488 l 367 152 l 536 152 q 670 202 616 152 q 735 323 724 252 q 708 441 745 394 q 587 488 671 488 l 417 488 z "},"Ы":{"ha":1205,"x_min":35,"x_max":1208,"o":"m 329 640 l 499 640 q 752 550 663 640 q 822 321 842 460 q 687 87 800 174 q 403 0 574 0 l 35 0 l 183 987 l 381 987 l 329 640 m 1061 0 l 863 0 l 1010 987 l 1208 987 l 1061 0 m 307 488 l 256 152 l 426 152 q 559 202 505 152 q 625 323 614 252 q 597 441 635 394 q 476 488 560 488 l 307 488 z "},"Ь":{"ha":870,"x_min":35,"x_max":842,"o":"m 329 640 l 499 640 q 752 550 663 640 q 822 321 842 460 q 687 87 800 174 q 403 0 574 0 l 35 0 l 183 987 l 381 987 l 329 640 m 307 488 l 256 152 l 426 152 q 559 202 505 152 q 625 323 614 252 q 597 441 635 394 q 476 488 560 488 l 307 488 z "},"Э":{"ha":873,"x_min":28,"x_max":869,"o":"m 109 661 l 108 665 q 238 916 129 829 q 523 1002 347 1002 q 778 887 688 1002 q 842 592 869 771 l 813 396 q 664 97 785 208 q 370 -14 544 -14 q 115 75 201 -14 q 56 322 28 163 l 58 326 l 250 326 q 269 182 235 227 q 393 138 302 138 q 537 210 477 138 q 614 395 597 282 l 618 424 l 315 424 l 338 576 l 641 576 l 644 592 q 625 780 661 710 q 500 850 588 850 q 365 803 414 850 q 301 661 315 755 l 109 661 z "},"Ю":{"ha":1312,"x_min":50,"x_max":1275,"o":"m 1222 405 q 1062 101 1193 216 q 746 -14 932 -14 q 471 105 570 -14 q 398 405 371 225 l 399 410 l 309 410 l 248 0 l 50 0 l 198 987 l 396 987 l 332 562 l 421 562 l 425 583 q 582 886 452 770 q 897 1002 712 1002 q 1175 881 1074 1002 q 1249 583 1275 761 l 1222 405 m 1051 584 q 1022 775 1069 703 q 873 847 976 847 q 708 772 777 847 q 622 584 639 698 l 595 405 q 622 212 577 283 q 769 140 667 140 q 937 214 867 140 q 1025 405 1006 289 l 1051 584 z "},"Я":{"ha":816,"x_min":-76,"x_max":835,"o":"m 138 0 l -76 0 l 203 440 q 102 542 132 479 q 85 694 72 604 q 217 910 106 832 q 492 987 329 987 l 835 987 l 687 0 l 489 0 l 546 380 l 378 380 l 138 0 m 614 835 l 470 835 q 340 797 387 835 q 282 685 292 758 q 309 570 271 614 q 423 525 347 525 l 568 525 l 614 835 z "},"а":{"ha":746,"x_min":0,"x_max":711,"o":"m 454 0 q 444 53 447 25 q 441 111 440 81 q 347 21 402 56 q 222 -14 292 -14 q 56 46 111 -14 q 16 207 0 106 q 123 376 32 319 q 375 433 214 433 l 486 433 l 495 492 q 480 575 503 547 q 401 603 456 603 q 324 579 355 603 q 288 515 293 556 l 97 515 l 96 519 q 201 682 106 616 q 435 747 296 747 q 637 680 563 747 q 692 490 711 613 l 647 187 q 640 90 639 134 q 652 0 642 45 l 454 0 m 293 132 q 388 158 342 132 q 454 218 433 184 l 469 321 l 358 321 q 259 290 298 321 q 214 214 221 258 q 229 154 208 175 q 293 132 250 132 z "},"б":{"ha":779,"x_min":19,"x_max":818,"o":"m 465 747 q 688 642 613 747 q 739 374 762 536 l 736 359 q 604 87 710 188 q 335 -14 498 -14 q 98 91 178 -14 q 44 359 19 196 l 46 374 l 48 385 l 72 544 q 203 871 106 771 q 478 975 300 970 q 613 996 568 977 q 665 1056 658 1014 l 817 1056 l 818 1052 q 719 868 801 916 q 471 818 637 821 q 313 775 371 816 q 250 665 256 734 l 252 662 q 348 723 291 699 q 465 747 404 747 m 425 595 q 305 532 351 595 q 244 374 258 469 l 242 359 q 252 197 226 256 q 357 138 279 138 q 477 199 431 138 q 539 359 524 261 l 541 374 q 529 535 555 475 q 425 595 503 595 z "},"в":{"ha":784,"x_min":32,"x_max":743,"o":"m 32 0 l 142 734 l 448 734 q 666 682 590 734 q 728 529 743 629 q 680 436 719 475 q 574 376 640 397 q 690 315 654 359 q 718 210 726 270 q 617 51 701 102 q 386 0 533 0 l 32 0 m 276 306 l 252 151 l 408 151 q 487 170 458 151 q 522 227 516 189 q 508 286 528 267 q 432 306 487 306 l 276 306 m 295 435 l 414 435 q 493 453 465 435 q 527 505 522 471 q 508 565 532 547 q 426 583 484 583 l 317 583 l 295 435 z "},"г":{"ha":580,"x_min":18,"x_max":629,"o":"m 606 581 l 303 581 l 216 0 l 18 0 l 128 734 l 629 734 l 606 581 z "},"д":{"ha":926,"x_min":-41,"x_max":850,"o":"m 65 152 l 65 153 l 86 153 q 171 218 138 153 q 233 433 203 283 l 293 734 l 836 734 l 749 152 l 850 152 l 791 -243 l 593 -243 l 629 0 l 193 0 l 157 -243 l -41 -243 l 18 152 l 65 152 m 431 433 q 389 273 412 342 q 336 152 366 203 l 551 152 l 615 576 l 459 576 l 431 433 z "},"е":{"ha":726,"x_min":19,"x_max":718,"o":"m 338 -14 q 100 88 180 -14 q 43 346 19 190 l 47 373 q 177 646 73 544 q 439 747 281 748 q 649 656 581 747 q 694 413 718 564 l 680 311 l 241 311 l 240 307 q 266 183 232 229 q 381 138 300 138 q 496 152 445 138 q 599 193 547 165 l 634 71 q 505 10 584 35 q 338 -14 427 -14 m 416 595 q 320 553 359 595 q 264 446 281 512 l 265 441 l 505 441 l 507 456 q 497 559 517 523 q 416 595 476 595 z "},"ж":{"ha":1126,"x_min":-43,"x_max":1156,"o":"m 703 277 l 648 277 l 606 0 l 410 0 l 451 277 l 397 277 l 211 0 l -43 0 l 257 397 l 79 734 l 329 734 l 439 457 l 478 457 l 519 734 l 716 734 l 675 457 l 716 457 l 908 734 l 1154 734 l 1156 730 l 880 397 l 1059 0 l 806 0 l 703 277 z "},"з":{"ha":773,"x_min":19,"x_max":741,"o":"m 726 533 q 680 441 718 481 q 579 376 641 400 q 670 311 641 354 q 691 208 700 268 q 572 44 675 101 q 319 -14 470 -14 q 106 45 193 -14 q 39 213 19 104 l 41 217 l 232 217 q 257 154 226 178 q 352 129 288 129 q 451 156 412 129 q 496 220 490 183 q 472 291 503 269 q 378 312 442 312 l 258 312 l 264 350 l 270 392 l 271 399 l 277 438 l 397 438 q 487 460 452 438 q 527 519 521 481 q 507 579 532 555 q 422 603 481 603 q 332 581 370 603 q 290 523 295 559 l 99 523 l 98 527 q 204 688 109 629 q 433 747 300 747 q 659 690 576 747 q 726 533 741 634 z "},"и":{"ha":784,"x_min":18,"x_max":767,"o":"m 570 734 l 767 734 l 657 0 l 460 0 l 526 446 l 522 448 l 216 0 l 18 0 l 128 734 l 326 734 l 259 288 l 263 286 l 570 734 z "},"й":{"ha":784,"x_min":18,"x_max":767,"o":"m 570 734 l 767 734 l 657 0 l 460 0 l 526 446 l 522 448 l 216 0 l 18 0 l 128 734 l 326 734 l 259 288 l 263 286 l 570 734 m 720 1053 l 720 1049 q 641 907 711 960 q 463 854 570 854 q 301 909 359 854 q 258 1049 243 964 l 260 1053 l 405 1053 q 416 994 399 1016 q 479 971 434 971 q 545 995 520 971 q 574 1053 569 1018 l 720 1053 z "},"к":{"ha":791,"x_min":33,"x_max":815,"o":"m 349 275 l 272 275 l 231 0 l 33 0 l 143 734 l 341 734 l 299 454 l 359 454 l 568 734 l 814 734 l 815 730 l 525 393 l 730 0 l 467 0 l 349 275 z "},"л":{"ha":779,"x_min":-42,"x_max":767,"o":"m 767 734 l 657 0 l 460 0 l 547 581 l 370 581 l 347 421 q 232 98 313 196 q -10 0 152 0 l -42 0 l -21 156 l 1 157 q 96 214 66 157 q 149 421 126 271 l 195 734 l 767 734 z "},"м":{"ha":1056,"x_min":33,"x_max":1016,"o":"m 500 231 l 504 231 l 768 734 l 1016 734 l 906 0 l 709 0 l 774 437 l 770 439 l 534 0 l 401 0 l 300 429 l 296 429 l 231 0 l 33 0 l 143 734 l 389 734 l 500 231 z "},"н":{"ha":784,"x_min":18,"x_max":766,"o":"m 656 0 l 458 0 l 500 285 l 259 285 l 216 0 l 18 0 l 128 734 l 326 734 l 281 437 l 523 437 l 568 734 l 766 734 l 656 0 z "},"о":{"ha":784,"x_min":20,"x_max":764,"o":"m 47 374 q 179 646 73 544 q 448 747 285 747 q 684 642 605 747 q 740 374 764 536 l 738 359 q 606 87 711 188 q 336 -14 500 -14 q 100 91 179 -14 q 45 359 20 197 l 47 374 m 243 359 q 253 197 227 256 q 358 138 279 138 q 478 199 431 138 q 540 359 525 261 l 542 374 q 530 535 556 475 q 426 595 504 595 q 305 532 352 595 q 245 374 258 469 l 243 359 z "},"п":{"ha":784,"x_min":18,"x_max":767,"o":"m 657 0 l 459 0 l 546 581 l 303 581 l 216 0 l 18 0 l 128 734 l 767 734 l 657 0 z "},"р":{"ha":784,"x_min":-20,"x_max":763,"o":"m 736 347 q 621 82 710 178 q 396 -14 532 -14 q 298 8 340 -14 q 230 75 256 31 l 177 -282 l -20 -282 l 132 734 l 310 734 l 309 647 q 398 722 349 696 q 509 747 448 747 q 701 640 640 747 q 738 361 763 532 l 736 347 m 540 361 q 531 530 555 467 q 434 593 506 593 q 356 574 391 593 q 297 519 321 555 l 249 202 q 292 154 262 170 q 367 138 321 138 q 479 195 436 138 q 538 347 523 252 l 540 361 z "},"с":{"ha":716,"x_min":17,"x_max":714,"o":"m 349 138 q 434 169 398 138 q 479 251 471 200 l 659 251 l 660 247 q 550 59 645 132 q 326 -14 454 -14 q 93 91 170 -14 q 41 356 17 197 l 44 376 q 172 646 69 544 q 439 747 275 747 q 641 669 568 747 q 692 466 714 591 l 691 463 l 510 463 q 495 558 519 521 q 416 595 471 595 q 299 532 342 595 q 242 376 256 470 l 239 356 q 247 196 224 255 q 349 138 270 138 z "},"т":{"ha":726,"x_min":66,"x_max":753,"o":"m 730 583 l 495 583 l 408 0 l 210 0 l 296 583 l 66 583 l 88 734 l 753 734 l 730 583 z "},"у":{"ha":709,"x_min":-32,"x_max":762,"o":"m 332 308 l 334 268 l 338 267 l 549 734 l 762 734 l 338 -110 q 233 -242 295 -189 q 64 -296 171 -296 q 19 -292 40 -296 q -32 -281 -3 -288 l 13 -136 q 31 -139 21 -138 q 50 -140 41 -140 q 127 -116 96 -140 q 178 -56 159 -91 l 210 0 l 59 734 l 272 734 l 332 308 z "},"ф":{"ha":1214,"x_min":16,"x_max":1191,"o":"m 42 361 q 159 644 68 541 q 387 747 249 747 q 480 725 440 747 q 548 659 520 702 l 608 1058 l 806 1058 l 746 661 q 832 725 785 703 q 936 747 879 747 q 1129 640 1067 747 q 1166 361 1191 532 l 1164 347 q 1049 82 1138 178 q 823 -14 960 -14 q 726 7 767 -14 q 658 71 685 29 l 605 -282 l 407 -282 l 459 66 q 373 6 420 26 q 271 -14 327 -14 q 79 86 142 -14 q 40 347 16 186 l 42 361 m 967 361 q 959 531 983 468 q 862 595 935 595 q 785 575 819 595 q 725 522 750 556 l 677 201 q 720 154 691 170 q 794 138 749 138 q 907 195 863 138 q 965 347 950 252 l 967 361 m 238 347 q 247 192 222 246 q 344 138 271 138 q 421 155 387 138 q 479 204 455 172 l 528 527 q 485 577 513 559 q 414 595 457 595 q 300 529 345 595 q 240 361 255 463 l 238 347 z "},"х":{"ha":709,"x_min":-41,"x_max":748,"o":"m 373 501 l 377 500 l 524 734 l 748 734 l 473 371 l 646 0 l 422 0 l 339 243 l 182 0 l -41 0 l 243 371 l 75 734 l 298 734 l 373 501 z "},"ц":{"ha":846,"x_min":18,"x_max":786,"o":"m 128 734 l 326 734 l 239 152 l 482 152 l 569 734 l 767 734 l 680 152 l 786 152 l 726 -243 l 529 -243 l 566 0 l 18 0 l 128 734 z "},"ч":{"ha":778,"x_min":69,"x_max":762,"o":"m 652 0 l 454 0 l 488 233 q 436 225 463 227 q 387 222 410 222 q 150 292 230 222 q 91 503 69 362 l 125 734 l 323 734 l 289 503 q 306 401 278 428 q 410 375 333 375 q 460 377 435 375 q 511 386 486 380 l 564 734 l 762 734 l 652 0 z "},"ш":{"ha":1147,"x_min":18,"x_max":1122,"o":"m 326 734 l 239 152 l 439 152 l 526 734 l 724 734 l 637 152 l 837 152 l 924 734 l 1122 734 l 1012 0 l 18 0 l 128 734 l 326 734 z "},"щ":{"ha":1258,"x_min":18,"x_max":1186,"o":"m 326 734 l 239 152 l 439 152 l 526 734 l 724 734 l 637 152 l 837 152 l 924 734 l 1122 734 l 1035 155 l 1186 155 l 1126 -244 l 928 -244 l 965 0 l 18 0 l 128 734 l 326 734 z "},"ъ":{"ha":883,"x_min":42,"x_max":875,"o":"m 65 734 l 476 734 l 440 496 l 578 496 q 798 428 720 496 q 859 250 875 359 q 747 67 841 134 q 504 0 653 0 l 168 0 l 254 581 l 42 581 l 65 734 m 418 345 l 389 151 l 526 151 q 620 179 585 151 q 661 248 654 206 q 642 318 667 291 q 555 345 616 345 l 418 345 z "},"ы":{"ha":1155,"x_min":47,"x_max":1078,"o":"m 319 496 l 458 496 q 677 428 600 496 q 738 250 754 359 q 626 67 720 134 q 383 0 532 0 l 47 0 l 157 734 l 355 734 l 319 496 m 968 0 l 770 0 l 880 734 l 1078 734 l 968 0 m 297 345 l 268 151 l 406 151 q 499 179 464 151 q 541 248 534 206 q 521 318 547 291 q 435 345 496 345 l 297 345 z "},"ь":{"ha":775,"x_min":33,"x_max":741,"o":"m 306 496 l 444 496 q 663 428 586 496 q 724 250 741 359 q 613 67 707 134 q 370 0 519 0 l 33 0 l 143 734 l 342 734 l 306 496 m 283 345 l 254 151 l 392 151 q 485 179 450 151 q 527 248 520 206 q 508 318 533 291 q 421 345 482 345 l 283 345 z "},"э":{"ha":722,"x_min":9,"x_max":708,"o":"m 378 595 q 291 563 328 595 q 246 482 254 532 l 66 482 l 65 486 q 175 674 79 601 q 400 747 271 747 q 631 641 555 747 q 684 376 708 535 l 682 356 q 552 87 656 189 q 287 -14 449 -14 q 83 64 157 -14 q 32 267 9 142 l 33 271 l 214 271 q 230 174 205 211 q 309 138 255 138 q 413 185 372 138 q 471 307 454 233 l 469 311 l 279 311 l 297 429 l 492 429 q 469 550 496 506 q 378 595 443 595 z "},"ю":{"ha":1127,"x_min":36,"x_max":1107,"o":"m 301 450 l 407 450 q 547 667 446 587 q 791 747 647 747 q 1027 642 948 747 q 1083 374 1107 536 l 1081 359 q 949 87 1055 188 q 679 -14 843 -14 q 459 72 538 -14 q 383 297 380 158 l 278 297 l 234 0 l 36 0 l 146 734 l 344 734 l 301 450 m 586 359 q 596 197 570 256 q 701 138 623 138 q 821 199 774 138 q 883 359 868 261 l 885 374 q 873 535 899 475 q 769 595 847 595 q 648 532 695 595 q 588 374 602 469 l 586 359 z "},"я":{"ha":784,"x_min":-20,"x_max":750,"o":"m 750 734 l 640 0 l 444 0 l 482 257 l 363 257 l 180 0 l -20 0 l 187 292 q 95 373 125 321 q 76 490 66 425 q 187 667 92 601 q 427 734 281 734 l 750 734 m 273 485 q 292 418 267 446 q 372 391 317 391 l 502 391 l 531 583 l 405 583 q 315 552 351 583 q 273 485 279 522 z "},"ѐ":{"ha":726,"x_min":19,"x_max":718,"o":"m 338 -14 q 100 88 180 -14 q 43 346 19 190 l 47 373 q 177 646 73 544 q 439 747 281 748 q 649 656 581 747 q 694 413 718 564 l 680 311 l 241 311 l 240 307 q 266 183 232 229 q 381 138 300 138 q 496 152 445 138 q 599 193 547 165 l 634 71 q 505 10 584 35 q 338 -14 427 -14 m 416 595 q 320 553 359 595 q 264 446 281 512 l 265 441 l 505 441 l 507 456 q 497 559 517 523 q 416 595 476 595 m 531 867 l 361 867 l 201 1044 l 203 1048 l 424 1048 l 531 867 z "},"ё":{"ha":726,"x_min":19,"x_max":718,"o":"m 338 -14 q 100 88 180 -14 q 43 346 19 190 l 47 373 q 177 646 73 544 q 439 747 281 748 q 649 656 581 747 q 694 413 718 564 l 680 311 l 241 311 l 240 307 q 266 183 232 229 q 381 138 300 138 q 496 152 445 138 q 599 193 547 165 l 634 71 q 505 10 584 35 q 338 -14 427 -14 m 416 595 q 320 553 359 595 q 264 446 281 512 l 265 441 l 505 441 l 507 456 q 497 559 517 523 q 416 595 476 595 m 696 868 l 515 868 l 535 1006 l 715 1006 l 696 868 m 357 868 l 176 868 l 196 1006 l 376 1006 l 357 868 z "},"ђ":{"ha":784,"x_min":17,"x_max":745,"o":"m 444 818 l 338 818 l 311 645 q 408 721 354 694 q 523 747 462 747 q 689 670 633 747 q 722 435 745 593 l 704 319 l 705 319 l 653 -28 q 555 -229 633 -161 q 353 -296 477 -296 q 304 -294 327 -296 q 258 -285 281 -291 l 290 -136 q 320 -142 304 -140 q 355 -144 337 -144 q 419 -113 393 -144 q 454 -28 446 -83 l 458 0 l 507 319 l 524 437 q 515 559 537 526 q 437 593 493 593 q 357 578 393 593 q 295 534 321 562 l 215 0 l 17 0 l 140 818 l 45 818 l 63 940 l 158 940 l 176 1058 l 374 1058 l 356 940 l 463 940 l 444 818 z "},"ѓ":{"ha":580,"x_min":18,"x_max":641,"o":"m 606 581 l 303 581 l 216 0 l 18 0 l 128 734 l 629 734 l 606 581 m 420 1033 l 640 1033 l 641 1029 l 428 852 l 264 852 l 262 856 l 420 1033 z "},"є":{"ha":722,"x_min":17,"x_max":714,"o":"m 349 138 q 434 169 398 138 q 479 251 471 200 l 659 251 l 660 247 q 550 59 645 132 q 326 -14 454 -14 q 93 91 170 -14 q 41 356 17 197 l 44 376 q 172 646 69 544 q 439 747 275 747 q 641 669 568 747 q 692 466 714 591 l 691 463 l 510 463 q 495 558 519 521 q 416 595 471 595 q 310 546 351 595 q 254 422 269 497 l 256 418 l 456 418 l 438 300 l 233 300 q 255 181 229 224 q 349 138 281 138 z "},"ѕ":{"ha":716,"x_min":7,"x_max":696,"o":"m 450 203 q 427 260 455 237 q 315 300 399 282 q 131 378 191 326 q 83 520 71 431 q 185 683 97 618 q 408 747 274 747 q 619 680 542 747 q 679 515 696 613 l 677 511 l 486 511 q 468 584 492 557 q 389 611 444 611 q 312 587 344 611 q 275 529 279 564 q 295 473 270 494 q 408 435 321 453 q 597 356 538 408 q 644 211 656 303 q 536 47 629 108 q 303 -14 444 -14 q 85 61 162 -14 q 24 229 7 136 l 26 233 l 208 233 q 234 148 201 174 q 326 121 267 121 q 412 144 378 121 q 450 203 445 166 z "},"і":{"ha":371,"x_min":32,"x_max":389,"o":"m 230 0 l 32 0 l 142 734 l 340 734 l 230 0 m 366 909 l 168 909 l 191 1058 l 389 1058 l 366 909 z "},"ї":{"ha":381,"x_min":-1,"x_max":538,"o":"m 234 0 l 36 0 l 146 734 l 344 734 l 234 0 m 519 853 l 338 853 l 358 991 l 538 991 l 519 853 m 180 853 l -1 853 l 19 991 l 199 991 l 180 853 z "},"ј":{"ha":368,"x_min":-163,"x_max":390,"o":"m 345 734 l 231 -27 q 133 -229 211 -161 q -68 -296 55 -296 q -117 -294 -94 -296 q -163 -285 -140 -291 l -132 -134 q -101 -140 -117 -138 q -68 -142 -85 -142 q -3 -114 -28 -142 q 33 -27 23 -85 l 146 734 l 345 734 m 368 911 l 169 911 l 191 1058 l 390 1058 l 368 911 z "},"љ":{"ha":1201,"x_min":-35,"x_max":1167,"o":"m 768 734 l 732 497 l 870 497 q 1090 428 1013 497 q 1151 250 1167 359 q 1039 67 1133 134 q 795 0 945 0 l 460 0 l 547 581 l 389 581 l 366 421 q 246 99 332 199 q -3 0 161 0 l -35 0 l -14 154 l 7 154 q 106 220 65 154 q 168 421 147 286 l 214 734 l 768 734 m 709 345 l 680 151 l 818 151 q 912 179 876 151 q 954 251 947 208 q 934 319 960 293 q 847 345 909 345 l 709 345 z "},"њ":{"ha":1199,"x_min":18,"x_max":1164,"o":"m 283 451 l 525 451 l 568 734 l 766 734 l 730 496 l 868 496 q 1087 428 1010 496 q 1148 250 1164 359 q 1037 67 1131 134 q 793 0 943 0 l 458 0 l 503 299 l 261 299 l 216 0 l 18 0 l 128 734 l 326 734 l 283 451 m 707 345 l 678 151 l 816 151 q 909 179 873 151 q 951 251 945 208 q 931 319 957 293 q 845 345 906 345 l 707 345 z "},"ћ":{"ha":784,"x_min":17,"x_max":745,"o":"m 544 821 l 338 821 l 311 645 q 408 721 354 694 q 523 747 462 747 q 689 670 633 747 q 722 435 745 593 l 656 0 l 458 0 l 524 437 q 515 559 537 526 q 437 593 493 593 q 357 578 393 593 q 295 534 321 562 l 215 0 l 17 0 l 140 821 l 89 821 l 107 944 l 158 944 l 176 1058 l 374 1058 l 356 944 l 562 944 l 544 821 z "},"ќ":{"ha":791,"x_min":33,"x_max":815,"o":"m 349 275 l 272 275 l 231 0 l 33 0 l 143 734 l 341 734 l 299 454 l 359 454 l 568 734 l 814 734 l 815 730 l 525 393 l 730 0 l 467 0 l 349 275 m 520 1032 l 740 1032 l 741 1028 l 528 852 l 364 852 l 363 855 l 520 1032 z "},"ѝ":{"ha":784,"x_min":18,"x_max":767,"o":"m 570 734 l 767 734 l 657 0 l 460 0 l 526 446 l 522 448 l 216 0 l 18 0 l 128 734 l 326 734 l 259 288 l 263 286 l 570 734 m 555 852 l 385 852 l 226 1029 l 227 1033 l 448 1033 l 555 852 z "},"ў":{"ha":709,"x_min":-32,"x_max":762,"o":"m 332 308 l 334 268 l 338 267 l 549 734 l 762 734 l 338 -110 q 233 -242 295 -189 q 64 -296 171 -296 q 19 -292 40 -296 q -32 -281 -3 -288 l 13 -136 q 31 -139 21 -138 q 50 -140 41 -140 q 127 -116 96 -140 q 178 -56 159 -91 l 210 0 l 59 734 l 272 734 l 332 308 m 682 1053 l 683 1049 q 603 907 673 960 q 425 854 533 854 q 263 909 321 854 q 221 1049 205 964 l 222 1053 l 368 1053 q 379 994 361 1016 q 441 971 397 971 q 507 995 483 971 q 537 1053 532 1018 l 682 1053 z "},"џ":{"ha":784,"x_min":18,"x_max":767,"o":"m 326 734 l 239 152 l 482 152 l 569 734 l 767 734 l 657 0 l 437 0 l 400 -243 l 203 -243 l 239 0 l 18 0 l 128 734 l 326 734 z "},"Ѡ":{"ha":1332,"x_min":44,"x_max":1332,"o":"m 836 973 q 922 994 876 987 q 1016 1002 968 1002 q 1247 887 1163 1002 q 1305 597 1332 773 l 1274 391 q 1129 95 1246 204 q 851 -14 1013 -14 q 722 1 779 -14 q 623 45 665 17 q 511 1 573 17 q 374 -14 450 -14 q 132 100 220 -14 q 71 391 44 214 l 102 597 q 244 892 130 783 q 514 1002 358 1002 q 604 994 559 1002 q 685 973 648 987 l 621 829 q 565 844 597 838 q 496 849 533 849 q 372 778 427 849 q 300 598 316 707 l 269 391 q 286 206 251 274 q 396 138 320 138 q 487 152 451 138 q 543 187 522 166 l 572 375 l 444 375 l 465 512 l 918 512 l 897 375 l 770 375 l 742 188 q 786 152 757 165 q 873 138 815 138 q 1002 209 945 138 q 1076 391 1059 280 l 1107 598 q 1092 781 1124 713 q 988 849 1059 849 q 917 844 951 849 q 855 829 882 838 l 836 973 z "},"ѡ":{"ha":991,"x_min":66,"x_max":1026,"o":"m 328 273 l 332 174 l 336 173 l 378 273 l 463 477 l 426 734 l 623 734 l 651 273 l 653 221 l 657 220 l 660 228 q 763 463 724 332 q 819 734 802 593 l 1026 734 q 902 358 981 539 q 715 0 824 176 l 530 0 l 498 222 l 495 222 l 385 0 l 206 0 l 66 734 l 273 734 l 328 273 z "},"Ѣ":{"ha":870,"x_min":35,"x_max":842,"o":"m 516 739 l 344 739 l 329 640 l 499 640 q 752 550 663 640 q 822 321 842 460 q 687 87 800 174 q 403 0 574 0 l 35 0 l 146 739 l 61 739 l 79 862 l 164 862 l 183 987 l 381 987 l 362 862 l 534 862 l 516 739 m 307 488 l 256 152 l 426 152 q 559 202 505 152 q 625 323 614 252 q 597 441 635 394 q 476 488 560 488 l 307 488 z "},"ѣ":{"ha":775,"x_min":33,"x_max":741,"o":"m 517 749 l 344 749 l 306 496 l 444 496 q 663 428 586 496 q 724 250 741 359 q 613 67 707 134 q 370 0 519 0 l 33 0 l 145 749 l 51 749 l 69 872 l 163 872 l 192 1059 l 391 1059 l 362 872 l 536 872 l 517 749 m 283 345 l 254 151 l 392 151 q 485 179 450 151 q 527 248 520 206 q 508 318 533 291 q 421 345 482 345 l 283 345 z "},"Ѥ":{"ha":1240,"x_min":51,"x_max":1223,"o":"m 840 414 l 589 414 l 587 396 q 611 208 569 278 q 747 138 652 138 q 884 185 832 138 q 951 328 937 233 l 1142 328 l 1143 323 q 1011 73 1122 159 q 724 -14 901 -14 q 457 102 553 -14 q 389 396 362 217 l 392 414 l 311 414 l 249 0 l 51 0 l 199 987 l 397 987 l 334 567 l 414 567 l 418 592 q 569 891 446 779 q 866 1002 691 1002 q 1131 913 1040 1002 q 1196 666 1223 824 l 1194 662 l 1002 662 q 978 805 1017 760 q 843 850 939 850 q 695 777 758 850 q 616 593 633 705 l 612 567 l 862 567 l 840 414 z "},"ѥ":{"ha":1048,"x_min":35,"x_max":1003,"o":"m 736 313 l 523 313 q 542 184 516 231 q 637 138 568 138 q 723 169 687 138 q 768 251 760 200 l 947 251 l 949 247 q 839 59 934 132 q 615 -14 743 -14 q 393 77 470 -14 q 326 313 316 169 l 279 313 l 233 0 l 35 0 l 144 734 l 342 734 l 298 435 l 345 435 q 480 663 381 578 q 728 747 579 747 q 930 669 857 747 q 981 466 1003 591 l 980 463 l 799 463 q 784 558 808 521 q 705 595 760 595 q 604 551 644 595 q 547 439 564 507 l 549 435 l 755 435 l 736 313 z "},"Ѧ":{"ha":913,"x_min":-42,"x_max":857,"o":"m 602 264 l 526 264 l 486 0 l 320 0 l 359 264 l 292 264 l 165 0 l -42 0 l 454 987 l 658 987 l 857 0 l 649 0 l 602 264 m 357 401 l 577 401 l 519 726 l 515 727 l 357 401 z "},"ѧ":{"ha":777,"x_min":-50,"x_max":708,"o":"m 471 184 l 418 184 l 391 0 l 261 0 l 289 184 l 242 184 l 152 0 l -50 0 l 337 734 l 541 734 l 708 0 l 507 0 l 471 184 m 303 309 l 447 309 l 418 459 l 411 535 l 407 536 l 377 459 l 303 309 z "},"Ѩ":{"ha":1301,"x_min":63,"x_max":1215,"o":"m 321 401 l 518 401 l 813 987 l 1017 987 l 1215 0 l 1008 0 l 960 264 l 884 264 l 845 0 l 679 0 l 718 264 l 650 264 l 524 0 l 317 0 l 449 264 l 300 264 l 261 0 l 63 0 l 211 987 l 409 987 l 321 401 m 716 401 l 936 401 l 878 726 l 873 727 l 716 401 z "},"ѩ":{"ha":1111,"x_min":58,"x_max":1011,"o":"m 302 309 l 416 309 l 640 734 l 844 734 l 1011 0 l 810 0 l 774 184 l 722 184 l 694 0 l 564 0 l 592 184 l 545 184 l 455 0 l 58 0 l 168 734 l 366 734 l 302 309 m 606 309 l 750 309 l 721 459 l 714 535 l 710 536 l 680 459 l 606 309 m 283 184 l 259 19 l 262 18 l 351 184 l 283 184 z "},"Ѫ":{"ha":1210,"x_min":22,"x_max":1145,"o":"m 825 545 q 1060 465 983 540 q 1114 233 1137 390 l 1079 0 l 881 0 l 916 233 q 896 358 930 326 q 774 391 863 391 l 718 391 l 659 0 l 460 0 l 519 391 l 445 391 q 315 356 361 391 q 256 233 269 321 l 220 0 l 22 0 l 58 233 q 183 474 83 404 q 463 546 283 545 l 275 987 l 1145 987 l 825 545 m 648 570 l 824 833 l 550 833 l 648 570 z "},"ѫ":{"ha":1018,"x_min":20,"x_max":931,"o":"m 696 412 q 871 327 814 397 q 907 121 927 256 l 889 0 l 692 0 l 710 121 q 698 239 723 208 q 605 270 673 270 l 597 270 l 557 0 l 359 0 l 399 270 l 386 270 q 284 237 321 270 q 236 121 248 204 l 218 0 l 20 0 l 39 121 q 137 335 60 267 q 347 414 214 403 l 209 734 l 931 734 l 696 412 m 523 431 l 527 431 l 636 606 l 465 606 l 523 431 z "},"Ѭ":{"ha":1616,"x_min":50,"x_max":1529,"o":"m 888 392 l 230 392 l 253 547 l 911 547 l 888 392 m 248 0 l 50 0 l 198 987 l 396 987 l 248 0 m 1209 545 q 1445 465 1368 540 q 1499 233 1522 390 l 1463 0 l 1265 0 l 1301 233 q 1281 358 1314 326 q 1159 391 1247 391 l 1102 391 l 1043 0 l 845 0 l 904 391 l 829 391 q 699 356 745 391 q 640 233 653 321 l 605 0 l 407 0 l 442 233 q 568 474 467 404 q 848 546 668 545 l 660 987 l 1529 987 l 1209 545 m 1032 570 l 1208 833 l 935 833 l 1032 570 z "},"ѭ":{"ha":1398,"x_min":36,"x_max":1274,"o":"m 820 275 l 144 275 l 165 416 l 841 416 l 820 275 m 234 0 l 36 0 l 146 734 l 344 734 l 234 0 m 1039 412 q 1214 327 1158 397 q 1251 121 1270 256 l 1232 0 l 1035 0 l 1053 121 q 1041 239 1066 208 q 948 270 1017 270 l 941 270 l 900 0 l 702 0 l 742 270 l 729 270 q 628 237 664 270 q 579 121 591 204 l 561 0 l 363 0 l 382 121 q 480 335 404 267 q 690 414 557 403 l 552 734 l 1274 734 l 1039 412 m 866 431 l 870 431 l 979 606 l 808 606 l 866 431 z "},"Ѯ":{"ha":713,"x_min":-72,"x_max":780,"o":"m 352 987 q 601 922 516 987 q 667 729 686 857 q 605 590 654 646 q 477 505 556 534 q 602 417 562 475 q 629 277 642 359 q 505 60 608 134 q 243 -14 401 -14 l 204 -14 q 144 -32 166 -14 q 117 -79 122 -50 q 135 -145 111 -122 q 199 -188 159 -169 l 126 -304 q -25 -214 22 -279 q -59 -54 -72 -149 q 27 95 -43 47 q 213 143 97 143 l 256 143 q 374 180 326 143 q 431 274 422 216 q 401 389 443 351 q 269 427 360 427 l 172 427 l 178 475 l 195 585 l 296 585 q 414 620 370 585 q 467 713 457 654 q 441 800 475 769 q 329 831 407 831 l 153 831 l 176 987 l 352 987 m 509 1213 l 601 1299 l 780 1299 l 778 1287 l 562 1114 l 427 1114 l 262 1288 l 264 1299 l 443 1299 l 509 1213 z "},"ѯ":{"ha":701,"x_min":-55,"x_max":696,"o":"m 314 734 q 552 683 470 734 q 619 531 634 631 q 573 430 610 471 q 473 366 536 389 q 576 302 543 342 q 602 206 609 261 q 491 42 585 99 q 254 -14 398 -14 l 220 -14 q 152 -32 177 -14 q 123 -79 127 -50 q 137 -146 116 -122 q 194 -188 159 -170 l 123 -294 q -8 -202 38 -266 q -43 -54 -55 -139 q 35 81 -29 38 q 205 125 99 125 l 243 125 q 354 149 309 125 q 405 212 399 174 q 375 281 412 258 q 260 304 338 304 l 153 304 l 161 360 l 171 425 l 283 425 q 378 449 344 425 q 420 515 413 474 q 394 574 425 553 q 294 595 363 595 l 117 595 l 138 734 l 314 734 m 425 979 l 517 1065 l 696 1065 l 694 1054 l 477 881 l 342 881 l 178 1055 l 180 1065 l 359 1065 l 425 979 z "},"Ѱ":{"ha":1006,"x_min":52,"x_max":1058,"o":"m 607 395 l 610 393 q 739 466 688 404 q 807 637 790 528 l 859 987 l 1058 987 l 1006 637 q 866 351 978 453 q 583 233 753 248 l 548 0 l 351 0 l 385 232 q 138 354 223 248 q 79 637 52 460 l 132 987 l 329 987 l 277 637 q 294 465 260 526 q 406 393 328 404 l 410 393 l 498 987 l 696 987 l 607 395 z "},"ѱ":{"ha":1035,"x_min":24,"x_max":1010,"o":"m 665 734 l 578 156 l 582 154 q 729 240 675 174 q 799 401 784 307 q 802 564 809 481 q 774 734 795 646 l 958 734 q 999 584 987 667 q 996 401 1010 500 q 863 122 970 232 q 553 -9 757 12 l 507 -324 l 309 -324 l 356 -7 q 107 117 189 16 q 52 400 24 218 l 102 734 l 300 734 l 250 398 q 267 226 233 284 q 376 154 302 168 l 380 155 l 467 734 l 665 734 z "},"Ѳ":{"ha":956,"x_min":45,"x_max":949,"o":"m 897 405 q 737 101 867 216 q 420 -14 606 -14 q 145 105 245 -14 q 73 405 45 225 l 99 583 q 257 886 127 770 q 572 1002 387 1002 q 849 881 749 1002 q 923 583 949 761 l 897 405 m 625 511 q 675 525 648 511 q 722 559 703 538 l 726 584 q 697 775 743 703 q 548 847 650 847 q 382 772 451 847 q 296 584 313 698 l 289 535 q 345 575 313 561 q 414 589 376 589 q 520 550 456 589 q 625 511 583 511 m 701 418 q 647 386 677 397 q 584 375 618 375 q 473 414 531 375 q 373 454 416 454 q 312 432 345 454 q 267 381 280 410 q 301 204 255 269 q 444 140 347 140 q 611 214 541 140 q 699 405 681 289 l 701 418 z "},"ѳ":{"ha":784,"x_min":20,"x_max":764,"o":"m 47 374 q 179 646 73 544 q 448 747 285 747 q 684 642 605 747 q 740 374 764 536 l 738 359 q 606 87 711 188 q 336 -14 500 -14 q 100 91 179 -14 q 45 359 20 197 l 47 374 m 486 385 q 519 396 503 385 q 547 427 536 408 q 521 550 549 505 q 426 595 492 595 q 313 541 357 595 q 256 407 268 486 l 259 404 q 291 429 270 419 q 334 439 311 439 q 410 412 364 439 q 486 385 456 385 m 302 334 q 263 318 282 334 q 237 278 244 302 q 267 174 238 211 q 358 138 296 138 q 464 183 421 138 q 522 301 507 229 l 519 304 q 492 286 509 292 q 455 279 474 279 q 375 307 417 279 q 302 334 332 334 z "},"Ѵ":{"ha":892,"x_min":102,"x_max":996,"o":"m 416 268 l 420 212 l 424 212 l 444 266 l 656 770 q 774 943 708 885 q 928 1000 840 1000 q 967 997 950 1000 q 996 987 984 994 l 958 837 q 943 838 955 837 q 924 840 931 840 q 871 818 897 840 q 829 758 845 795 l 492 0 l 288 0 l 102 987 l 311 987 l 416 268 z "},"ѵ":{"ha":709,"x_min":66,"x_max":775,"o":"m 313 273 l 315 214 l 319 214 l 340 273 l 441 527 q 555 692 490 637 q 707 747 620 747 q 745 744 728 747 q 775 734 762 741 l 736 585 q 723 586 734 585 q 703 587 711 587 q 654 567 678 587 q 617 518 629 547 l 382 0 l 193 0 l 66 734 l 273 734 l 313 273 z "},"Ѷ":{"ha":892,"x_min":102,"x_max":996,"o":"m 416 268 l 420 212 l 424 212 l 444 266 l 656 770 q 774 943 708 885 q 928 1000 840 1000 q 967 997 950 1000 q 996 987 984 994 l 958 837 q 943 838 955 837 q 924 840 931 840 q 871 818 897 840 q 829 758 845 795 l 492 0 l 288 0 l 102 987 l 311 987 l 416 268 m 499 1078 l 336 1078 l 170 1255 l 172 1259 l 360 1259 l 499 1078 m 731 1078 l 571 1078 l 432 1259 l 623 1259 l 731 1078 z "},"ѷ":{"ha":709,"x_min":66,"x_max":775,"o":"m 313 273 l 315 214 l 319 214 l 340 273 l 441 527 q 555 692 490 637 q 707 747 620 747 q 745 744 728 747 q 775 734 762 741 l 736 585 q 723 586 734 585 q 703 587 711 587 q 654 567 678 587 q 617 518 629 547 l 382 0 l 193 0 l 66 734 l 273 734 l 313 273 m 406 905 l 243 905 l 76 1081 l 78 1085 l 267 1085 l 406 905 m 637 905 l 477 905 l 338 1085 l 530 1085 l 637 905 z "},"Ѹ":{"ha":1665,"x_min":45,"x_max":1717,"o":"m 897 405 q 737 101 867 216 q 420 -14 606 -14 q 145 105 245 -14 q 73 405 45 225 l 99 583 q 257 886 127 770 q 572 1002 387 1002 q 849 881 749 1002 q 923 583 949 761 l 897 405 m 726 584 q 697 775 743 703 q 548 847 650 847 q 382 772 451 847 q 296 584 313 698 l 270 405 q 296 212 252 283 q 444 140 341 140 q 611 214 541 140 q 699 405 681 289 l 726 584 m 1288 308 l 1289 268 l 1293 267 l 1504 734 l 1717 734 l 1293 -110 q 1188 -242 1251 -189 q 1019 -296 1126 -296 q 974 -292 996 -296 q 924 -281 953 -288 l 968 -136 q 987 -139 977 -138 q 1005 -140 997 -140 q 1083 -116 1052 -140 q 1134 -56 1114 -91 l 1165 0 l 1015 734 l 1227 734 l 1288 308 z "},"ѹ":{"ha":1493,"x_min":20,"x_max":1546,"o":"m 47 374 q 179 646 73 544 q 448 747 285 747 q 684 642 605 747 q 740 374 764 536 l 738 359 q 606 87 711 188 q 336 -14 500 -14 q 100 91 179 -14 q 45 359 20 197 l 47 374 m 243 359 q 253 197 227 256 q 358 138 279 138 q 478 199 431 138 q 540 359 525 261 l 542 374 q 530 535 556 475 q 426 595 504 595 q 305 532 352 595 q 245 374 258 469 l 243 359 m 1116 308 l 1118 268 l 1122 267 l 1333 734 l 1546 734 l 1122 -110 q 1017 -242 1079 -189 q 848 -296 955 -296 q 803 -292 824 -296 q 752 -281 781 -288 l 797 -136 q 815 -139 805 -138 q 833 -140 825 -140 q 911 -116 880 -140 q 962 -56 943 -91 l 994 0 l 843 734 l 1056 734 l 1116 308 z "},"Ѻ":{"ha":956,"x_min":45,"x_max":949,"o":"m 604 762 l 471 762 l 518 1069 l 650 1069 l 604 762 m 477 -92 l 345 -92 l 392 222 l 524 222 l 477 -92 m 897 405 q 737 101 867 216 q 420 -14 606 -14 q 145 105 245 -14 q 73 405 45 225 l 99 583 q 257 886 127 770 q 572 1002 387 1002 q 849 881 749 1002 q 923 583 949 761 l 897 405 m 726 584 q 697 775 743 703 q 548 847 650 847 q 382 772 451 847 q 296 584 313 698 l 270 405 q 296 212 252 283 q 444 140 341 140 q 611 214 541 140 q 699 405 681 289 l 726 584 z "},"ѻ":{"ha":784,"x_min":20,"x_max":764,"o":"m 484 517 l 351 517 l 396 817 l 529 817 l 484 517 m 390 -83 l 258 -83 l 304 224 l 436 224 l 390 -83 m 47 374 q 179 646 73 544 q 448 747 285 747 q 684 642 605 747 q 740 374 764 536 l 738 359 q 606 87 711 188 q 336 -14 500 -14 q 100 91 179 -14 q 45 359 20 197 l 47 374 m 243 359 q 253 197 227 256 q 358 138 279 138 q 478 199 431 138 q 540 359 525 261 l 542 374 q 530 535 556 475 q 426 595 504 595 q 305 532 352 595 q 245 374 258 469 l 243 359 z "},"Ѽ":{"ha":1332,"x_min":47,"x_max":1330,"o":"m 856 973 q 932 994 892 987 q 1016 1002 973 1002 q 1247 880 1164 1002 q 1301 570 1330 758 l 1280 425 q 1131 104 1249 223 q 851 -14 1013 -14 q 722 4 779 -14 q 625 55 665 22 q 512 4 574 22 q 374 -14 450 -14 q 134 109 220 -14 q 77 425 47 233 l 98 570 q 243 885 127 768 q 514 1002 358 1002 q 593 994 555 1002 q 665 973 632 987 l 601 829 q 554 844 581 838 q 496 849 528 849 q 370 771 427 849 q 296 572 313 692 l 274 425 q 287 215 254 293 q 396 138 320 138 q 487 155 452 138 q 545 197 523 172 l 549 224 l 747 224 l 743 197 q 786 154 758 170 q 873 138 815 138 q 1004 218 945 138 q 1082 425 1063 299 l 1104 572 q 1091 774 1123 699 q 988 849 1059 849 q 928 844 957 849 q 876 829 899 838 l 856 973 m 1126 1273 l 1112 1182 l 1097 1182 q 911 1223 1014 1182 q 780 1263 808 1263 q 726 1246 748 1263 q 700 1194 705 1229 l 698 1182 l 608 1182 l 612 1207 q 668 1319 623 1284 q 791 1354 714 1354 q 936 1314 836 1354 q 1112 1273 1036 1273 l 1126 1273 m 744 982 l 694 1019 l 745 1093 l 760 1192 l 883 1192 l 870 1105 l 744 982 z "},"ѽ":{"ha":1141,"x_min":31,"x_max":1117,"o":"m 699 720 q 767 741 732 733 q 842 748 803 748 q 1043 645 970 748 q 1094 384 1117 543 l 1089 353 q 961 85 1064 184 q 715 -14 857 -14 q 610 2 656 -14 q 528 46 563 18 q 433 2 485 18 q 319 -14 380 -14 q 108 89 184 -14 q 56 353 31 193 l 60 384 q 185 649 85 550 q 421 748 286 748 q 492 741 457 748 q 555 720 526 733 l 492 575 q 452 590 474 585 q 404 595 430 595 q 313 536 354 595 q 258 385 271 477 l 253 353 q 262 196 238 255 q 342 138 286 138 q 407 152 380 138 q 449 188 433 166 l 455 229 l 653 229 l 647 188 q 676 152 656 165 q 738 138 696 138 q 834 199 790 138 q 892 353 878 260 l 897 385 q 888 538 911 481 q 814 595 866 595 q 764 590 788 595 q 720 575 739 585 l 699 720 m 1008 1015 l 995 924 l 979 924 q 794 964 897 924 q 663 1005 692 1005 q 609 988 631 1005 q 583 936 587 970 l 581 924 l 490 924 l 494 949 q 551 1061 505 1025 q 674 1096 597 1096 q 818 1055 718 1096 q 994 1015 918 1015 l 1008 1015 m 629 732 l 578 770 l 630 844 l 643 934 l 766 934 l 754 856 l 629 732 z "},"Ѿ":{"ha":1333,"x_min":44,"x_max":1332,"o":"m 602 1144 l 589 1058 l 469 1059 l 494 1220 l 1094 1220 l 1069 1058 l 948 1058 l 961 1144 l 838 1144 l 825 1058 l 703 1058 l 715 1144 l 602 1144 m 855 829 q 917 844 882 838 q 988 849 951 849 q 1092 781 1059 849 q 1107 598 1124 713 l 1076 391 q 1002 209 1059 280 q 873 138 945 138 q 786 152 815 138 q 742 188 757 165 l 770 375 l 897 375 l 918 512 l 465 512 l 444 375 l 572 375 l 543 187 q 487 152 522 166 q 396 138 451 138 q 286 206 320 138 q 269 391 251 274 l 300 598 q 372 778 316 707 q 496 849 427 849 q 565 844 533 849 q 621 829 597 838 l 685 973 q 604 994 648 987 q 514 1002 559 1002 q 244 892 358 1002 q 102 597 130 783 l 71 391 q 132 100 44 214 q 374 -14 220 -14 q 511 1 450 -14 q 623 45 573 17 q 722 1 665 17 q 851 -14 779 -14 q 1129 95 1013 -14 q 1274 391 1246 204 l 1305 597 q 1247 887 1332 773 q 1016 1002 1163 1002 q 922 994 968 1002 q 836 973 876 987 l 855 829 z "},"ѿ":{"ha":991,"x_min":66,"x_max":1026,"o":"m 430 912 l 417 826 l 296 827 l 321 988 l 880 988 l 856 826 l 734 826 l 747 912 l 645 912 l 632 826 l 509 826 l 522 912 l 430 912 m 273 734 l 66 734 l 206 0 l 385 0 l 495 222 l 498 222 l 530 0 l 715 0 q 902 358 824 176 q 1026 734 981 539 l 819 734 q 763 463 802 593 q 660 228 724 332 l 657 220 l 653 221 l 651 273 l 623 734 l 426 734 l 463 477 l 378 273 l 336 173 l 332 174 l 328 273 l 273 734 z "}}}
